<svg id="Layer_1" xmlns="http://www.w3.org/2000/svg" viewBox="0 0 15 21"><style>.st0{enable-background:new}.st1{fill:#d0d4d6}</style><g class="st0"><path class="st1" d="M.1 15.1c0-.8.2-1.4.5-1.8.3-.5.8-.8 1.5-1-.2-.5-.3-.9-.3-1.2 0-.5.2-.9.7-1.4S3.4 9 3.9 9c.2 0 .5.1.8.2-1.3-3.4-1.9-5.5-1.9-6.3 0-.6.2-1.1.5-1.5S4 .9 4.6.9c1 0 2.2 2.2 3.6 6.5 0 .1.1.2.1.3 0-.1.2-.4.3-.9.2-.6.4-1 .5-1.4.2-.4.4-.9.6-1.4.2-.5.5-1 .7-1.4s.5-.7.8-1c.3-.3.6-.4.9-.4.5 0 .9.2 1.3.5s.5.8.5 1.4c0 .8-.6 2.8-1.8 6.1.5.1.8.3 1.1.5.3.2.5.5.7.9.1.3.2.7.3 1 .1.3.1.8.1 1.2 0 1.1-.2 2.2-.5 3.1-.3 1-.8 1.8-1.5 2.5s-1.4 1.3-2.4 1.7-2 .6-3.1.6c-.8 0-1.7-.2-2.5-.5-1.1-.4-2.1-1.1-2.9-2.1s-1.3-1.9-1.3-3zm1.3-.1c0 .3.1.7.3 1.2.4 1.1 1.1 1.9 2 2.5s2 .9 3.1.9c1.7 0 3.1-.6 4.3-1.9 1.1-1.3 1.7-2.8 1.7-4.8v-.7c0-.2-.1-.4-.1-.7-.1-.3-.2-.5-.3-.6-.4-.4-1.2-.6-2.4-.8s-2.2-.4-3-.4c-.3 0-.5 0-.5.1-.1 0-.1.2-.1.4 0 .3.1.5.2.7s.4.3.6.4c.3.1.5.2.9.3.3.1.6.1 1 .1h2c.2 0 .3.1.4.2.1.1.2.3.2.6-.2.2-.6.4-1.1.6-.5.2-.8.3-1 .5-.6.4-1 .9-1.3 1.4-.3.5-.5 1-.5 1.5 0 .2.1.6.2 1s.2.8.2 1v.3c-1-.1-1.6-.9-1.6-2.4h-.5v.2c0 .4-.2.7-.5 1-.3.3-.6.4-1 .4-.6 0-1.2-.3-1.9-.9-.6-.6-.9-1.2-.9-1.8 0-.3.1-.5.4-.7.4.5.6.8.7.8.6.8 1.1 1.2 1.5 1.2.1 0 .2 0 .3-.1.1-.1.2-.1.2-.2 0-.3-.3-.8-1-1.6s-1.1-1.2-1.3-1.2c-.3 0-.6.2-.8.5-.3.3-.4.6-.4 1zm1.8-3.8c0 .3.2.7.6 1.3.4.6.8 1.2 1.3 1.7.4.6.8.8 1.1.8.1 0 .2 0 .3-.1.1-.1.1-.2.1-.3 0-.2-.1-.6-.4-1.1-.1-.2-.2-.5-.4-.8-.1-.3-.3-.6-.5-1s-.4-.7-.7-.9c-.2-.2-.5-.4-.7-.4-.1 0-.3.1-.5.3-.1.2-.2.4-.2.5zM4 2.7c0 .7.6 2.7 1.8 5.8.1-.1.3-.1.5-.1.1 0 .4 0 .8.1L5.8 4.6c-.6-1.6-1-2.5-1.4-2.5-.1 0-.2.1-.3.2 0 .2-.1.3-.1.4zm3.3 10c.2.6.3.9.4 1 .3-.3.5-.6.8-.7-.1 0-.2 0-.4-.1-.2 0-.3-.1-.4-.1-.2 0-.3 0-.4-.1zm3.3-7.6L9.4 8.7l1.3.3c1.2-3.4 1.8-5.3 1.8-5.8 0-.4-.1-.6-.4-.6-.4 0-.9.8-1.5 2.5z"/></g></svg>