<svg id="Layer_1" xmlns="http://www.w3.org/2000/svg" viewBox="0 0 18 20"><style>.st0{enable-background:new}.st1{fill:#d0d4d6}</style><g class="st0"><path class="st1" d="M4.1 3.4c0 .5-.2 1-.6 1.4-.3.3-.8.5-1.4.5-.6 0-1.1-.2-1.5-.5C.2 4.4 0 4 0 3.4c0-.5.2-1 .6-1.4.4-.3.9-.5 1.5-.5s1.1.2 1.5.5c.3.4.5.9.5 1.4zm-.2 3.4v11.1H.2V6.8h3.7zm13.2 4.8v6.3h-3.7V12c0-.8-.2-1.4-.5-1.8-.3-.4-.8-.7-1.4-.7-.5 0-.9.1-1.2.4-.3.3-.6.6-.7 1-.1.2-.1.5-.1.9V18H5.9V7h3.7v1.6c.1-.4.3-.6.4-.8l.6-.6c.2-.2.6-.4 1-.5s.8-.2 1.3-.2c1.3 0 2.3.4 3.1 1.3.8.9 1.1 2.1 1.1 3.8z"/></g></svg>