<svg id="Layer_1" xmlns="http://www.w3.org/2000/svg" viewBox="0 0 19 20"><style>.st0{enable-background:new}.st1{fill:#d0d4d6}</style><g class="st0"><path class="st1" d="M18.1 4.4c-.5.7-1.1 1.3-1.8 1.9v.5c0 1-.1 1.9-.4 2.9s-.7 1.9-1.3 2.8-1.3 1.7-2.1 2.3c-.8.7-1.8 1.2-2.9 1.6-1.1.4-2.3.6-3.6.6-2 0-3.9-.5-5.5-1.6h.9c1.7 0 3.2-.5 4.5-1.5-.8 0-1.5-.3-2.1-.7-.6-.5-1-1.1-1.3-1.8.2 0 .5.1.7.1.3 0 .6 0 .9-.1-.8-.2-1.5-.6-2.1-1.2-.5-.8-.8-1.5-.8-2.4.5.3 1 .4 1.6.5-.5-.4-.8-.9-1.1-1.4-.3-.5-.5-1.1-.5-1.7 0-.7.2-1.3.5-1.8.9 1.1 2 2 3.3 2.7 1.3.7 2.7 1 4.1 1.1v-.9c0-1 .4-1.8 1.1-2.6s1.6-1.1 2.6-1.1 1.9.4 2.6 1.1c.8-.2 1.6-.4 2.3-.9-.3.9-.8 1.5-1.6 2 .6.1 1.3-.1 2-.4z"/></g></svg>