<?xml version="1.0" encoding="utf-8"?>
<!-- Generator: Adobe Illustrator 21.1.0, SVG Export Plug-In . SVG Version: 6.00 Build 0)  -->
<svg version="1.1" id="Layer_1" xmlns="http://www.w3.org/2000/svg" xmlns:xlink="http://www.w3.org/1999/xlink" x="0px" y="0px"
	 viewBox="0 0 492.5 340.5" style="enable-background:new 0 0 492.5 340.5;" xml:space="preserve">
<style type="text/css">
	.st0{fill:#E4E4E4;}
	.st1{fill:#4384F5;}
	.st2{enable-background:new    ;}
	.st3{fill:#182538;}
	.st4{fill:#FFFFFF;}
	.st5{fill:url(#Rectangle_867_2_);}
	.st6{fill:url(#Rectangle_868_2_);}
	.st7{fill:#F37021;}
</style>
<g id="Group_342" transform="translate(-10272 -464)">
	<path id="Rectangle_895" class="st0" d="M10362.1,489.7h336.7c9.4,0,17,7.6,17,17v44c0,9.4-7.6,17-17,17l0,0h-353.7l0,0v-61
		C10345.1,497.3,10352.8,489.7,10362.1,489.7z"/>
	<path id="Rectangle_896" class="st1" d="M10379.1,592.7h336.7c9.4,0,17,7.6,17,17v29l0,0h-353.7c-9.4,0-17-7.6-17-17l0,0v-12
		C10362.1,600.3,10369.8,592.7,10379.1,592.7z"/>
	<g class="st2">
		<path class="st3" d="M10363.3,520.6v-12.5h1.7v12.5H10363.3z"/>
		<path class="st3" d="M10370.8,520.9c-1.8,0-2.7-0.9-2.7-2.9l0.1-5.1l-1.5-0.1l0.1-1l1.5-0.5v-2h1.6l-0.1,2.1h2.9l-0.1,1.5h-2.9
			l-0.1,5.2c0,0.9,0.4,1.3,1.2,1.3c0.6,0,1.1-0.1,1.7-0.3l0.3,1.4C10372.2,520.7,10371.5,520.9,10370.8,520.9z"/>
		<path class="st3" d="M10375.6,507.2c0.8,0,1.7,0.8,1.7,1.8c0,1.7-1.5,2.9-3,3.9l-0.7-0.7c1.4-1,2-1.8,2-2.5c0-0.5-0.4-0.8-1.4-1.3
			C10374.3,507.8,10374.8,507.2,10375.6,507.2z"/>
		<path class="st3" d="M10381.1,520.9c-1.1,0-2.4-0.3-3.2-0.9l0.4-1.5c0.8,0.5,1.9,0.9,2.8,0.9c1,0,1.8-0.5,1.8-1.3
			c0-0.9-1.1-1.2-2.2-1.5c-1.3-0.4-2.7-1-2.7-2.7s1.4-2.8,3.3-2.8c1.1,0,2.1,0.3,3,0.7l-0.4,1.5c-0.8-0.4-1.9-0.7-2.6-0.7
			c-1,0-1.6,0.4-1.6,1.1c0,0.9,1,1.2,2.1,1.5c1.3,0.4,2.8,1,2.8,2.7S10383.1,520.9,10381.1,520.9z"/>
		<path class="st3" d="M10394,520.9c-1.8,0-2.7-0.9-2.7-2.9l0.1-5.1l-1.5-0.1l0.1-1l1.5-0.5v-2h1.6l-0.1,2.1h2.9l-0.1,1.5h-2.9
			l-0.1,5.2c0,0.9,0.4,1.3,1.2,1.3c0.6,0,1.1-0.1,1.7-0.3l0.3,1.4C10395.4,520.7,10394.7,520.9,10394,520.9z"/>
		<path class="st3" d="M10398.8,509.4c-0.7,0-1.1-0.6-1.1-1.2s0.3-1.2,1.1-1.2s1.1,0.6,1.1,1.2S10399.6,509.4,10398.8,509.4z
			 M10398,520.6v-9.2l1.6-0.3v9.5H10398z"/>
		<path class="st3" d="M10413.9,520.6v-5.7c0-1.6-0.6-2.2-1.8-2.2c-1,0-1.8,0.5-2.3,1v0.6v6.3h-1.6v-5.7c0-1.6-0.6-2.2-1.8-2.2
			c-1,0-1.8,0.4-2.3,0.9v7h-1.6v-9.2l1.6-0.3c0,0,0,1.2,0,1.3c0.9-0.8,1.8-1.3,2.9-1.3c1.1,0,1.9,0.5,2.4,1.5c1-1,2.1-1.5,3.3-1.5
			c1.7,0,2.8,1.2,2.8,3.2v6.3L10413.9,520.6L10413.9,520.6z"/>
		<path class="st3" d="M10419.4,516.3c0.1,1.8,1.3,3.1,3,3.1c1,0,2-0.3,2.7-0.8l0.3,1.5c-0.8,0.5-1.9,0.8-3.1,0.8
			c-2.8,0-4.6-2-4.6-4.8c0-3,2-5,4.5-5c2.2,0,3.5,1.4,3.5,3.6c0,0.5-0.1,1.1-0.2,1.5C10425.5,516.1,10419.4,516.2,10419.4,516.3
			L10419.4,516.3z M10424.2,514.9L10424.2,514.9c0-1.5-0.6-2.4-2.1-2.4c-1.6,0-2.5,1.2-2.6,2.4L10424.2,514.9z"/>
		<path class="st3" d="M10437.3,508.6c-0.4-0.2-1-0.4-1.5-0.4c-0.9,0-1.4,0.6-1.4,1.9v1.3h2.9l-0.1,1.5h-2.8v7.7h-1.6v-7.7l-1.6-0.1
			l0.1-1l1.5-0.4v-1.2c0-2.6,1.2-3.5,3-3.5c0.7,0,1.4,0.2,1.8,0.4C10437.7,507.1,10437.3,508.6,10437.3,508.6z"/>
		<path class="st3" d="M10442.6,520.9c-2.6,0-4.4-1.9-4.4-4.9c0-2.9,1.9-4.9,4.5-4.9s4.4,1.9,4.4,4.9
			C10447.1,518.9,10445.2,520.9,10442.6,520.9z M10442.7,512.6c-1.8,0-2.8,1.4-2.8,3.4s1.1,3.4,2.9,3.4c1.8,0,2.8-1.4,2.8-3.4
			C10445.5,514,10444.5,512.6,10442.7,512.6z"/>
		<path class="st3" d="M10451,520.6h-1.6v-9.2l1.6-0.3v1.6c0.6-1,1.4-1.6,2.6-1.6c0.6,0,1.2,0.2,1.7,0.5l-0.4,1.5
			c-0.5-0.3-1-0.4-1.5-0.4c-0.9,0-1.7,0.6-2.4,1.9L10451,520.6L10451,520.6z"/>
		<path class="st3" d="M10465.3,520.7l-0.6,1.6c-0.9,2.3-1.8,3-3.2,3c-0.7,0-1.3-0.2-1.9-0.5l0.5-1.5c0.5,0.2,1,0.4,1.5,0.4
			c0.7,0,1.1-0.4,1.8-2l0.6-1.4l-3.6-9h1.8l2.7,7.1l2.6-7.1h1.7L10465.3,520.7z"/>
		<path class="st3" d="M10474.1,520.9c-2.6,0-4.4-1.9-4.4-4.9c0-2.9,1.9-4.9,4.5-4.9s4.4,1.9,4.4,4.9
			C10478.6,518.9,10476.7,520.9,10474.1,520.9z M10474.1,512.6c-1.8,0-2.8,1.4-2.8,3.4s1.1,3.4,2.9,3.4c1.8,0,2.8-1.4,2.8-3.4
			S10475.9,512.6,10474.1,512.6z"/>
		<path class="st3" d="M10482.4,511.4v5.8c0,1.6,0.6,2.1,1.8,2.1c1.1,0,2-0.5,2.5-1v-6.9h1.6v9.2l-1.6,0.3c0,0,0-1.2,0-1.3
			c-0.8,0.8-1.9,1.3-3.1,1.3c-1.8,0-2.9-1.2-2.9-3.2v-6.3L10482.4,511.4L10482.4,511.4z"/>
		<path class="st3" d="M10492.8,520.6h-1.6v-9.2l1.6-0.3v1.6c0.6-1,1.4-1.6,2.6-1.6c0.6,0,1.2,0.2,1.7,0.5l-0.4,1.5
			c-0.5-0.3-1-0.4-1.5-0.4c-0.9,0-1.7,0.6-2.4,1.9L10492.8,520.6L10492.8,520.6z"/>
		<path class="st3" d="M10505,520.6h-1.6v-9.2l1.6-0.3v1.6c0.6-1,1.4-1.6,2.6-1.6c0.6,0,1.2,0.2,1.7,0.5l-0.4,1.5
			c-0.5-0.3-1-0.4-1.5-0.4c-0.9,0-1.7,0.6-2.4,1.9L10505,520.6L10505,520.6z"/>
		<path class="st3" d="M10511.8,516.3c0.1,1.8,1.3,3.1,3,3.1c1,0,2-0.3,2.7-0.8l0.3,1.5c-0.8,0.5-1.9,0.8-3.1,0.8
			c-2.8,0-4.6-2-4.6-4.8c0-3,2-5,4.5-5c2.2,0,3.5,1.4,3.5,3.6c0,0.5-0.1,1.1-0.2,1.5C10518,516.1,10511.8,516.2,10511.8,516.3
			L10511.8,516.3z M10516.6,514.9L10516.6,514.9c0-1.5-0.6-2.4-2.1-2.4c-1.6,0-2.5,1.2-2.6,2.4L10516.6,514.9z"/>
		<path class="st3" d="M10519.9,519.2c0-0.8,0.6-1.5,1.5-1.8c-1-0.6-1.5-1.6-1.5-2.8c0-1.8,1.3-3.5,3.7-3.5c1,0,1.8,0.3,2.4,0.5
			l2.4-0.2l0.1,1.6l-1.8-0.3c0.4,0.3,0.6,1.2,0.6,1.9c0,1.8-1.5,3.4-3.7,3.4c-0.5,0-0.7-0.1-1.3-0.2c-0.4,0.1-0.9,0.5-0.9,1
			s0.4,0.9,2.1,0.9c0,0,1,0,0.8,0c2.7,0,4,0.8,4,2.5c0,2-2.2,3.5-4.9,3.5c-2.4,0-4.3-1-4.3-2.7c0-1,0.7-1.9,2-2.1
			C10520.3,520.4,10519.9,519.8,10519.9,519.2z M10520.7,522.5c0,1,1.2,1.7,2.9,1.7s3.1-0.7,3.1-1.9c0-1-0.9-1.2-2.7-1.2
			c-0.6,0-1.3,0-1.7-0.1C10521.4,521.3,10520.7,521.8,10520.7,522.5z M10523.6,516.6c1.2,0,2-0.9,2-2.1c0-1.2-0.7-2.1-2.1-2.1
			c-1.2,0-2,0.9-2,2.2C10521.5,515.8,10522.3,516.6,10523.6,516.6z"/>
		<path class="st3" d="M10531.5,511.4v5.8c0,1.6,0.6,2.1,1.8,2.1c1.1,0,2-0.5,2.5-1v-6.9h1.6v9.2l-1.6,0.3c0,0,0-1.2,0-1.3
			c-0.8,0.8-1.9,1.3-3.1,1.3c-1.8,0-2.9-1.2-2.9-3.2v-6.3L10531.5,511.4L10531.5,511.4z"/>
		<path class="st3" d="M10540.2,520.6v-13.5l1.6-0.3v13.7L10540.2,520.6L10540.2,520.6z"/>
		<path class="st3" d="M10549.4,519.6c-0.7,0.8-1.5,1.3-2.5,1.3c-1.7,0-2.9-1.1-2.9-2.6c0-1.6,1.2-3.1,5.5-3.3v-0.3
			c0-1.5-0.6-2.1-2.1-2.1c-0.9,0-2.1,0.4-3,1l-0.3-1.5c0.8-0.6,2.1-1.1,3.4-1.1c2.5,0,3.6,1.1,3.5,3.6v3.8c0,0.8,0.1,0.9,0.9,0.9
			l-0.1,1.4C10550.4,520.9,10549.7,520.4,10549.4,519.6L10549.4,519.6z M10549.4,516c-2.7,0.4-3.7,0.9-3.7,2c0,0.8,0.6,1.4,1.6,1.4
			c0.8,0,1.6-0.4,2.1-1L10549.4,516L10549.4,516z"/>
		<path class="st3" d="M10555.4,520.6h-1.6v-9.2l1.6-0.3v1.6c0.6-1,1.4-1.6,2.6-1.6c0.6,0,1.2,0.2,1.7,0.5l-0.4,1.5
			c-0.5-0.3-1-0.4-1.5-0.4c-0.9,0-1.7,0.6-2.4,1.9L10555.4,520.6L10555.4,520.6z"/>
		<path class="st3" d="M10569.5,520.9c-0.5,0-1.4-0.1-2-0.3l-1.6,0.3v-13.8l1.6-0.3c0,0,0,5.3,0,5.4c0.7-0.6,1.5-1.1,2.6-1.1
			c2.6,0,4.1,2.1,4.1,4.8C10574.2,518.7,10572.3,520.9,10569.5,520.9z M10569.8,512.6c-0.9,0-1.6,0.3-2.2,0.9c0-0.1,0,5.2,0,5.2
			c0.5,0.4,1.2,0.7,2,0.7c1.9,0,2.9-1.5,2.9-3.4C10572.5,514,10571.5,512.6,10569.8,512.6z"/>
		<path class="st3" d="M10576.4,520.6v-13.5l1.6-0.3v13.7L10576.4,520.6L10576.4,520.6z"/>
		<path class="st3" d="M10584.7,520.9c-2.6,0-4.4-1.9-4.4-4.9c0-2.9,1.9-4.9,4.5-4.9s4.4,1.9,4.4,4.9
			C10589.2,518.9,10587.3,520.9,10584.7,520.9z M10584.7,512.6c-1.8,0-2.8,1.4-2.8,3.4s1.1,3.4,2.9,3.4c1.8,0,2.8-1.4,2.8-3.4
			C10587.6,514,10586.5,512.6,10584.7,512.6z"/>
		<path class="st3" d="M10595.2,520.9c-2.6,0-4.4-1.9-4.4-4.9c0-2.9,1.9-4.9,4.5-4.9s4.4,1.9,4.4,4.9
			C10599.7,518.9,10597.8,520.9,10595.2,520.9z M10595.3,512.6c-1.8,0-2.8,1.4-2.8,3.4s1.1,3.4,2.9,3.4c1.8,0,2.8-1.4,2.8-3.4
			C10598.1,514,10597.1,512.6,10595.3,512.6z"/>
		<path class="st3" d="M10608,507.1l1.6-0.3v13.7h-1.6c0,0,0-0.7,0-0.8c-0.7,0.6-1.5,1.1-2.6,1.1c-2.6,0-4.1-2.1-4.1-4.8
			c0-2.8,1.9-4.9,4.7-4.9c0.7,0,1.4,0.1,2,0.3L10608,507.1L10608,507.1z M10606,512.6c-1.9,0-2.9,1.5-2.9,3.4c0,2,1,3.4,2.7,3.4
			c0.9,0,1.6-0.3,2.2-0.9c0,0.1,0-5.2,0-5.2C10607.5,512.8,10606.8,512.6,10606,512.6z"/>
		<path class="st3" d="M10619.5,520.9c-1.1,0-2.4-0.3-3.2-0.9l0.4-1.5c0.8,0.5,1.9,0.9,2.8,0.9c1,0,1.8-0.5,1.8-1.3
			c0-0.9-1.1-1.2-2.2-1.5c-1.3-0.4-2.7-1-2.7-2.7s1.4-2.8,3.3-2.8c1.1,0,2.1,0.3,3,0.7l-0.4,1.5c-0.8-0.4-1.9-0.7-2.6-0.7
			c-1,0-1.6,0.4-1.6,1.1c0,0.9,1,1.2,2.1,1.5c1.3,0.4,2.8,1,2.8,2.7S10621.5,520.9,10619.5,520.9z"/>
		<path class="st3" d="M10626.6,511.4v5.8c0,1.6,0.6,2.1,1.8,2.1c1.1,0,2-0.5,2.5-1v-6.9h1.6v9.2l-1.6,0.3c0,0,0-1.2,0-1.3
			c-0.8,0.8-1.9,1.3-3.1,1.3c-1.8,0-2.9-1.2-2.9-3.2v-6.3L10626.6,511.4L10626.6,511.4z"/>
		<path class="st3" d="M10634.9,519.2c0-0.8,0.6-1.5,1.5-1.8c-1-0.6-1.5-1.6-1.5-2.8c0-1.8,1.3-3.5,3.7-3.5c1,0,1.8,0.3,2.4,0.5
			l2.4-0.2l0.1,1.6l-1.8-0.3c0.4,0.3,0.6,1.2,0.6,1.9c0,1.8-1.5,3.4-3.7,3.4c-0.5,0-0.7-0.1-1.3-0.2c-0.4,0.1-0.9,0.5-0.9,1
			s0.4,0.9,2.1,0.9c0,0,1,0,0.8,0c2.7,0,4,0.8,4,2.5c0,2-2.2,3.5-4.9,3.5c-2.4,0-4.3-1-4.3-2.7c0-1,0.7-1.9,2-2.1
			C10635.3,520.4,10634.9,519.8,10634.9,519.2z M10635.8,522.5c0,1,1.2,1.7,2.9,1.7s3.1-0.7,3.1-1.9c0-1-0.9-1.2-2.7-1.2
			c-0.6,0-1.3,0-1.7-0.1C10636.4,521.3,10635.8,521.8,10635.8,522.5z M10638.7,516.6c1.2,0,2-0.9,2-2.1c0-1.2-0.7-2.1-2.1-2.1
			c-1.2,0-2,0.9-2,2.2C10636.5,515.8,10637.4,516.6,10638.7,516.6z"/>
		<path class="st3" d="M10649.6,519.6c-0.7,0.8-1.5,1.3-2.5,1.3c-1.7,0-2.9-1.1-2.9-2.6c0-1.6,1.2-3.1,5.5-3.3v-0.3
			c0-1.5-0.6-2.1-2.1-2.1c-0.9,0-2.1,0.4-3,1l-0.3-1.5c0.8-0.6,2.1-1.1,3.4-1.1c2.5,0,3.6,1.1,3.5,3.6v3.8c0,0.8,0.1,0.9,0.9,0.9
			l-0.1,1.4C10650.6,520.9,10649.9,520.4,10649.6,519.6L10649.6,519.6z M10649.6,516c-2.7,0.4-3.7,0.9-3.7,2c0,0.8,0.6,1.4,1.6,1.4
			c0.8,0,1.6-0.4,2.1-1L10649.6,516L10649.6,516z"/>
		<path class="st3" d="M10655.6,520.6h-1.6v-9.2l1.6-0.3v1.6c0.6-1,1.4-1.6,2.6-1.6c0.6,0,1.2,0.2,1.7,0.5l-0.4,1.5
			c-0.5-0.3-1-0.4-1.5-0.4c-0.9,0-1.7,0.6-2.4,1.9L10655.6,520.6L10655.6,520.6z"/>
		<path class="st3" d="M10668.9,520.9c-1.8,0-2.7-0.9-2.7-2.9l0.1-5.1l-1.5-0.1l0.1-1l1.5-0.5v-2h1.6l-0.1,2.1h2.9l-0.1,1.5h-2.9
			l-0.1,5.2c0,0.9,0.4,1.3,1.2,1.3c0.6,0,1.1-0.1,1.7-0.3l0.3,1.4C10670.3,520.7,10669.6,520.9,10668.9,520.9z"/>
		<path class="st3" d="M10673.9,516.3c0.1,1.8,1.3,3.1,3,3.1c1,0,2-0.3,2.7-0.8l0.3,1.5c-0.8,0.5-1.9,0.8-3.1,0.8
			c-2.8,0-4.6-2-4.6-4.8c0-3,2-5,4.5-5c2.2,0,3.5,1.4,3.5,3.6c0,0.5-0.1,1.1-0.2,1.5C10680,516.1,10673.9,516.2,10673.9,516.3
			L10673.9,516.3z M10678.7,514.9L10678.7,514.9c0-1.5-0.6-2.4-2.1-2.4c-1.6,0-2.5,1.2-2.6,2.4L10678.7,514.9z"/>
		<path class="st3" d="M10684.8,520.9c-1.1,0-2.4-0.3-3.2-0.9l0.4-1.5c0.8,0.5,1.9,0.9,2.8,0.9c1,0,1.8-0.5,1.8-1.3
			c0-0.9-1.1-1.2-2.2-1.5c-1.3-0.4-2.7-1-2.7-2.7s1.4-2.8,3.3-2.8c1.1,0,2.1,0.3,3,0.7l-0.4,1.5c-0.8-0.4-1.9-0.7-2.6-0.7
			c-1,0-1.6,0.4-1.6,1.1c0,0.9,1,1.2,2.1,1.5c1.3,0.4,2.8,1,2.8,2.7S10686.8,520.9,10684.8,520.9z"/>
		<path class="st3" d="M10693.2,520.9c-1.8,0-2.7-0.9-2.7-2.9l0.1-5.1l-1.5-0.1l0.1-1l1.5-0.5v-2h1.6l-0.1,2.1h2.9l-0.1,1.5h-2.9
			l-0.1,5.2c0,0.9,0.4,1.3,1.2,1.3c0.6,0,1.1-0.1,1.7-0.3l0.3,1.4C10694.6,520.7,10693.9,520.9,10693.2,520.9z"/>
		<path class="st3" d="M10698,520.9c-0.8,0-1.3-0.6-1.3-1.3s0.5-1.3,1.3-1.3c0.7,0,1.3,0.6,1.3,1.3
			C10699.3,520.2,10698.8,520.9,10698,520.9z"/>
	</g>
	<g class="st2">
		<path class="st3" d="M10367,546.6c-1,0-3.7,0-3.7,0v-12.5c0,0,2.8,0,3.8,0c4.1,0,6.6,2.4,6.6,6.2
			C10373.7,544.1,10371.3,546.6,10367,546.6z M10367,535.6h-2v9.3h2.1c3,0,4.9-1.6,4.9-4.6S10370.1,535.6,10367,535.6z"/>
		<path class="st3" d="M10379.8,546.9c-2.6,0-4.4-1.9-4.4-4.9c0-2.9,1.9-4.9,4.5-4.9s4.4,1.9,4.4,4.9
			C10384.3,544.9,10382.4,546.9,10379.8,546.9z M10379.9,538.6c-1.8,0-2.8,1.4-2.8,3.4s1.1,3.4,2.9,3.4c1.8,0,2.8-1.4,2.8-3.4
			C10382.7,540,10381.7,538.6,10379.9,538.6z"/>
		<path class="st3" d="M10394.8,546.7l-0.6,1.6c-0.9,2.3-1.8,3-3.2,3c-0.7,0-1.3-0.2-1.9-0.5l0.5-1.5c0.5,0.2,1,0.4,1.5,0.4
			c0.7,0,1.1-0.4,1.8-2l0.6-1.4l-3.6-9h1.8l2.7,7.1l2.6-7.1h1.7L10394.8,546.7z"/>
		<path class="st3" d="M10403.7,546.9c-2.6,0-4.4-1.9-4.4-4.9c0-2.9,1.9-4.9,4.5-4.9s4.4,1.9,4.4,4.9
			C10408.2,544.9,10406.3,546.9,10403.7,546.9z M10403.7,538.6c-1.8,0-2.8,1.4-2.8,3.4s1.1,3.4,2.9,3.4c1.8,0,2.8-1.4,2.8-3.4
			C10406.6,540,10405.5,538.6,10403.7,538.6z"/>
		<path class="st3" d="M10412,537.4v5.8c0,1.6,0.6,2.1,1.8,2.1c1.1,0,2-0.5,2.5-1v-6.9h1.6v9.2l-1.6,0.3c0,0,0-1.2,0-1.3
			c-0.8,0.8-1.9,1.3-3.1,1.3c-1.8,0-2.9-1.2-2.9-3.2v-6.3L10412,537.4L10412,537.4z"/>
		<path class="st3" d="M10431.3,546.6v-5.8c0-1.6-0.6-2.1-1.9-2.1c-1,0-1.9,0.5-2.4,1v6.9h-1.6v-9.2l1.6-0.3v1.4
			c0.8-0.8,1.9-1.4,3-1.4c1.9,0,3,1.2,3,3.2v6.3L10431.3,546.6L10431.3,546.6z"/>
		<path class="st3" d="M10436.7,542.3c0.1,1.8,1.3,3.1,3,3.1c1,0,2-0.3,2.7-0.8l0.3,1.5c-0.8,0.5-1.9,0.8-3.1,0.8
			c-2.8,0-4.6-2-4.6-4.8c0-3,2-5,4.5-5c2.2,0,3.5,1.4,3.5,3.6c0,0.5-0.1,1.1-0.2,1.5C10442.9,542.1,10436.7,542.2,10436.7,542.3
			L10436.7,542.3z M10441.5,540.9L10441.5,540.9c0-1.5-0.6-2.4-2.1-2.4c-1.6,0-2.5,1.2-2.6,2.4L10441.5,540.9z"/>
		<path class="st3" d="M10446.3,542.3c0.1,1.8,1.3,3.1,3,3.1c1,0,2-0.3,2.7-0.8l0.3,1.5c-0.8,0.5-1.9,0.8-3.1,0.8
			c-2.8,0-4.6-2-4.6-4.8c0-3,2-5,4.5-5c2.2,0,3.5,1.4,3.5,3.6c0,0.5-0.1,1.1-0.2,1.5C10452.5,542.1,10446.3,542.2,10446.3,542.3
			L10446.3,542.3z M10451.1,540.9L10451.1,540.9c0-1.5-0.6-2.4-2.1-2.4c-1.6,0-2.5,1.2-2.6,2.4L10451.1,540.9z"/>
		<path class="st3" d="M10460.9,533.1l1.6-0.3v13.7h-1.6c0,0,0-0.7,0-0.8c-0.7,0.6-1.5,1.1-2.6,1.1c-2.6,0-4.1-2.1-4.1-4.8
			c0-2.8,1.9-4.9,4.7-4.9c0.7,0,1.4,0.1,2,0.3L10460.9,533.1L10460.9,533.1z M10458.9,538.6c-1.9,0-2.9,1.5-2.9,3.4
			c0,2,1,3.4,2.7,3.4c0.9,0,1.6-0.3,2.2-0.9c0,0.1,0-5.2,0-5.2C10460.4,538.8,10459.7,538.6,10458.9,538.6z"/>
		<path class="st3" d="M10475.9,546.6v-5.8c0-1.6-0.6-2.1-1.8-2.1c-1.1,0-2,0.5-2.5,1v6.9h-1.6v-13.5l1.6-0.3c0,0,0,5.5,0,5.6
			c0.8-0.8,1.9-1.3,3.1-1.3c1.8,0,2.9,1.2,2.9,3.2v6.3L10475.9,546.6L10475.9,546.6z"/>
		<path class="st3" d="M10481.3,542.3c0.1,1.8,1.3,3.1,3,3.1c1,0,2-0.3,2.7-0.8l0.3,1.5c-0.8,0.5-1.9,0.8-3.1,0.8
			c-2.8,0-4.6-2-4.6-4.8c0-3,2-5,4.5-5c2.2,0,3.5,1.4,3.5,3.6c0,0.5-0.1,1.1-0.2,1.5C10487.5,542.1,10481.3,542.2,10481.3,542.3
			L10481.3,542.3z M10486.1,540.9L10486.1,540.9c0-1.5-0.6-2.4-2.1-2.4c-1.6,0-2.5,1.2-2.6,2.4L10486.1,540.9z"/>
		<path class="st3" d="M10489.9,546.6v-13.5l1.6-0.3v13.7L10489.9,546.6L10489.9,546.6z"/>
		<path class="st3" d="M10498.6,537.1c2.6,0,4.1,2.1,4.1,4.8c0,2.8-1.9,4.9-4.7,4.9c-0.5,0-1.4-0.1-2-0.2v4.6h-1.6v-13.9l1.6-0.3
			c0,0,0,1,0,1.1C10496.7,537.6,10497.5,537.1,10498.6,537.1z M10496,544.7c0.5,0.4,1.2,0.7,2,0.7c1.9,0,2.9-1.5,2.9-3.4
			c0-2-1-3.4-2.7-3.4c-0.9,0-1.6,0.3-2.2,0.9C10496,539.4,10496,544.7,10496,544.7z"/>
		<path class="st3" d="M10511.8,546.9c-1.1,0-2.4-0.3-3.2-0.9l0.4-1.5c0.8,0.5,1.9,0.9,2.8,0.9c1,0,1.8-0.5,1.8-1.3
			c0-0.9-1.1-1.2-2.2-1.5c-1.3-0.4-2.7-1-2.7-2.7s1.4-2.8,3.3-2.8c1.1,0,2.1,0.3,3,0.7l-0.4,1.5c-0.8-0.4-1.9-0.7-2.6-0.7
			c-1,0-1.6,0.4-1.6,1.1c0,0.9,1,1.2,2.1,1.5c1.3,0.4,2.8,1,2.8,2.7S10513.8,546.9,10511.8,546.9z"/>
		<path class="st3" d="M10521.4,546.9c-2.9,0-4.5-2-4.5-4.9s1.9-4.9,4.6-4.9c1.2,0,2.1,0.3,3,0.8l-0.4,1.5c-0.8-0.5-1.6-0.8-2.5-0.8
			c-1.9,0-2.9,1.3-2.9,3.3c0,2.1,1.2,3.4,2.9,3.4c1,0,1.9-0.3,2.6-0.8l0.3,1.5C10523.6,546.6,10522.5,546.9,10521.4,546.9z"/>
		<path class="st3" d="M10532.5,546.6v-5.8c0-1.6-0.6-2.1-1.8-2.1c-1.1,0-2,0.5-2.5,1v6.9h-1.6v-13.5l1.6-0.3c0,0,0,5.5,0,5.6
			c0.8-0.8,1.9-1.3,3.1-1.3c1.8,0,2.9,1.2,2.9,3.2v6.3L10532.5,546.6L10532.5,546.6z"/>
		<path class="st3" d="M10538,542.3c0.1,1.8,1.3,3.1,3,3.1c1,0,2-0.3,2.7-0.8l0.3,1.5c-0.8,0.5-1.9,0.8-3.1,0.8
			c-2.8,0-4.6-2-4.6-4.8c0-3,2-5,4.5-5c2.2,0,3.5,1.4,3.5,3.6c0,0.5-0.1,1.1-0.2,1.5C10544.1,542.1,10538,542.2,10538,542.3
			L10538,542.3z M10542.8,540.9L10542.8,540.9c0-1.5-0.6-2.4-2.1-2.4c-1.6,0-2.5,1.2-2.6,2.4L10542.8,540.9z"/>
		<path class="st3" d="M10552.6,533.1l1.6-0.3v13.7h-1.6c0,0,0-0.7,0-0.8c-0.7,0.6-1.5,1.1-2.6,1.1c-2.6,0-4.1-2.1-4.1-4.8
			c0-2.8,1.9-4.9,4.7-4.9c0.7,0,1.4,0.1,2,0.3L10552.6,533.1L10552.6,533.1z M10550.5,538.6c-1.9,0-2.9,1.5-2.9,3.4
			c0,2,1,3.4,2.7,3.4c0.9,0,1.6-0.3,2.2-0.9c0,0.1,0-5.2,0-5.2C10552,538.8,10551.3,538.6,10550.5,538.6z"/>
		<path class="st3" d="M10558.6,537.4v5.8c0,1.6,0.6,2.1,1.8,2.1c1.1,0,2-0.5,2.5-1v-6.9h1.6v9.2l-1.6,0.3c0,0,0-1.2,0-1.3
			c-0.8,0.8-1.9,1.3-3.1,1.3c-1.8,0-2.9-1.2-2.9-3.2v-6.3L10558.6,537.4L10558.6,537.4z"/>
		<path class="st3" d="M10567.4,546.6v-13.5l1.6-0.3v13.7L10567.4,546.6L10567.4,546.6z"/>
		<path class="st3" d="M10572.7,535.4c-0.7,0-1.1-0.6-1.1-1.2s0.3-1.2,1.1-1.2s1.1,0.6,1.1,1.2S10573.4,535.4,10572.7,535.4z
			 M10571.9,546.6v-9.2l1.6-0.3v9.5H10571.9z"/>
		<path class="st3" d="M10582.3,546.6v-5.8c0-1.6-0.6-2.1-1.9-2.1c-1,0-1.9,0.5-2.4,1v6.9h-1.6v-9.2l1.6-0.3v1.4
			c0.8-0.8,1.9-1.4,3-1.4c1.9,0,3,1.2,3,3.2v6.3L10582.3,546.6L10582.3,546.6z"/>
		<path class="st3" d="M10586.2,545.2c0-0.8,0.6-1.5,1.5-1.8c-1-0.6-1.5-1.6-1.5-2.8c0-1.8,1.3-3.5,3.7-3.5c1,0,1.8,0.3,2.4,0.5
			l2.4-0.2l0.1,1.6l-1.8-0.3c0.4,0.3,0.6,1.2,0.6,1.9c0,1.8-1.5,3.4-3.7,3.4c-0.5,0-0.7-0.1-1.3-0.2c-0.4,0.1-0.9,0.5-0.9,1
			s0.4,0.9,2.1,0.9c0,0,1,0,0.8,0c2.7,0,4,0.8,4,2.5c0,2-2.2,3.5-4.9,3.5c-2.4,0-4.3-1-4.3-2.7c0-1,0.7-1.9,2-2.1
			C10586.6,546.4,10586.2,545.8,10586.2,545.2z M10587,548.5c0,1,1.2,1.7,2.9,1.7s3.1-0.7,3.1-1.9c0-1-0.9-1.2-2.7-1.2
			c-0.6,0-1.3,0-1.7-0.1C10587.7,547.3,10587,547.8,10587,548.5z M10589.9,542.6c1.2,0,2-0.9,2-2.1c0-1.2-0.7-2.1-2.1-2.1
			c-1.2,0-2,0.9-2,2.2C10587.8,541.8,10588.6,542.6,10589.9,542.6z"/>
		<path class="st3" d="M10601.6,535.4c-0.7,0-1.1-0.6-1.1-1.2s0.3-1.2,1.1-1.2s1.1,0.6,1.1,1.2S10602.3,535.4,10601.6,535.4z
			 M10600.8,546.6v-9.2l1.6-0.3v9.5H10600.8z"/>
		<path class="st3" d="M10608,546.9c-1.8,0-2.7-0.9-2.7-2.9l0.1-5.1l-1.5-0.1l0.1-1l1.5-0.5v-2h1.6l-0.1,2.1h2.9l-0.1,1.5h-2.9
			l-0.1,5.2c0,0.9,0.4,1.3,1.2,1.3c0.6,0,1.1-0.1,1.7-0.3l0.3,1.4C10609.4,546.7,10608.7,546.9,10608,546.9z"/>
		<path class="st3" d="M10614.8,539.6c-0.8,0.3-1.5,0.6-1.5,1.3c0,0.6,0.5,1.2,1.1,1.7l-0.8,0.2c-0.7-0.4-1.6-1.2-1.6-2.3
			c0-1.3,1-1.8,2-2.2c0.9-0.3,1.6-0.6,1.6-1.4c0-0.9-0.9-1.7-2.7-1.7c-0.5,0-1,0.1-1.4,0.2V534c0.4-0.1,0.8-0.2,1.5-0.2
			c2.2,0,3.8,1.5,3.8,3.2C10616.9,538.8,10615.8,539.3,10614.8,539.6z M10613.6,546.9c-0.7,0-1.3-0.6-1.3-1.3s0.6-1.3,1.3-1.3
			c0.8,0,1.3,0.6,1.3,1.3C10614.9,546.2,10614.4,546.9,10613.6,546.9z"/>
	</g>
	<g class="st2">
		<path class="st4" d="M10390,617.1v5h-1.7v-5l-4.4-7.5h1.9l3.3,5.8l3.3-5.8h1.9L10390,617.1z"/>
		<path class="st4" d="M10395.8,617.8c0.1,1.8,1.3,3.1,3,3.1c1,0,2-0.3,2.7-0.8l0.3,1.5c-0.8,0.5-1.9,0.8-3.1,0.8
			c-2.8,0-4.6-2-4.6-4.8c0-3,2-5,4.5-5c2.2,0,3.5,1.4,3.5,3.6c0,0.5-0.1,1.1-0.2,1.5C10401.9,617.7,10395.8,617.7,10395.8,617.8
			L10395.8,617.8z M10400.5,616.5L10400.5,616.5c0-1.5-0.6-2.4-2.1-2.4c-1.6,0-2.5,1.2-2.6,2.4L10400.5,616.5z"/>
		<path class="st4" d="M10406.7,622.4c-1.1,0-2.4-0.3-3.2-0.9l0.4-1.5c0.8,0.5,1.9,0.9,2.8,0.9c1,0,1.8-0.5,1.8-1.3
			c0-0.9-1.1-1.2-2.2-1.5c-1.3-0.4-2.7-1-2.7-2.7s1.4-2.8,3.3-2.8c1.1,0,2.1,0.3,3,0.7l-0.4,1.5c-0.8-0.4-1.9-0.7-2.6-0.7
			c-1,0-1.6,0.4-1.6,1.1c0,0.9,1,1.2,2.1,1.5c1.3,0.4,2.8,1,2.8,2.7S10408.7,622.4,10406.7,622.4z"/>
		<path class="st4" d="M10413.1,619.7c0.8,0,1.7,0.8,1.7,1.8c0,1.6-1.5,2.9-3,3.9l-0.7-0.7c1.4-1,2-1.8,2-2.5c0-0.5-0.4-0.8-1.4-1.3
			C10411.8,620.2,10412.2,619.7,10413.1,619.7z"/>
		<path class="st4" d="M10427.3,608.6l1.6-0.3V622h-1.6c0,0,0-0.7,0-0.8c-0.7,0.6-1.5,1.1-2.6,1.1c-2.6,0-4.1-2.1-4.1-4.8
			c0-2.8,1.9-4.9,4.7-4.9c0.7,0,1.4,0.1,2,0.3L10427.3,608.6L10427.3,608.6z M10425.3,614.1c-1.9,0-2.9,1.5-2.9,3.4
			c0,2,1,3.4,2.7,3.4c0.9,0,1.6-0.3,2.2-0.9c0,0.1,0-5.2,0-5.2C10426.8,614.3,10426.1,614.1,10425.3,614.1z"/>
		<path class="st4" d="M10435.6,622.4c-2.6,0-4.4-1.9-4.4-4.9c0-2.9,1.9-4.9,4.5-4.9s4.4,1.9,4.4,4.9S10438.2,622.4,10435.6,622.4z
			 M10435.6,614.1c-1.8,0-2.8,1.4-2.8,3.4s1.1,3.4,2.9,3.4c1.8,0,2.8-1.4,2.8-3.4C10438.5,615.6,10437.4,614.1,10435.6,614.1z"/>
		<path class="st4" d="M10443.4,617.8c0.1,1.8,1.3,3.1,3,3.1c1,0,2-0.3,2.7-0.8l0.3,1.5c-0.8,0.5-1.9,0.8-3.1,0.8
			c-2.8,0-4.6-2-4.6-4.8c0-3,2-5,4.5-5c2.2,0,3.5,1.4,3.5,3.6c0,0.5-0.1,1.1-0.2,1.5C10449.6,617.7,10443.4,617.7,10443.4,617.8
			L10443.4,617.8z M10448.2,616.5L10448.2,616.5c0-1.5-0.6-2.4-2.1-2.4c-1.6,0-2.5,1.2-2.6,2.4L10448.2,616.5z"/>
		<path class="st4" d="M10454.4,622.4c-1.1,0-2.4-0.3-3.2-0.9l0.4-1.5c0.8,0.5,1.9,0.9,2.8,0.9c1,0,1.8-0.5,1.8-1.3
			c0-0.9-1.1-1.2-2.2-1.5c-1.3-0.4-2.7-1-2.7-2.7s1.4-2.8,3.3-2.8c1.1,0,2.1,0.3,3,0.7l-0.4,1.5c-0.8-0.4-1.9-0.7-2.6-0.7
			c-1,0-1.6,0.4-1.6,1.1c0,0.9,1,1.2,2.1,1.5c1.3,0.4,2.8,1,2.8,2.7S10456.4,622.4,10454.4,622.4z"/>
		<path class="st4" d="M10470.5,622.1v-5.8c0-1.6-0.6-2.1-1.9-2.1c-1,0-1.9,0.5-2.4,1v6.9h-1.6v-9.2l1.6-0.3v1.4
			c0.8-0.8,1.9-1.4,3-1.4c1.9,0,3,1.2,3,3.2v6.3L10470.5,622.1L10470.5,622.1z"/>
		<path class="st4" d="M10475.9,617.8c0.1,1.8,1.3,3.1,3,3.1c1,0,2-0.3,2.7-0.8l0.3,1.5c-0.8,0.5-1.9,0.8-3.1,0.8
			c-2.8,0-4.6-2-4.6-4.8c0-3,2-5,4.5-5c2.2,0,3.5,1.4,3.5,3.6c0,0.5-0.1,1.1-0.2,1.5C10482.1,617.7,10475.9,617.7,10475.9,617.8
			L10475.9,617.8z M10480.7,616.5L10480.7,616.5c0-1.5-0.6-2.4-2.1-2.4c-1.6,0-2.5,1.2-2.6,2.4L10480.7,616.5z"/>
		<path class="st4" d="M10489.5,622.1l-2.3-3.6l-2.2,3.6h-1.9l3.1-4.7l-3-4.5h1.8l2.1,3.3l2-3.3h1.9l-2.9,4.4l3.1,4.7L10489.5,622.1
			L10489.5,622.1z"/>
		<path class="st4" d="M10495.5,622.4c-1.8,0-2.7-0.9-2.7-2.9l0.1-5.1l-1.5-0.1l0.1-1l1.5-0.5v-2h1.6l-0.1,2.1h2.9l-0.1,1.5h-2.9
			l-0.1,5.2c0,0.9,0.4,1.3,1.2,1.3c0.6,0,1.1-0.1,1.7-0.3l0.3,1.4C10496.9,622.3,10496.2,622.4,10495.5,622.4z"/>
		<path class="st4" d="M10509.1,611.2v10.9h-1.7v-10.9h-4.4v-1.6h10.4v1.6H10509.1z"/>
		<path class="st4" d="M10515,612.9v5.8c0,1.6,0.6,2.1,1.8,2.1c1.1,0,2-0.5,2.5-1v-6.9h1.6v9.2l-1.6,0.3c0,0,0-1.2,0-1.3
			c-0.8,0.8-1.9,1.3-3.1,1.3c-1.8,0-2.9-1.2-2.9-3.2v-6.3L10515,612.9L10515,612.9z"/>
		<path class="st4" d="M10524.8,617.8c0.1,1.8,1.3,3.1,3,3.1c1,0,2-0.3,2.7-0.8l0.3,1.5c-0.8,0.5-1.9,0.8-3.1,0.8
			c-2.8,0-4.6-2-4.6-4.8c0-3,2-5,4.5-5c2.2,0,3.5,1.4,3.5,3.6c0,0.5-0.1,1.1-0.2,1.5C10530.9,617.7,10524.8,617.7,10524.8,617.8
			L10524.8,617.8z M10529.6,616.5L10529.6,616.5c0-1.5-0.6-2.4-2.1-2.4c-1.6,0-2.5,1.2-2.6,2.4L10529.6,616.5z"/>
		<path class="st4" d="M10535.7,622.4c-1.1,0-2.4-0.3-3.2-0.9l0.4-1.5c0.8,0.5,1.9,0.9,2.8,0.9c1,0,1.8-0.5,1.8-1.3
			c0-0.9-1.1-1.2-2.2-1.5c-1.3-0.4-2.7-1-2.7-2.7s1.4-2.8,3.3-2.8c1.1,0,2.1,0.3,3,0.7l-0.4,1.5c-0.8-0.4-1.9-0.7-2.6-0.7
			c-1,0-1.6,0.4-1.6,1.1c0,0.9,1,1.2,2.1,1.5c1.3,0.4,2.8,1,2.8,2.7S10537.7,622.4,10535.7,622.4z"/>
		<path class="st4" d="M10547.4,608.6l1.6-0.3V622h-1.6c0,0,0-0.7,0-0.8c-0.7,0.6-1.5,1.1-2.6,1.1c-2.6,0-4.1-2.1-4.1-4.8
			c0-2.8,1.9-4.9,4.7-4.9c0.7,0,1.4,0.1,2,0.3L10547.4,608.6L10547.4,608.6z M10545.4,614.1c-1.9,0-2.9,1.5-2.9,3.4
			c0,2,1,3.4,2.7,3.4c0.9,0,1.6-0.3,2.2-0.9c0,0.1,0-5.2,0-5.2C10546.9,614.3,10546.2,614.1,10545.4,614.1z"/>
		<path class="st4" d="M10556.6,621.1c-0.7,0.8-1.5,1.3-2.5,1.3c-1.7,0-2.9-1.1-2.9-2.6c0-1.6,1.2-3.1,5.5-3.3v-0.3
			c0-1.5-0.6-2.1-2.1-2.1c-0.9,0-2.1,0.4-3,1l-0.3-1.5c0.8-0.6,2.1-1.1,3.4-1.1c2.5,0,3.6,1.1,3.5,3.6v3.8c0,0.8,0.1,0.9,0.9,0.9
			l-0.1,1.4C10557.5,622.4,10556.9,621.9,10556.6,621.1L10556.6,621.1z M10556.6,617.5c-2.7,0.4-3.7,0.9-3.7,2
			c0,0.8,0.6,1.4,1.6,1.4c0.8,0,1.6-0.4,2.1-1L10556.6,617.5L10556.6,617.5z"/>
		<path class="st4" d="M10564.6,622.2l-0.6,1.6c-0.9,2.3-1.8,3-3.2,3c-0.7,0-1.3-0.2-1.9-0.5l0.5-1.5c0.5,0.2,1,0.4,1.5,0.4
			c0.7,0,1.1-0.4,1.8-2l0.6-1.4l-3.6-9h1.8l2.7,7.1l2.6-7.1h1.7L10564.6,622.2z"/>
		<path class="st4" d="M10579,621.1c-0.7,0.8-1.5,1.3-2.5,1.3c-1.7,0-2.9-1.1-2.9-2.6c0-1.6,1.2-3.1,5.5-3.3v-0.3
			c0-1.5-0.6-2.1-2.1-2.1c-0.9,0-2.1,0.4-3,1l-0.3-1.5c0.8-0.6,2.1-1.1,3.4-1.1c2.5,0,3.6,1.1,3.5,3.6v3.8c0,0.8,0.1,0.9,0.9,0.9
			l-0.1,1.4C10579.9,622.4,10579.3,621.9,10579,621.1L10579,621.1z M10579,617.5c-2.7,0.4-3.7,0.9-3.7,2c0,0.8,0.6,1.4,1.6,1.4
			c0.8,0,1.6-0.4,2.1-1L10579,617.5L10579,617.5z"/>
		<path class="st4" d="M10586.1,622.4c-1.8,0-2.7-0.9-2.7-2.9l0.1-5.1l-1.5-0.1l0.1-1l1.5-0.5v-2h1.6l-0.1,2.1h2.9l-0.1,1.5h-2.9
			l-0.1,5.2c0,0.9,0.4,1.3,1.2,1.3c0.6,0,1.1-0.1,1.7-0.3l0.3,1.4C10587.4,622.3,10586.7,622.4,10586.1,622.4z"/>
		<path class="st4" d="M10596.4,614.4l-2.3,0.7l-0.1-1.5l4-1.3v9.8h-1.6L10596.4,614.4L10596.4,614.4z"/>
		<path class="st4" d="M10602.3,616.2c-0.8,0-1.3-0.6-1.3-1.3s0.5-1.3,1.3-1.3c0.7,0,1.3,0.6,1.3,1.3
			C10603.6,615.6,10603.1,616.2,10602.3,616.2z M10602.3,622.4c-0.8,0-1.3-0.6-1.3-1.3s0.5-1.3,1.3-1.3c0.7,0,1.3,0.6,1.3,1.3
			C10603.6,621.8,10603.1,622.4,10602.3,622.4z"/>
		<path class="st4" d="M10610.2,622.4c-2.8,0-4.8-2-4.8-5s2-5,4.8-5s4.8,2,4.8,5S10613.1,622.4,10610.2,622.4z M10610.2,613.9
			c-1.9,0-3.2,1.5-3.2,3.5s1.3,3.5,3.2,3.5s3.2-1.5,3.2-3.5S10612.1,613.9,10610.2,613.9z"/>
		<path class="st4" d="M10621.8,622.4c-2.8,0-4.8-2-4.8-5s2-5,4.8-5s4.8,2,4.8,5S10624.6,622.4,10621.8,622.4z M10621.8,613.9
			c-1.9,0-3.2,1.5-3.2,3.5s1.3,3.5,3.2,3.5s3.2-1.5,3.2-3.5S10623.7,613.9,10621.8,613.9z"/>
		<path class="st4" d="M10637.7,612.6c2.6,0,4.1,2.1,4.1,4.8c0,2.8-1.9,4.9-4.7,4.9c-0.5,0-1.4-0.1-2-0.2v4.6h-1.6v-13.9l1.6-0.3
			c0,0,0,1,0,1.1C10635.8,613.2,10636.7,612.6,10637.7,612.6z M10635.2,620.3c0.5,0.4,1.2,0.7,2,0.7c1.9,0,2.9-1.5,2.9-3.4
			c0-2-1-3.4-2.7-3.4c-0.9,0-1.6,0.3-2.2,0.9C10635.2,614.9,10635.2,620.3,10635.2,620.3z"/>
		<path class="st4" d="M10655.5,622.1v-5.7c0-1.6-0.6-2.2-1.8-2.2c-1,0-1.8,0.5-2.3,1v0.6v6.3h-1.6v-5.7c0-1.6-0.6-2.2-1.8-2.2
			c-1,0-1.8,0.4-2.3,0.9v7h-1.6v-9.2l1.6-0.3c0,0,0,1.2,0,1.3c0.9-0.8,1.8-1.3,2.9-1.3c1.1,0,1.9,0.5,2.4,1.5c1-1,2.1-1.5,3.3-1.5
			c1.7,0,2.8,1.2,2.8,3.2v6.3L10655.5,622.1L10655.5,622.1z"/>
		<path class="st4" d="M10666.1,622.1l-2.8-9.2h1.8l1.9,6.8l2.1-6.8h1.5l2.3,6.8l1.7-6.8h1.8l-2.8,9.2h-1.5l-2.3-6.8l-2.2,6.8
			H10666.1z"/>
		<path class="st4" d="M10681.9,622.4c-2.6,0-4.4-1.9-4.4-4.9c0-2.9,1.9-4.9,4.5-4.9s4.4,1.9,4.4,4.9S10684.4,622.4,10681.9,622.4z
			 M10681.9,614.1c-1.8,0-2.8,1.4-2.8,3.4s1.1,3.4,2.9,3.4c1.8,0,2.8-1.4,2.8-3.4C10684.7,615.6,10683.7,614.1,10681.9,614.1z"/>
		<path class="st4" d="M10690.2,622.1h-1.6v-9.2l1.6-0.3v1.6c0.6-1,1.4-1.6,2.6-1.6c0.6,0,1.2,0.2,1.7,0.5l-0.4,1.5
			c-0.5-0.3-1-0.4-1.5-0.4c-0.9,0-1.7,0.6-2.4,1.9L10690.2,622.1L10690.2,622.1z"/>
		<path class="st4" d="M10697.9,617.6v4.5h-1.6v-13.5l1.6-0.3v8.8l0,0l3.8-4.2h2.1l-4.2,4.3l4.2,4.8h-2.1L10697.9,617.6
			L10697.9,617.6z"/>
		<path class="st4" d="M10708,615.2c-0.8,0.3-1.5,0.6-1.5,1.3c0,0.6,0.5,1.2,1.1,1.7l-0.8,0.2c-0.7-0.4-1.6-1.2-1.6-2.3
			c0-1.3,1-1.8,2-2.2c0.9-0.3,1.6-0.6,1.6-1.4c0-0.9-0.9-1.7-2.7-1.7c-0.5,0-1,0.1-1.4,0.2v-1.5c0.4-0.1,0.8-0.2,1.5-0.2
			c2.2,0,3.8,1.5,3.8,3.2C10710.1,614.3,10709,614.8,10708,615.2z M10706.7,622.4c-0.7,0-1.3-0.6-1.3-1.3s0.6-1.3,1.3-1.3
			c0.8,0,1.3,0.6,1.3,1.3C10708,621.8,10707.5,622.4,10706.7,622.4z"/>
	</g>
	
		<linearGradient id="Rectangle_867_2_" gradientUnits="userSpaceOnUse" x1="21657.3965" y1="-1.4093" x2="21657.3965" y2="-2.4094" gradientTransform="matrix(12.678 0 0 340.459 -264294.125 1284.3151)">
		<stop  offset="0" style="stop-color:#FFFFFF;stop-opacity:0"/>
		<stop  offset="1.367597e-02" style="stop-color:#E9ECED;stop-opacity:2.595061e-02"/>
		<stop  offset="4.043835e-02" style="stop-color:#C5CBD0;stop-opacity:7.673311e-02"/>
		<stop  offset="7.052091e-02" style="stop-color:#A5AEB6;stop-opacity:0.1338"/>
		<stop  offset="0.1038" style="stop-color:#8996A0;stop-opacity:0.197"/>
		<stop  offset="0.1414" style="stop-color:#73828E;stop-opacity:0.2683"/>
		<stop  offset="0.1853" style="stop-color:#627381;stop-opacity:0.3516"/>
		<stop  offset="0.2396" style="stop-color:#576977;stop-opacity:0.4546"/>
		<stop  offset="0.3157" style="stop-color:#506372;stop-opacity:0.599"/>
		<stop  offset="0.527" style="stop-color:#4E6170"/>
		<stop  offset="0.7218" style="stop-color:#506372;stop-opacity:0.5993"/>
		<stop  offset="0.792" style="stop-color:#576977;stop-opacity:0.455"/>
		<stop  offset="0.842" style="stop-color:#627381;stop-opacity:0.3521"/>
		<stop  offset="0.8824" style="stop-color:#73838E;stop-opacity:0.2689"/>
		<stop  offset="0.917" style="stop-color:#8996A0;stop-opacity:0.1976"/>
		<stop  offset="0.9477" style="stop-color:#A5AFB6;stop-opacity:0.1346"/>
		<stop  offset="0.9748" style="stop-color:#C4CBCF;stop-opacity:7.887918e-02"/>
		<stop  offset="0.9995" style="stop-color:#E8EBEC;stop-opacity:2.803785e-02"/>
		<stop  offset="1" style="stop-color:#E9ECED;stop-opacity:2.700000e-02"/>
	</linearGradient>
	<rect id="Rectangle_867_1_" x="10272" y="464" class="st5" width="12.7" height="340.5"/>
	
		<linearGradient id="Rectangle_868_2_" gradientUnits="userSpaceOnUse" x1="21657.3926" y1="-1.4093" x2="21657.3926" y2="-2.4094" gradientTransform="matrix(12.678 0 0 340.459 -263814.2813 1284.3151)">
		<stop  offset="0" style="stop-color:#FFFFFF;stop-opacity:0"/>
		<stop  offset="1.367597e-02" style="stop-color:#E9ECED;stop-opacity:2.595061e-02"/>
		<stop  offset="4.043835e-02" style="stop-color:#C5CBD0;stop-opacity:7.673311e-02"/>
		<stop  offset="7.052091e-02" style="stop-color:#A5AEB6;stop-opacity:0.1338"/>
		<stop  offset="0.1038" style="stop-color:#8996A0;stop-opacity:0.197"/>
		<stop  offset="0.1414" style="stop-color:#73828E;stop-opacity:0.2683"/>
		<stop  offset="0.1853" style="stop-color:#627381;stop-opacity:0.3516"/>
		<stop  offset="0.2396" style="stop-color:#576977;stop-opacity:0.4546"/>
		<stop  offset="0.3157" style="stop-color:#506372;stop-opacity:0.599"/>
		<stop  offset="0.527" style="stop-color:#4E6170"/>
		<stop  offset="0.7218" style="stop-color:#506372;stop-opacity:0.5993"/>
		<stop  offset="0.792" style="stop-color:#576977;stop-opacity:0.455"/>
		<stop  offset="0.842" style="stop-color:#627381;stop-opacity:0.3521"/>
		<stop  offset="0.8824" style="stop-color:#73838E;stop-opacity:0.2689"/>
		<stop  offset="0.917" style="stop-color:#8996A0;stop-opacity:0.1976"/>
		<stop  offset="0.9477" style="stop-color:#A5AFB6;stop-opacity:0.1346"/>
		<stop  offset="0.9748" style="stop-color:#C4CBCF;stop-opacity:7.887918e-02"/>
		<stop  offset="0.9995" style="stop-color:#E8EBEC;stop-opacity:2.803785e-02"/>
		<stop  offset="1" style="stop-color:#E9ECED;stop-opacity:2.700000e-02"/>
	</linearGradient>
	<rect id="Rectangle_868_1_" x="10751.8" y="464" class="st6" width="12.7" height="340.5"/>
	<ellipse id="Ellipse_151" class="st7" cx="10315.9" cy="556.4" rx="15.6" ry="15.6"/>
	<ellipse id="Ellipse_152" class="st7" cx="10315.9" cy="728.1" rx="15.6" ry="15.6"/>
	<g class="st2">
		<path class="st4" d="M10308.2,561.7v-9.4h1.8v7.8h4.2v1.6L10308.2,561.7L10308.2,561.7z"/>
		<path class="st4" d="M10322.1,561.7v-3.9h-4.5v3.9h-1.8v-9.4h1.8v3.9h4.5v-3.9h1.8v9.4H10322.1z"/>
	</g>
	<g class="st2">
		<path class="st4" d="M10308.2,733.3V724h1.8v7.8h4.2v1.6L10308.2,733.3L10308.2,733.3z"/>
		<path class="st4" d="M10322.1,733.3v-3.9h-4.5v3.9h-1.8V724h1.8v3.9h4.5V724h1.8v9.4h-1.8V733.3z"/>
	</g>
	<path id="Rectangle_892" class="st0" d="M10362.1,665.7h304.7c9.4,0,17,7.6,17,17v44c0,9.4-7.6,17-17,17l0,0h-321.7l0,0v-61
		C10345.1,673.3,10352.8,665.7,10362.1,665.7z"/>
	<g class="st2">
		<path class="st3" d="M10368.9,696.6c-3.7,0-6.3-2.5-6.3-6.5s2.6-6.6,6.3-6.6c1.5,0,3.1,0.4,4.2,1.1l-0.6,1.6
			c-1-0.6-2.3-1.1-3.6-1.1c-2.7,0-4.5,1.9-4.5,5s1.8,5.1,4.6,5.1c1,0,2-0.3,2.7-0.6v-3h-3.5V690h5.1v5.5
			C10372,696.2,10370.2,696.6,10368.9,696.6z"/>
		<path class="st3" d="M10377.6,696.3h-1.6v-9.2l1.6-0.3v1.6c0.6-1,1.4-1.6,2.6-1.6c0.6,0,1.2,0.2,1.7,0.5l-0.4,1.5
			c-0.5-0.3-1-0.4-1.5-0.4c-0.9,0-1.7,0.6-2.4,1.9L10377.6,696.3L10377.6,696.3z"/>
		<path class="st3" d="M10384.4,692c0.1,1.8,1.3,3.1,3,3.1c1,0,2-0.3,2.7-0.8l0.3,1.5c-0.8,0.5-1.9,0.8-3.1,0.8
			c-2.8,0-4.6-2-4.6-4.8c0-3,2-5,4.5-5c2.2,0,3.5,1.4,3.5,3.6c0,0.5-0.1,1.1-0.2,1.5C10390.6,691.9,10384.4,691.9,10384.4,692
			L10384.4,692z M10389.2,690.7L10389.2,690.7c0-1.5-0.6-2.4-2.1-2.4c-1.6,0-2.5,1.2-2.6,2.4L10389.2,690.7z"/>
		<path class="st3" d="M10397.6,695.3c-0.7,0.8-1.5,1.3-2.5,1.3c-1.7,0-2.9-1.1-2.9-2.6c0-1.6,1.2-3.1,5.5-3.3v-0.3
			c0-1.5-0.6-2.1-2.1-2.1c-0.9,0-2.1,0.4-3,1l-0.3-1.5c0.8-0.6,2.1-1.1,3.4-1.1c2.5,0,3.6,1.1,3.5,3.6v3.8c0,0.8,0.1,0.9,0.9,0.9
			l-0.1,1.4C10398.6,696.6,10398,696.1,10397.6,695.3L10397.6,695.3z M10397.7,691.7c-2.7,0.4-3.7,0.9-3.7,2c0,0.8,0.6,1.4,1.6,1.4
			c0.8,0,1.6-0.4,2.1-1L10397.7,691.7L10397.7,691.7z"/>
		<path class="st3" d="M10404.7,696.6c-1.8,0-2.7-0.9-2.7-2.9l0.1-5.1l-1.5-0.1l0.1-1l1.5-0.5v-2h1.6l-0.1,2.1h2.9l-0.1,1.5h-2.9
			l-0.1,5.2c0,0.9,0.4,1.3,1.2,1.3c0.6,0,1.1-0.1,1.7-0.3l0.3,1.4C10406.1,696.5,10405.4,696.6,10404.7,696.6z"/>
		<path class="st3" d="M10409.5,693.9c0.8,0,1.7,0.8,1.7,1.8c0,1.6-1.5,2.9-3,3.9l-0.7-0.7c1.4-1,2-1.8,2-2.5c0-0.5-0.4-0.8-1.4-1.3
			C10408.2,694.4,10408.7,693.9,10409.5,693.9z"/>
		<path class="st3" d="M10421.4,696.4l-0.6,1.6c-0.9,2.3-1.8,3-3.2,3c-0.7,0-1.3-0.2-1.9-0.5l0.5-1.5c0.5,0.2,1,0.4,1.5,0.4
			c0.7,0,1.1-0.4,1.8-2l0.6-1.4l-3.6-9h1.8l2.7,7.1l2.6-7.1h1.7L10421.4,696.4z"/>
		<path class="st3" d="M10430.3,696.6c-2.6,0-4.4-1.9-4.4-4.9c0-2.9,1.9-4.9,4.5-4.9s4.4,1.9,4.4,4.9
			C10434.8,694.7,10432.8,696.6,10430.3,696.6z M10430.3,688.3c-1.8,0-2.8,1.4-2.8,3.4s1.1,3.4,2.9,3.4c1.8,0,2.8-1.4,2.8-3.4
			C10433.1,689.8,10432.1,688.3,10430.3,688.3z"/>
		<path class="st3" d="M10438.6,687.1v5.8c0,1.6,0.6,2.1,1.8,2.1c1.1,0,2-0.5,2.5-1v-6.9h1.6v9.2l-1.6,0.3c0,0,0-1.2,0-1.3
			c-0.8,0.8-1.9,1.3-3.1,1.3c-1.8,0-2.9-1.2-2.9-3.2v-6.3L10438.6,687.1L10438.6,687.1z"/>
		<path class="st3" d="M10448.1,683c0.8,0,1.7,0.8,1.7,1.8c0,1.7-1.5,2.9-3,3.9l-0.7-0.7c1.4-1,2-1.8,2-2.5c0-0.5-0.4-0.8-1.4-1.3
			C10446.8,683.5,10447.3,683,10448.1,683z"/>
		<path class="st3" d="M10452.4,696.3h-1.6v-9.2l1.6-0.3v1.6c0.6-1,1.4-1.6,2.6-1.6c0.6,0,1.2,0.2,1.7,0.5l-0.4,1.5
			c-0.5-0.3-1-0.4-1.5-0.4c-0.9,0-1.7,0.6-2.4,1.9L10452.4,696.3L10452.4,696.3z"/>
		<path class="st3" d="M10459.2,692c0.1,1.8,1.3,3.1,3,3.1c1,0,2-0.3,2.7-0.8l0.3,1.5c-0.8,0.5-1.9,0.8-3.1,0.8
			c-2.8,0-4.6-2-4.6-4.8c0-3,2-5,4.5-5c2.2,0,3.5,1.4,3.5,3.6c0,0.5-0.1,1.1-0.2,1.5C10465.4,691.9,10459.2,691.9,10459.2,692
			L10459.2,692z M10464,690.7L10464,690.7c0-1.5-0.6-2.4-2.1-2.4c-1.6,0-2.5,1.2-2.6,2.4L10464,690.7z"/>
		<path class="st3" d="M10476.2,696.6c-2.9,0-4.5-2-4.5-4.9s1.9-4.9,4.6-4.9c1.2,0,2.1,0.3,3,0.8l-0.4,1.5c-0.8-0.5-1.6-0.8-2.5-0.8
			c-1.9,0-2.9,1.3-2.9,3.3c0,2.1,1.2,3.4,2.9,3.4c1,0,1.9-0.3,2.6-0.8l0.3,1.5C10478.4,696.3,10477.4,696.6,10476.2,696.6z"/>
		<path class="st3" d="M10485.2,696.6c-2.6,0-4.4-1.9-4.4-4.9c0-2.9,1.9-4.9,4.5-4.9s4.4,1.9,4.4,4.9
			C10489.7,694.7,10487.7,696.6,10485.2,696.6z M10485.2,688.3c-1.8,0-2.8,1.4-2.8,3.4s1.1,3.4,2.9,3.4c1.8,0,2.8-1.4,2.8-3.4
			C10488,689.8,10487,688.3,10485.2,688.3z"/>
		<path class="st3" d="M10497.8,696.3v-5.8c0-1.6-0.6-2.1-1.9-2.1c-1,0-1.9,0.5-2.4,1v6.9h-1.6v-9.2l1.6-0.3v1.4
			c0.8-0.8,1.9-1.4,3-1.4c1.9,0,3,1.2,3,3.2v6.3L10497.8,696.3L10497.8,696.3z"/>
		<path class="st3" d="M10507,684.3c-0.4-0.2-1-0.4-1.5-0.4c-0.9,0-1.4,0.6-1.4,1.9v1.3h2.9l-0.1,1.5h-2.8v7.7h-1.6v-7.7l-1.6-0.1
			l0.1-1l1.5-0.4v-1.2c0-2.6,1.2-3.5,3-3.5c0.7,0,1.4,0.2,1.8,0.4C10507.4,682.9,10507,684.4,10507,684.3z M10509.4,685.1
			c-0.7,0-1.1-0.6-1.1-1.2s0.3-1.2,1.1-1.2s1.1,0.6,1.1,1.2S10510.1,685.1,10509.4,685.1z M10508.6,696.3v-9.2l1.6-0.3v9.5H10508.6z
			"/>
		<path class="st3" d="M10514.6,696.3h-1.6v-9.2l1.6-0.3v1.6c0.6-1,1.4-1.6,2.6-1.6c0.6,0,1.2,0.2,1.7,0.5l-0.4,1.5
			c-0.5-0.3-1-0.4-1.5-0.4c-0.9,0-1.7,0.6-2.4,1.9L10514.6,696.3L10514.6,696.3z"/>
		<path class="st3" d="M10532,696.3v-5.7c0-1.6-0.6-2.2-1.8-2.2c-1,0-1.8,0.5-2.3,1v0.6v6.3h-1.6v-5.7c0-1.6-0.6-2.2-1.8-2.2
			c-1,0-1.8,0.4-2.3,0.9v7h-1.6v-9.2l1.6-0.3c0,0,0,1.2,0,1.3c0.9-0.8,1.8-1.3,2.9-1.3c1.1,0,1.9,0.5,2.4,1.5c1-1,2.1-1.5,3.3-1.5
			c1.7,0,2.8,1.2,2.8,3.2v6.3L10532,696.3L10532,696.3z"/>
		<path class="st3" d="M10537.5,692c0.1,1.8,1.3,3.1,3,3.1c1,0,2-0.3,2.7-0.8l0.3,1.5c-0.8,0.5-1.9,0.8-3.1,0.8
			c-2.8,0-4.6-2-4.6-4.8c0-3,2-5,4.5-5c2.2,0,3.5,1.4,3.5,3.6c0,0.5-0.1,1.1-0.2,1.5C10543.6,691.9,10537.5,691.9,10537.5,692
			L10537.5,692z M10542.3,690.7L10542.3,690.7c0-1.5-0.6-2.4-2.1-2.4c-1.6,0-2.5,1.2-2.6,2.4L10542.3,690.7z"/>
		<path class="st3" d="M10552.1,682.8l1.6-0.3v13.7h-1.6c0,0,0-0.7,0-0.8c-0.7,0.6-1.5,1.1-2.6,1.1c-2.6,0-4.1-2.1-4.1-4.8
			c0-2.8,1.9-4.9,4.7-4.9c0.7,0,1.4,0.1,2,0.3L10552.1,682.8L10552.1,682.8z M10550,688.3c-1.9,0-2.9,1.5-2.9,3.4c0,2,1,3.4,2.7,3.4
			c0.9,0,1.6-0.3,2.2-0.9c0,0.1,0-5.2,0-5.2C10551.5,688.5,10550.8,688.3,10550,688.3z"/>
		<path class="st3" d="M10565.9,684.3c-0.4-0.2-1-0.4-1.5-0.4c-0.9,0-1.4,0.6-1.4,1.9v1.3h2.9l-0.1,1.5h-2.8v7.7h-1.6v-7.7l-1.6-0.1
			l0.1-1l1.5-0.4v-1.2c0-2.6,1.2-3.5,3-3.5c0.7,0,1.4,0.2,1.8,0.4C10566.3,682.9,10565.9,684.4,10565.9,684.3z"/>
		<path class="st3" d="M10571.3,696.6c-2.6,0-4.4-1.9-4.4-4.9c0-2.9,1.9-4.9,4.5-4.9s4.4,1.9,4.4,4.9
			C10575.8,694.7,10573.8,696.6,10571.3,696.6z M10571.3,688.3c-1.8,0-2.8,1.4-2.8,3.4s1.1,3.4,2.9,3.4c1.8,0,2.8-1.4,2.8-3.4
			C10574.1,689.8,10573.1,688.3,10571.3,688.3z"/>
		<path class="st3" d="M10579.6,696.3h-1.6v-9.2l1.6-0.3v1.6c0.6-1,1.4-1.6,2.6-1.6c0.6,0,1.2,0.2,1.7,0.5l-0.4,1.5
			c-0.5-0.3-1-0.4-1.5-0.4c-0.9,0-1.7,0.6-2.4,1.9L10579.6,696.3L10579.6,696.3z"/>
		<path class="st3" d="M10595.2,685.4v10.9h-1.7v-10.9h-4.4v-1.6h10.4v1.6H10595.2z"/>
		<path class="st3" d="M10601,687.1v5.8c0,1.6,0.6,2.1,1.8,2.1c1.1,0,2-0.5,2.5-1v-6.9h1.6v9.2l-1.6,0.3c0,0,0-1.2,0-1.3
			c-0.8,0.8-1.9,1.3-3.1,1.3c-1.8,0-2.9-1.2-2.9-3.2v-6.3L10601,687.1L10601,687.1z"/>
		<path class="st3" d="M10610.9,692c0.1,1.8,1.3,3.1,3,3.1c1,0,2-0.3,2.7-0.8l0.3,1.5c-0.8,0.5-1.9,0.8-3.1,0.8
			c-2.8,0-4.6-2-4.6-4.8c0-3,2-5,4.5-5c2.2,0,3.5,1.4,3.5,3.6c0,0.5-0.1,1.1-0.2,1.5C10617,691.9,10610.9,691.9,10610.9,692
			L10610.9,692z M10615.7,690.7L10615.7,690.7c0-1.5-0.6-2.4-2.1-2.4c-1.6,0-2.5,1.2-2.6,2.4L10615.7,690.7z"/>
		<path class="st3" d="M10621.8,696.6c-1.1,0-2.4-0.3-3.2-0.9l0.4-1.5c0.8,0.5,1.9,0.9,2.8,0.9c1,0,1.8-0.5,1.8-1.3
			c0-0.9-1.1-1.2-2.2-1.5c-1.3-0.4-2.7-1-2.7-2.7s1.4-2.8,3.3-2.8c1.1,0,2.1,0.3,3,0.7l-0.4,1.5c-0.8-0.4-1.9-0.7-2.6-0.7
			c-1,0-1.6,0.4-1.6,1.1c0,0.9,1,1.2,2.1,1.5c1.3,0.4,2.8,1,2.8,2.7S10623.8,696.6,10621.8,696.6z"/>
		<path class="st3" d="M10633.5,682.8l1.6-0.3v13.7h-1.6c0,0,0-0.7,0-0.8c-0.7,0.6-1.5,1.1-2.6,1.1c-2.6,0-4.1-2.1-4.1-4.8
			c0-2.8,1.9-4.9,4.7-4.9c0.7,0,1.4,0.1,2,0.3L10633.5,682.8L10633.5,682.8z M10631.4,688.3c-1.9,0-2.9,1.5-2.9,3.4
			c0,2,1,3.4,2.7,3.4c0.9,0,1.6-0.3,2.2-0.9c0,0.1,0-5.2,0-5.2C10632.9,688.5,10632.2,688.3,10631.4,688.3z"/>
		<path class="st3" d="M10642.6,695.3c-0.7,0.8-1.5,1.3-2.5,1.3c-1.7,0-2.9-1.1-2.9-2.6c0-1.6,1.2-3.1,5.5-3.3v-0.3
			c0-1.5-0.6-2.1-2.1-2.1c-0.9,0-2.1,0.4-3,1l-0.3-1.5c0.8-0.6,2.1-1.1,3.4-1.1c2.5,0,3.6,1.1,3.5,3.6v3.8c0,0.8,0.1,0.9,0.9,0.9
			l-0.1,1.4C10643.6,696.6,10643,696.1,10642.6,695.3L10642.6,695.3z M10642.7,691.7c-2.7,0.4-3.7,0.9-3.7,2c0,0.8,0.6,1.4,1.6,1.4
			c0.8,0,1.6-0.4,2.1-1L10642.7,691.7L10642.7,691.7z"/>
		<path class="st3" d="M10650.7,696.4l-0.6,1.6c-0.9,2.3-1.8,3-3.2,3c-0.7,0-1.3-0.2-1.9-0.5l0.5-1.5c0.5,0.2,1,0.4,1.5,0.4
			c0.7,0,1.1-0.4,1.8-2l0.6-1.4l-3.6-9h1.8l2.7,7.1l2.6-7.1h1.7L10650.7,696.4z"/>
		<path class="st3" d="M10655.8,696.6c-0.8,0-1.3-0.6-1.3-1.3s0.5-1.3,1.3-1.3c0.7,0,1.3,0.6,1.3,1.3S10656.6,696.6,10655.8,696.6z"
			/>
	</g>
	<g class="st2">
		<path class="st3" d="M10369.4,719c0-1.3-1-1.8-3-2.3c-1.8-0.5-3.7-1.2-3.7-3.7c0-2.1,1.7-3.5,4.2-3.5c1.4,0,2.7,0.4,3.9,1.1
			l-0.6,1.5c-1-0.6-2.2-1-3.3-1c-1.8,0-2.5,0.8-2.5,1.9c0,1.3,1.1,1.7,3,2.2c1.8,0.5,3.7,1.4,3.7,3.7c0,2.2-1.8,3.7-4.4,3.7
			c-1.5,0-3-0.4-4.2-1.2l0.6-1.5c1.1,0.7,2.2,1.2,3.7,1.2C10368.2,721.1,10369.4,720.2,10369.4,719z"/>
		<path class="st3" d="M10374.4,718c0.1,1.8,1.3,3.1,3,3.1c1,0,2-0.3,2.7-0.8l0.3,1.5c-0.8,0.5-1.9,0.8-3.1,0.8
			c-2.8,0-4.6-2-4.6-4.8c0-3,2-5,4.5-5c2.2,0,3.5,1.4,3.5,3.6c0,0.5-0.1,1.1-0.2,1.5C10380.5,717.9,10374.4,717.9,10374.4,718
			L10374.4,718z M10379.2,716.7L10379.2,716.7c0-1.5-0.6-2.4-2.1-2.4c-1.6,0-2.5,1.2-2.6,2.4L10379.2,716.7z"/>
		<path class="st3" d="M10384,718c0.1,1.8,1.3,3.1,3,3.1c1,0,2-0.3,2.7-0.8l0.3,1.5c-0.8,0.5-1.9,0.8-3.1,0.8c-2.8,0-4.6-2-4.6-4.8
			c0-3,2-5,4.5-5c2.2,0,3.5,1.4,3.5,3.6c0,0.5-0.1,1.1-0.2,1.5C10390.1,717.9,10384,717.9,10384,718L10384,718z M10388.8,716.7
			L10388.8,716.7c0-1.5-0.6-2.4-2.1-2.4c-1.6,0-2.5,1.2-2.6,2.4L10388.8,716.7z"/>
		<path class="st3" d="M10400.8,722.4l-0.6,1.6c-0.9,2.3-1.8,3-3.2,3c-0.7,0-1.3-0.2-1.9-0.5l0.5-1.5c0.5,0.2,1,0.4,1.5,0.4
			c0.7,0,1.1-0.4,1.8-2l0.6-1.4l-3.6-9h1.8l2.7,7.1l2.6-7.1h1.7L10400.8,722.4z"/>
		<path class="st3" d="M10409.6,722.6c-2.6,0-4.4-1.9-4.4-4.9c0-2.9,1.9-4.9,4.5-4.9s4.4,1.9,4.4,4.9
			C10414.1,720.7,10412.2,722.6,10409.6,722.6z M10409.6,714.3c-1.8,0-2.8,1.4-2.8,3.4s1.1,3.4,2.9,3.4c1.8,0,2.8-1.4,2.8-3.4
			C10412.5,715.8,10411.4,714.3,10409.6,714.3z"/>
		<path class="st3" d="M10417.9,713.1v5.8c0,1.6,0.6,2.1,1.8,2.1c1.1,0,2-0.5,2.5-1v-6.9h1.6v9.2l-1.6,0.3c0,0,0-1.2,0-1.3
			c-0.8,0.8-1.9,1.3-3.1,1.3c-1.8,0-2.9-1.2-2.9-3.2v-6.3L10417.9,713.1L10417.9,713.1z"/>
		<path class="st3" d="M10434,722.6c-1.8,0-2.7-0.9-2.7-2.9l0.1-5.1l-1.5-0.1l0.1-1l1.5-0.5v-2h1.6l-0.1,2.1h2.9l-0.1,1.5h-2.9
			l-0.1,5.2c0,0.9,0.4,1.3,1.2,1.3c0.6,0,1.1-0.1,1.7-0.3l0.3,1.4C10435.4,722.5,10434.7,722.6,10434,722.6z"/>
		<path class="st3" d="M10444,722.3v-5.8c0-1.6-0.6-2.1-1.8-2.1c-1.1,0-2,0.5-2.5,1v6.9h-1.6v-13.5l1.6-0.3c0,0,0,5.5,0,5.6
			c0.8-0.8,1.9-1.3,3.1-1.3c1.8,0,2.9,1.2,2.9,3.2v6.3L10444,722.3L10444,722.3z"/>
		<path class="st3" d="M10449.4,718c0.1,1.8,1.3,3.1,3,3.1c1,0,2-0.3,2.7-0.8l0.3,1.5c-0.8,0.5-1.9,0.8-3.1,0.8
			c-2.8,0-4.6-2-4.6-4.8c0-3,2-5,4.5-5c2.2,0,3.5,1.4,3.5,3.6c0,0.5-0.1,1.1-0.2,1.5C10455.6,717.9,10449.4,717.9,10449.4,718
			L10449.4,718z M10454.2,716.7L10454.2,716.7c0-1.5-0.6-2.4-2.1-2.4c-1.6,0-2.5,1.2-2.6,2.4L10454.2,716.7z"/>
		<path class="st3" d="M10463.9,722.3v-5.8c0-1.6-0.6-2.1-1.9-2.1c-1,0-1.9,0.5-2.4,1v6.9h-1.6v-9.2l1.6-0.3v1.4
			c0.8-0.8,1.9-1.4,3-1.4c1.9,0,3,1.2,3,3.2v6.3L10463.9,722.3L10463.9,722.3z"/>
		<path class="st3" d="M10469.7,722.6c-0.8,0-1.3-0.6-1.3-1.3s0.6-1.3,1.3-1.3s1.3,0.6,1.3,1.3
			C10470.9,722,10470.4,722.6,10469.7,722.6z M10468.7,709.3h2l-0.5,9.2h-1L10468.7,709.3z"/>
	</g>
</g>
</svg>
