<?xml version="1.0" encoding="utf-8"?>
<!-- Generator: Adobe Illustrator 21.1.0, SVG Export Plug-In . SVG Version: 6.00 Build 0)  -->
<svg version="1.1" id="Layer_1" xmlns="http://www.w3.org/2000/svg" xmlns:xlink="http://www.w3.org/1999/xlink" x="0px" y="0px"
	 viewBox="0 0 392 374" style="enable-background:new 0 0 392 374;" xml:space="preserve">
<style type="text/css">
	.st0{enable-background:new    ;}
	.st1{fill:#4E6170;}
	.st2{fill:#F37021;}
	.st3{fill:#FFFFFF;}
	.st4{fill:#2595A5;}
	.st5{fill:#25A575;}
	.st6{fill:none;stroke:#F37021;}
	.st7{fill:none;stroke:#25A575;}
	.st8{fill:none;stroke:#2595A5;}
</style>
<g id="Group_344" transform="translate(-10272 -464)">
	<g class="st0">
		<path class="st1" d="M10313.3,483.9l-0.8,1.6l-4.4-2.3c-0.1,0-0.2,0-0.3,0c-3,0-5.1-1.9-5.1-5.2c0-3.1,2.2-5.3,5.2-5.3
			c2.9,0,5.1,1.9,5.1,5.2c0,2.1-1,3.7-2.6,4.6L10313.3,483.9z M10307.8,474.4c-1.9,0-3.1,1.4-3.1,3.6c0,2.2,1.2,3.7,3.2,3.7
			c1.9,0,3.2-1.5,3.2-3.6C10311,475.8,10309.7,474.4,10307.8,474.4z"/>
		<path class="st1" d="M10316.4,475.6v4.5c0,1.1,0.4,1.4,1.2,1.4c0.7,0,1.3-0.3,1.6-0.6v-5.3h1.9v7.3l-1.9,0.3c0,0,0-1,0-1.1
			c-0.6,0.7-1.5,1.1-2.4,1.1c-1.4,0-2.3-1-2.3-2.5v-5.1H10316.4z"/>
		<path class="st1" d="M10327.1,482.2c-0.5,0.6-1.2,1.1-2.1,1.1c-1.3,0-2.3-0.9-2.3-2.1c0-1.4,1-2.5,4.4-2.6v-0.2
			c0-1-0.4-1.4-1.5-1.4c-0.8,0-1.7,0.3-2.4,0.8l-0.4-1.5c0.7-0.4,1.9-0.9,3.1-0.9c2.3,0,3.2,1,3.1,3v2.6c0,0.6,0.1,0.6,0.7,0.7
			l-0.1,1.4C10328.1,483.3,10327.4,482.9,10327.1,482.2L10327.1,482.2z M10327.1,479.5c-1.8,0.2-2.5,0.6-2.5,1.4c0,0.6,0.4,1,1.1,1
			c0.6,0,1.1-0.3,1.4-0.6V479.5z"/>
		<path class="st1" d="M10330.9,483v-10.7l1.9-0.3V483H10330.9z"/>
		<path class="st1" d="M10335.8,474.3c-0.7,0-1.2-0.4-1.2-1.1c0-0.7,0.4-1.1,1.2-1.1c0.8,0,1.2,0.5,1.2,1.1
			C10336.9,473.8,10336.5,474.3,10335.8,474.3z M10334.8,483v-7.3l1.9-0.3v7.6H10334.8z"/>
		<path class="st1" d="M10341.3,483.2c-1.6,0-2.5-0.7-2.4-2.5l0.1-3.5l-1.2-0.1l0-1.2l1.2-0.4l0-1.6h1.8l0,1.7h2.1l0,1.6h-2.1
			l-0.1,3.4c0,0.7,0.3,1,1,1c0.4,0,0.8-0.1,1.2-0.2l0.3,1.5C10342.5,483.1,10342,483.2,10341.3,483.2z"/>
		<path class="st1" d="M10348.2,482.9l-0.4,1.2c-0.7,2-1.6,2.6-2.9,2.6c-0.7,0-1.3-0.2-1.9-0.4l0.6-1.6c0.4,0.2,0.8,0.4,1.2,0.4
			c0.5,0,0.8-0.2,1.2-1.2l0.3-0.8l-2.9-7.3h2l1.8,5.3l1.8-5.3h2L10348.2,482.9z"/>
	</g>
	<g class="st0">
		<path class="st1" d="M10563.5,786.2c-0.8-0.5-1.7-0.8-2.6-0.8c-2,0-3.3,1.3-3.3,3.5c0,2.2,1.3,3.6,3.3,3.6c1,0,2-0.4,2.7-0.9
			l0.4,1.8c-0.8,0.5-2,0.8-3.2,0.8c-3.1,0-5.2-1.9-5.2-5.2c0-3.2,2.1-5.3,5.2-5.3c1.2,0,2.4,0.3,3.2,0.8L10563.5,786.2z"/>
		<path class="st1" d="M10565.7,794v-10.7l1.9-0.3V794H10565.7z"/>
		<path class="st1" d="M10570.6,785.3c-0.7,0-1.2-0.4-1.2-1.1c0-0.7,0.4-1.1,1.2-1.1c0.8,0,1.2,0.5,1.2,1.1
			C10571.7,784.8,10571.3,785.3,10570.6,785.3z M10569.6,794v-7.3l1.9-0.3v7.6H10569.6z"/>
		<path class="st1" d="M10578.3,794v-4.5c0-1.1-0.4-1.5-1.3-1.5c-0.7,0-1.3,0.3-1.6,0.7v5.3h-1.9v-7.3l1.9-0.3c0,0,0,1.1,0,1.2
			c0.7-0.7,1.5-1.2,2.4-1.2c1.5,0,2.4,1,2.4,2.5v5.1H10578.3z"/>
		<path class="st1" d="M10583.1,785.3c-0.7,0-1.2-0.4-1.2-1.1c0-0.7,0.4-1.1,1.2-1.1c0.8,0,1.2,0.5,1.2,1.1
			C10584.3,784.8,10583.9,785.3,10583.1,785.3z M10582.2,794v-7.3l1.9-0.3v7.6H10582.2z"/>
		<path class="st1" d="M10589.5,794.2c-2.4,0-3.8-1.5-3.8-3.9c0-2.4,1.6-4,3.9-4c1,0,1.9,0.2,2.5,0.6l-0.4,1.5
			c-0.6-0.4-1.3-0.6-2-0.6c-1.4,0-2.1,0.9-2.1,2.4c0,1.5,0.8,2.4,2.1,2.4c0.8,0,1.5-0.2,2-0.6l0.3,1.5
			C10591.4,794,10590.5,794.2,10589.5,794.2z"/>
		<path class="st1" d="M10597.5,793.2c-0.5,0.6-1.2,1.1-2.1,1.1c-1.3,0-2.3-0.9-2.3-2.1c0-1.4,1-2.5,4.4-2.6v-0.2
			c0-1-0.4-1.4-1.5-1.4c-0.8,0-1.7,0.3-2.4,0.8l-0.4-1.5c0.7-0.4,1.9-0.9,3.1-0.9c2.3,0,3.2,1,3.1,3v2.6c0,0.6,0.1,0.6,0.7,0.7
			l-0.1,1.4C10598.5,794.3,10597.8,793.9,10597.5,793.2L10597.5,793.2z M10597.5,790.5c-1.8,0.2-2.5,0.6-2.5,1.4c0,0.6,0.4,1,1.1,1
			c0.6,0,1.1-0.3,1.4-0.6V790.5z"/>
		<path class="st1" d="M10601.3,794v-10.7l1.9-0.3V794H10601.3z"/>
		<path class="st1" d="M10612.1,790.9l-1.1,0v3.1h-2v-10c0,0,3.2,0,3.2,0c2.8,0,4.1,1.4,4.1,3.3
			C10616.4,789.6,10614.8,790.9,10612.1,790.9z M10612.1,785.6c-0.1,0-1.2,0-1.2,0v3.6l1.2,0c1.5,0,2.2-0.7,2.2-1.8
			C10614.4,786.2,10613.6,785.6,10612.1,785.6z"/>
		<path class="st1" d="M10619.8,794h-1.9v-7.3l1.9-0.3v1.2c0.5-0.8,1.1-1.2,1.9-1.2c0.4,0,0.9,0.1,1.3,0.3l-0.4,1.7
			c-0.4-0.2-0.7-0.3-1.1-0.3c-0.7,0-1.3,0.4-1.8,1.3V794z"/>
		<path class="st1" d="M10627.9,793.2c-0.5,0.6-1.2,1.1-2.1,1.1c-1.3,0-2.3-0.9-2.3-2.1c0-1.4,1-2.5,4.4-2.6v-0.2
			c0-1-0.4-1.4-1.5-1.4c-0.8,0-1.7,0.3-2.4,0.8l-0.4-1.5c0.7-0.4,1.9-0.9,3.1-0.9c2.3,0,3.2,1,3.1,3v2.6c0,0.6,0.1,0.6,0.7,0.7
			l-0.1,1.4C10628.9,794.3,10628.3,793.9,10627.9,793.2L10627.9,793.2z M10627.9,790.5c-1.8,0.2-2.5,0.6-2.5,1.4c0,0.6,0.4,1,1.1,1
			c0.6,0,1.1-0.3,1.4-0.6V790.5z"/>
		<path class="st1" d="M10635.2,794.2c-2.4,0-3.8-1.5-3.8-3.9c0-2.4,1.6-4,3.9-4c1,0,1.9,0.2,2.5,0.6l-0.4,1.5
			c-0.6-0.4-1.3-0.6-2-0.6c-1.4,0-2.1,0.9-2.1,2.4c0,1.5,0.8,2.4,2.1,2.4c0.8,0,1.5-0.2,2-0.6l0.3,1.5
			C10637.1,794,10636.2,794.2,10635.2,794.2z"/>
		<path class="st1" d="M10641.9,794.2c-1.6,0-2.5-0.7-2.4-2.5l0.1-3.5l-1.2-0.1l0-1.2l1.2-0.4l0-1.6h1.8l0,1.7h2.1l0,1.6h-2.1
			l-0.1,3.4c0,0.7,0.3,1,1,1c0.4,0,0.8-0.1,1.2-0.2l0.3,1.5C10643,794.1,10642.5,794.2,10641.9,794.2z"/>
		<path class="st1" d="M10646,785.3c-0.7,0-1.2-0.4-1.2-1.1c0-0.7,0.4-1.1,1.2-1.1c0.8,0,1.2,0.5,1.2,1.1
			C10647.1,784.8,10646.7,785.3,10646,785.3z M10645,794v-7.3l1.9-0.3v7.6H10645z"/>
		<path class="st1" d="M10652.3,794.2c-2.4,0-3.8-1.5-3.8-3.9c0-2.4,1.6-4,3.9-4c1,0,1.9,0.2,2.5,0.6l-0.4,1.5
			c-0.6-0.4-1.3-0.6-2-0.6c-1.4,0-2.1,0.9-2.1,2.4c0,1.5,0.8,2.4,2.1,2.4c0.8,0,1.5-0.2,2-0.6l0.3,1.5
			C10654.2,794,10653.3,794.2,10652.3,794.2z"/>
		<path class="st1" d="M10657.8,790.7c0.1,1.2,0.9,2,2.2,2c0.8,0,1.6-0.3,2.3-0.7l0.2,1.6c-0.7,0.4-1.7,0.6-2.7,0.6
			c-2.4,0-3.9-1.5-3.9-3.9c0-2.4,1.6-4,3.8-4c2,0,3,1.2,3,3c0,0.4-0.1,0.9-0.2,1.2C10662.6,790.6,10657.8,790.7,10657.8,790.7
			L10657.8,790.7z M10661,789.5c0,0,0-0.1,0-0.1c0-1-0.4-1.6-1.4-1.6c-1,0-1.7,0.8-1.8,1.8L10661,789.5z"/>
	</g>
	<g class="st0">
		<path class="st1" d="M10556.2,814v-10h1.9v10H10556.2z"/>
		<path class="st1" d="M10569.6,814v-4.5c0-1.1-0.4-1.5-1.2-1.5c-0.7,0-1.2,0.3-1.5,0.7v0.4v4.8h-1.9v-4.5c0-1.1-0.4-1.5-1.2-1.5
			c-0.7,0-1.2,0.3-1.5,0.6v5.3h-1.9v-7.3l1.9-0.3c0,0,0,1,0,1c0.7-0.7,1.4-1.1,2.4-1.1c0.9,0,1.6,0.4,2,1.3c0.7-0.8,1.6-1.3,2.6-1.3
			c1.4,0,2.3,1,2.3,2.6v5.1H10569.6z"/>
		<path class="st1" d="M10577.4,806.4c2,0,3.2,1.6,3.2,3.9c0,2.4-1.6,4-3.7,4c-0.5,0-1.1-0.1-1.6-0.2v3.5h-1.9v-10.9l1.9-0.3
			c0,0,0,0.9,0,0.9C10575.8,806.8,10576.5,806.4,10577.4,806.4z M10575.3,812.3c0.4,0.3,0.8,0.4,1.4,0.4c1.3,0,2-1,2-2.4
			c0-1.4-0.7-2.4-1.9-2.4c-0.6,0-1.1,0.2-1.5,0.6C10575.3,808.5,10575.3,812.3,10575.3,812.3z"/>
		<path class="st1" d="M10584.1,814h-1.9v-7.3l1.9-0.3v1.2c0.5-0.8,1.1-1.2,1.9-1.2c0.4,0,0.9,0.1,1.3,0.3l-0.4,1.7
			c-0.4-0.2-0.7-0.3-1.1-0.3c-0.7,0-1.3,0.4-1.8,1.3V814z"/>
		<path class="st1" d="M10591.7,814.2c-2.2,0-3.7-1.5-3.7-3.9c0-2.4,1.6-4,3.8-4c2.2,0,3.7,1.5,3.7,3.9
			C10595.5,812.7,10593.8,814.2,10591.7,814.2z M10591.7,807.9c-1.2,0-1.9,1-1.9,2.4c0,1.4,0.7,2.4,1.9,2.4c1.2,0,1.9-1,1.9-2.4
			S10592.9,807.9,10591.7,807.9z"/>
		<path class="st1" d="M10600.6,814h-2l-2.8-7.4h2l1.9,5.4l1.8-5.4h2L10600.6,814z"/>
		<path class="st1" d="M10605.8,810.7c0.1,1.2,0.9,2,2.2,2c0.8,0,1.6-0.3,2.3-0.7l0.2,1.6c-0.7,0.4-1.7,0.6-2.7,0.6
			c-2.4,0-3.9-1.5-3.9-3.9c0-2.4,1.6-4,3.8-4c2,0,3,1.2,3,3c0,0.4-0.1,0.9-0.2,1.2C10610.6,810.6,10605.8,810.7,10605.8,810.7
			L10605.8,810.7z M10609,809.5c0,0,0-0.1,0-0.1c0-1-0.4-1.6-1.4-1.6c-1,0-1.7,0.8-1.8,1.8L10609,809.5z"/>
		<path class="st1" d="M10621.6,814v-4.5c0-1.1-0.4-1.5-1.2-1.5c-0.7,0-1.2,0.3-1.5,0.7v0.4v4.8h-1.9v-4.5c0-1.1-0.4-1.5-1.2-1.5
			c-0.7,0-1.2,0.3-1.5,0.6v5.3h-1.9v-7.3l1.9-0.3c0,0,0,1,0,1c0.7-0.7,1.4-1.1,2.4-1.1c0.9,0,1.6,0.4,2,1.3c0.7-0.8,1.6-1.3,2.6-1.3
			c1.4,0,2.3,1,2.3,2.6v5.1H10621.6z"/>
		<path class="st1" d="M10626.9,810.7c0.1,1.2,0.9,2,2.2,2c0.8,0,1.6-0.3,2.3-0.7l0.2,1.6c-0.7,0.4-1.7,0.6-2.7,0.6
			c-2.4,0-3.9-1.5-3.9-3.9c0-2.4,1.6-4,3.8-4c2,0,3,1.2,3,3c0,0.4-0.1,0.9-0.2,1.2C10631.7,810.6,10626.9,810.7,10626.9,810.7
			L10626.9,810.7z M10630.1,809.5c0,0,0-0.1,0-0.1c0-1-0.4-1.6-1.4-1.6c-1,0-1.7,0.8-1.8,1.8L10630.1,809.5z"/>
		<path class="st1" d="M10638.3,814v-4.5c0-1.1-0.4-1.5-1.3-1.5c-0.7,0-1.3,0.3-1.6,0.7v5.3h-1.9v-7.3l1.9-0.3c0,0,0,1.1,0,1.2
			c0.7-0.7,1.5-1.2,2.4-1.2c1.5,0,2.4,1,2.4,2.5v5.1H10638.3z"/>
		<path class="st1" d="M10644.7,814.2c-1.6,0-2.5-0.7-2.4-2.5l0.1-3.5l-1.2-0.1l0-1.2l1.2-0.4l0-1.6h1.8l0,1.7h2.1l0,1.6h-2.1
			l-0.1,3.4c0,0.7,0.3,1,1,1c0.4,0,0.8-0.1,1.2-0.2l0.3,1.5C10645.9,814.1,10645.4,814.2,10644.7,814.2z"/>
	</g>
	<g class="st0">
		<path class="st1" d="M10564.7,834h-2l-0.8-2.4h-4l-0.8,2.4h-2l3.6-10h2.4L10564.7,834z M10559.9,825.7l-1.5,4.3h3L10559.9,825.7z"
			/>
		<path class="st1" d="M10569.1,834.2c-2.4,0-3.8-1.5-3.8-3.9c0-2.4,1.6-4,3.9-4c1,0,1.9,0.2,2.5,0.6l-0.4,1.5
			c-0.6-0.4-1.3-0.6-2-0.6c-1.4,0-2.1,0.9-2.1,2.4c0,1.5,0.8,2.4,2.1,2.4c0.8,0,1.5-0.2,2-0.6l0.3,1.5
			C10571.1,834,10570.1,834.2,10569.1,834.2z"/>
		<path class="st1" d="M10575.9,834.2c-1.6,0-2.5-0.7-2.4-2.5l0.1-3.5l-1.2-0.1l0-1.2l1.2-0.4l0-1.6h1.8l0,1.7h2.1l0,1.6h-2.1
			l-0.1,3.4c0,0.7,0.3,1,1,1c0.4,0,0.8-0.1,1.2-0.2l0.3,1.5C10577,834.1,10576.5,834.2,10575.9,834.2z"/>
		<path class="st1" d="M10579.9,825.3c-0.7,0-1.2-0.4-1.2-1.1c0-0.7,0.4-1.1,1.2-1.1c0.8,0,1.2,0.5,1.2,1.1
			C10581.1,824.8,10580.7,825.3,10579.9,825.3z M10579,834v-7.3l1.9-0.3v7.6H10579z"/>
		<path class="st1" d="M10586.7,834h-2l-2.8-7.4h2l1.9,5.4l1.8-5.4h2L10586.7,834z"/>
		<path class="st1" d="M10591.5,825.3c-0.7,0-1.2-0.4-1.2-1.1c0-0.7,0.4-1.1,1.2-1.1c0.8,0,1.2,0.5,1.2,1.1
			C10592.6,824.8,10592.2,825.3,10591.5,825.3z M10590.5,834v-7.3l1.9-0.3v7.6H10590.5z"/>
		<path class="st1" d="M10597,834.2c-1.6,0-2.5-0.7-2.4-2.5l0.1-3.5l-1.2-0.1l0-1.2l1.2-0.4l0-1.6h1.8l0,1.7h2.1l0,1.6h-2.1
			l-0.1,3.4c0,0.7,0.3,1,1,1c0.4,0,0.8-0.1,1.2-0.2l0.3,1.5C10598.2,834.1,10597.7,834.2,10597,834.2z"/>
		<path class="st1" d="M10601.1,825.3c-0.7,0-1.2-0.4-1.2-1.1c0-0.7,0.4-1.1,1.2-1.1c0.8,0,1.2,0.5,1.2,1.1
			C10602.3,824.8,10601.9,825.3,10601.1,825.3z M10600.2,834v-7.3l1.9-0.3v7.6H10600.2z"/>
		<path class="st1" d="M10605.5,830.7c0.1,1.2,0.9,2,2.2,2c0.8,0,1.6-0.3,2.3-0.7l0.2,1.6c-0.7,0.4-1.7,0.6-2.7,0.6
			c-2.4,0-3.9-1.5-3.9-3.9c0-2.4,1.6-4,3.8-4c2,0,3,1.2,3,3c0,0.4-0.1,0.9-0.2,1.2C10610.3,830.6,10605.5,830.7,10605.5,830.7
			L10605.5,830.7z M10608.7,829.5c0,0,0-0.1,0-0.1c0-1-0.4-1.6-1.4-1.6c-1,0-1.7,0.8-1.8,1.8L10608.7,829.5z"/>
		<path class="st1" d="M10614.3,834.3c-1,0-2.1-0.3-2.9-0.7l0.4-1.5c0.7,0.4,1.7,0.7,2.5,0.7c0.7,0,1.2-0.3,1.2-0.8
			c0-0.6-0.6-0.8-1.5-1c-1.4-0.3-2.5-0.9-2.5-2.3s1.2-2.3,2.9-2.3c0.9,0,2,0.2,2.7,0.6l-0.4,1.5c-0.7-0.4-1.7-0.6-2.3-0.6
			c-0.7,0-1.1,0.3-1.1,0.7c0,0.6,0.6,0.8,1.5,1c1.4,0.3,2.5,0.9,2.5,2.3C10617.4,833.2,10616.2,834.3,10614.3,834.3z"/>
	</g>
	<g class="st0">
		<path class="st1" d="M10564.7,483h-2l-0.8-2.4h-4l-0.8,2.4h-2l3.6-10h2.4L10564.7,483z M10559.9,474.7l-1.5,4.3h3L10559.9,474.7z"
			/>
		<path class="st1" d="M10570.6,472.3l1.9-0.3V483h-1.9c0,0,0-0.6,0-0.7c-0.5,0.5-1.2,1-2.1,1c-2,0-3.2-1.6-3.2-3.9
			c0-2.4,1.6-4,3.7-4c0.5,0,1.1,0.1,1.6,0.2V472.3z M10569.2,476.9c-1.3,0-2,1-2,2.4c0,1.4,0.7,2.4,1.9,2.4c0.6,0,1.1-0.2,1.5-0.6
			c0,0.1,0-3.7,0-3.7C10570.3,477,10569.8,476.9,10569.2,476.9z"/>
		<path class="st1" d="M10578.3,483h-2l-2.8-7.4h2l1.9,5.4l1.8-5.4h2L10578.3,483z"/>
		<path class="st1" d="M10586.3,482.2c-0.5,0.6-1.2,1.1-2.1,1.1c-1.3,0-2.3-0.9-2.3-2.1c0-1.4,1-2.5,4.4-2.6v-0.2
			c0-1-0.4-1.4-1.5-1.4c-0.8,0-1.7,0.3-2.4,0.8l-0.4-1.5c0.7-0.4,1.9-0.9,3.1-0.9c2.3,0,3.2,1,3.1,3v2.6c0,0.6,0.1,0.6,0.7,0.7
			l-0.1,1.4C10587.3,483.3,10586.6,482.9,10586.3,482.2L10586.3,482.2z M10586.3,479.5c-1.8,0.2-2.5,0.6-2.5,1.4c0,0.6,0.4,1,1.1,1
			c0.6,0,1.1-0.3,1.4-0.6V479.5z"/>
		<path class="st1" d="M10594.9,483v-4.5c0-1.1-0.4-1.5-1.3-1.5c-0.7,0-1.3,0.3-1.6,0.7v5.3h-1.9v-7.3l1.9-0.3c0,0,0,1.1,0,1.2
			c0.7-0.7,1.5-1.2,2.4-1.2c1.5,0,2.4,1,2.4,2.5v5.1H10594.9z"/>
		<path class="st1" d="M10602.2,483.2c-2.4,0-3.8-1.5-3.8-3.9c0-2.4,1.6-4,3.9-4c1,0,1.9,0.2,2.5,0.6l-0.4,1.5
			c-0.6-0.4-1.3-0.6-2-0.6c-1.4,0-2.1,0.9-2.1,2.4c0,1.5,0.8,2.4,2.1,2.4c0.8,0,1.5-0.2,2-0.6l0.3,1.5
			C10604.1,483,10603.2,483.2,10602.2,483.2z"/>
		<path class="st1" d="M10607.2,474.3c-0.7,0-1.2-0.4-1.2-1.1c0-0.7,0.4-1.1,1.2-1.1c0.8,0,1.2,0.5,1.2,1.1
			C10608.4,473.8,10608,474.3,10607.2,474.3z M10606.3,483v-7.3l1.9-0.3v7.6H10606.3z"/>
		<path class="st1" d="M10615,483v-4.5c0-1.1-0.4-1.5-1.3-1.5c-0.7,0-1.3,0.3-1.6,0.7v5.3h-1.9v-7.3l1.9-0.3c0,0,0,1.1,0,1.2
			c0.7-0.7,1.5-1.2,2.4-1.2c1.5,0,2.4,1,2.4,2.5v5.1H10615z"/>
		<path class="st1" d="M10618.4,482c0-0.7,0.5-1.3,1.4-1.6c-0.8-0.4-1.3-1.2-1.3-2.3c0-1.5,1.2-2.8,3.2-2.8c0.8,0,1.6,0.2,2.1,0.5
			l2-0.2l0.1,1.6l-1.4-0.2c0.2,0.2,0.3,0.8,0.3,1.2c0,1.5-1.3,2.7-3.1,2.7c-0.4,0-0.6,0-1-0.1c-0.3,0.1-0.6,0.3-0.6,0.6
			c0,0.4,0.3,0.6,1.5,0.6c0,0,0.9,0,0.8,0c2.1,0,3.3,0.6,3.3,2c0,1.7-2,2.9-4.3,2.9c-2,0-3.5-0.7-3.5-2c0-0.8,0.6-1.5,1.7-1.6
			C10618.9,483.1,10618.4,482.6,10618.4,482z M10619.6,484.6c0,0.7,0.8,1.2,2.1,1.2c1.3,0,2.3-0.5,2.3-1.2c0-0.7-0.7-0.8-2-0.8
			c-0.5,0-1.1,0-1.4-0.1C10620,483.8,10619.6,484.1,10619.6,484.6z M10621.7,479.7c0.8,0,1.3-0.6,1.3-1.5c0-0.9-0.5-1.5-1.4-1.5
			c-0.8,0-1.4,0.6-1.4,1.6C10620.3,479.1,10620.8,479.7,10621.7,479.7z"/>
		<path class="st1" d="M10638,475.2c-0.8-0.5-1.7-0.8-2.6-0.8c-2,0-3.3,1.3-3.3,3.5c0,2.2,1.3,3.6,3.3,3.6c1,0,2-0.4,2.7-0.9
			l0.4,1.8c-0.8,0.5-2,0.8-3.2,0.8c-3.1,0-5.2-1.9-5.2-5.2c0-3.2,2.1-5.3,5.2-5.3c1.2,0,2.4,0.3,3.2,0.8L10638,475.2z"/>
		<path class="st1" d="M10644.1,482.2c-0.5,0.6-1.2,1.1-2.1,1.1c-1.3,0-2.3-0.9-2.3-2.1c0-1.4,1-2.5,4.4-2.6v-0.2
			c0-1-0.4-1.4-1.5-1.4c-0.8,0-1.7,0.3-2.4,0.8l-0.4-1.5c0.7-0.4,1.9-0.9,3.1-0.9c2.3,0,3.2,1,3.1,3v2.6c0,0.6,0.1,0.6,0.7,0.7
			l-0.1,1.4C10645.1,483.3,10644.5,482.9,10644.1,482.2L10644.1,482.2z M10644.1,479.5c-1.8,0.2-2.5,0.6-2.5,1.4c0,0.6,0.4,1,1.1,1
			c0.6,0,1.1-0.3,1.4-0.6V479.5z"/>
		<path class="st1" d="M10649.8,483h-1.9v-7.3l1.9-0.3v1.2c0.5-0.8,1.1-1.2,1.9-1.2c0.4,0,0.9,0.1,1.3,0.3l-0.4,1.7
			c-0.4-0.2-0.7-0.3-1.1-0.3c-0.7,0-1.3,0.4-1.8,1.3V483z"/>
		<path class="st1" d="M10655.5,479.7c0.1,1.2,0.9,2,2.2,2c0.8,0,1.6-0.3,2.3-0.7l0.2,1.6c-0.7,0.4-1.7,0.6-2.7,0.6
			c-2.4,0-3.9-1.5-3.9-3.9c0-2.4,1.6-4,3.8-4c2,0,3,1.2,3,3c0,0.4-0.1,0.9-0.2,1.2C10660.3,479.6,10655.5,479.7,10655.5,479.7
			L10655.5,479.7z M10658.7,478.5c0,0,0-0.1,0-0.1c0-1-0.4-1.6-1.4-1.6c-1,0-1.7,0.8-1.8,1.8L10658.7,478.5z"/>
	</g>
	<g class="st0">
		<path class="st1" d="M10556.2,503v-10h1.9v10H10556.2z"/>
		<path class="st1" d="M10565.1,503v-4.5c0-1.1-0.4-1.5-1.3-1.5c-0.7,0-1.3,0.3-1.6,0.7v5.3h-1.9v-7.3l1.9-0.3c0,0,0,1.1,0,1.2
			c0.7-0.7,1.5-1.2,2.4-1.2c1.5,0,2.4,1,2.4,2.5v5.1H10565.1z"/>
		<path class="st1" d="M10573.3,493.8c-0.4-0.2-0.8-0.3-1.2-0.3c-0.7,0-1,0.4-1,1.3v0.8h2.2l0,1.6h-2.1v5.8h-1.9v-5.8l-1.3-0.1
			l0.1-1.2l1.2-0.4l0-0.8c0-2.1,1-2.9,2.7-2.9c0.7,0,1.4,0.2,1.7,0.4C10573.7,492.2,10573.3,493.9,10573.3,493.8z"/>
		<path class="st1" d="M10577.8,503.2c-2.2,0-3.7-1.5-3.7-3.9c0-2.4,1.6-4,3.8-4c2.2,0,3.7,1.5,3.7,3.9
			C10581.6,501.7,10580,503.2,10577.8,503.2z M10577.8,496.9c-1.2,0-1.9,1-1.9,2.4c0,1.4,0.7,2.4,1.9,2.4c1.2,0,1.9-1,1.9-2.4
			S10579,496.9,10577.8,496.9z"/>
		<path class="st1" d="M10585.1,503h-1.9v-7.3l1.9-0.3v1.2c0.5-0.8,1.1-1.2,1.9-1.2c0.4,0,0.9,0.1,1.3,0.3l-0.4,1.7
			c-0.4-0.2-0.7-0.3-1.1-0.3c-0.7,0-1.3,0.4-1.8,1.3V503z"/>
		<path class="st1" d="M10598.7,503v-4.5c0-1.1-0.4-1.5-1.2-1.5c-0.7,0-1.2,0.3-1.5,0.7v0.4v4.8h-1.9v-4.5c0-1.1-0.4-1.5-1.2-1.5
			c-0.7,0-1.2,0.3-1.5,0.6v5.3h-1.9v-7.3l1.9-0.3c0,0,0,1,0,1c0.7-0.7,1.4-1.1,2.4-1.1c0.9,0,1.6,0.4,2,1.3c0.7-0.8,1.6-1.3,2.6-1.3
			c1.4,0,2.3,1,2.3,2.6v5.1H10598.7z"/>
		<path class="st1" d="M10606.4,502.2c-0.5,0.6-1.2,1.1-2.1,1.1c-1.3,0-2.3-0.9-2.3-2.1c0-1.4,1-2.5,4.4-2.6v-0.2
			c0-1-0.4-1.4-1.5-1.4c-0.8,0-1.7,0.3-2.4,0.8l-0.4-1.5c0.7-0.4,1.9-0.9,3.1-0.9c2.3,0,3.2,1,3.1,3v2.6c0,0.6,0.1,0.6,0.7,0.7
			l-0.1,1.4C10607.4,503.3,10606.8,502.9,10606.4,502.2L10606.4,502.2z M10606.4,499.5c-1.8,0.2-2.5,0.6-2.5,1.4c0,0.6,0.4,1,1.1,1
			c0.6,0,1.1-0.3,1.4-0.6V499.5z"/>
		<path class="st1" d="M10612.9,503.2c-1.6,0-2.5-0.7-2.4-2.5l0.1-3.5l-1.2-0.1l0-1.2l1.2-0.4l0-1.6h1.8l0,1.7h2.1l0,1.6h-2.1
			l-0.1,3.4c0,0.7,0.3,1,1,1c0.4,0,0.8-0.1,1.2-0.2l0.3,1.5C10614,503.1,10613.5,503.2,10612.9,503.2z"/>
		<path class="st1" d="M10616.9,494.3c-0.7,0-1.2-0.4-1.2-1.1c0-0.7,0.4-1.1,1.2-1.1c0.8,0,1.2,0.5,1.2,1.1
			C10618.1,493.8,10617.7,494.3,10616.9,494.3z M10616,503v-7.3l1.9-0.3v7.6H10616z"/>
		<path class="st1" d="M10623.2,503.2c-2.2,0-3.7-1.5-3.7-3.9c0-2.4,1.6-4,3.8-4c2.2,0,3.7,1.5,3.7,3.9
			C10627,501.7,10625.4,503.2,10623.2,503.2z M10623.2,496.9c-1.2,0-1.9,1-1.9,2.4c0,1.4,0.7,2.4,1.9,2.4c1.2,0,1.9-1,1.9-2.4
			S10624.4,496.9,10623.2,496.9z"/>
		<path class="st1" d="M10633.4,503v-4.5c0-1.1-0.4-1.5-1.3-1.5c-0.7,0-1.3,0.3-1.6,0.7v5.3h-1.9v-7.3l1.9-0.3c0,0,0,1.1,0,1.2
			c0.7-0.7,1.5-1.2,2.4-1.2c1.5,0,2.4,1,2.4,2.5v5.1H10633.4z"/>
	</g>
	<g id="Group_340" transform="translate(-2 -1)">
		<path id="Union_2" class="st2" d="M10331.2,562.8c-49.2,49.3-49.1,129.3,0.2,178.5c23.4,23.3,55,36.5,88,36.8l0,0h0.2h0.6l0,0
			c27.4-0.1,54.1-9.2,75.8-25.9l-75.8-103.2V525.7C10386.8,525.7,10354.7,539,10331.2,562.8z"/>
		<g class="st0">
			<path class="st3" d="M10347.7,651.2l0.5,1.6c-2.9,0.7-4.9,2.2-5.6,4.7l0,0c0.8-0.8,1.8-1.2,3.2-1.2c2,0,3.7,1.5,3.7,3.9
				c0,2.4-1.7,4.2-4.3,4.2c-2.8,0-4.4-2.4-4.4-5.2C10340.9,655.6,10343.1,652.3,10347.7,651.2z M10345.3,662.8
				c1.5,0,2.5-1.1,2.5-2.6c0-1.5-1-2.5-2.4-2.5c-1.1,0-2.2,0.6-2.7,1.1c-0.1,0.2-0.1,0.5-0.1,0.8
				C10342.6,661.3,10343.6,662.8,10345.3,662.8z"/>
			<path class="st3" d="M10356.1,664.3c-2.8,0-4.8-2-4.8-5s2-5,4.8-5s4.8,2,4.8,5S10358.9,664.3,10356.1,664.3z M10356.1,655.8
				c-1.9,0-3.2,1.5-3.2,3.5c0,2,1.3,3.5,3.2,3.5s3.2-1.5,3.2-3.5C10359.3,657.3,10358,655.8,10356.1,655.8z"/>
			<path class="st3" d="M10365.5,657.7c-2,0-3.3-1.5-3.3-3.3c0-1.8,1.3-3.3,3.3-3.3c2.1,0,3.3,1.5,3.3,3.3
				C10368.8,656.1,10367.5,657.7,10365.5,657.7z M10365.5,652.1c-1.4,0-2.2,1-2.2,2.3c0,1.2,0.8,2.3,2.2,2.3s2.2-1.1,2.2-2.3
				C10367.7,653.1,10366.9,652.1,10365.5,652.1z M10364.9,664.3h-1.3l10-13.1h1.3L10364.9,664.3z M10373.1,664.5
				c-2.1,0-3.3-1.5-3.3-3.3c0-1.8,1.3-3.3,3.3-3.3c2,0,3.3,1.5,3.3,3.3C10376.4,663,10375.1,664.5,10373.1,664.5z M10373.1,658.9
				c-1.4,0-2.2,1.1-2.2,2.3c0,1.3,0.8,2.3,2.2,2.3s2.2-1,2.2-2.3C10375.3,660,10374.5,658.9,10373.1,658.9z"/>
		</g>
	</g>
	<g id="Group_339">
		<path id="Intersection_34" class="st4" d="M10436.4,639l-0.4-0.5v-121c68.7,0,124.6,54.1,126.5,121.5H10436.4z"/>
		<path id="Intersection_33" class="st5" d="M10448,656.5V656h126.4c0.1,1.5,0.1,3,0.1,4.5c0,39.3-18.7,76.3-50.2,99.7L10448,656.5z
			"/>
		<g class="st0">
			<path class="st3" d="M10473.9,589v-1.4c2.8-2.1,5.3-3.6,5.3-5.2c0-0.9-0.7-1.6-1.9-1.6c-1,0-1.9,0.4-2.8,1.1l-0.6-1.4
				c0.9-0.7,2.1-1.3,3.6-1.3c2,0,3.5,1.2,3.5,2.9c0,2.2-2,3.4-4.6,5.3h5v1.6H10473.9z"/>
			<path class="st3" d="M10486.1,584.6c2.6,0,4.3,1.5,4.3,3.8c0,2.6-2,4.3-4.4,4.3c-1.3,0-2.7-0.4-3.5-0.9l0.3-1.6
				c0.8,0.4,2,0.9,3.2,0.9c1.6,0,2.7-1,2.7-2.7c0-1.3-1-2.5-2.8-2.5c-1.2,0-1.7,0.1-2.5,0.3l-0.4-0.4l0.8-6.4h6.2l0.1,1.6h-5
				l-0.5,3.5C10485.1,584.7,10485.4,584.6,10486.1,584.6z"/>
			<path class="st3" d="M10494.3,582.7c-2,0-3.3-1.5-3.3-3.3c0-1.8,1.3-3.3,3.3-3.3c2.1,0,3.3,1.5,3.3,3.3
				C10497.6,581.1,10496.4,582.7,10494.3,582.7z M10494.3,577.1c-1.4,0-2.2,1-2.2,2.3c0,1.2,0.8,2.3,2.2,2.3s2.2-1.1,2.2-2.3
				C10496.6,578.1,10495.7,577.1,10494.3,577.1z M10493.8,589.3h-1.3l10-13.1h1.3L10493.8,589.3z M10501.9,589.5
				c-2.1,0-3.3-1.5-3.3-3.3c0-1.8,1.3-3.3,3.3-3.3c2,0,3.3,1.5,3.3,3.3C10505.2,588,10504,589.5,10501.9,589.5z M10501.9,583.9
				c-1.4,0-2.2,1.1-2.2,2.3c0,1.3,0.8,2.3,2.2,2.3s2.2-1,2.2-2.3C10504.2,585,10503.3,583.9,10501.9,583.9z"/>
		</g>
		<g class="st0">
			<path class="st3" d="M10509.2,688.3l-2.3,0.7l-0.1-1.5l4-1.3v9.8h-1.6V688.3z"/>
			<path class="st3" d="M10516.8,691.6c2.6,0,4.3,1.5,4.3,3.8c0,2.6-2,4.3-4.4,4.3c-1.3,0-2.7-0.4-3.5-0.9l0.3-1.6
				c0.8,0.4,2,0.9,3.2,0.9c1.6,0,2.7-1,2.7-2.7c0-1.3-1-2.5-2.8-2.5c-1.2,0-1.7,0.1-2.5,0.3l-0.4-0.4l0.8-6.4h6.2l0.1,1.6h-5
				l-0.5,3.5C10515.8,691.7,10516.1,691.6,10516.8,691.6z"/>
			<path class="st3" d="M10525,689.7c-2,0-3.3-1.5-3.3-3.3c0-1.8,1.3-3.3,3.3-3.3c2.1,0,3.3,1.5,3.3,3.3
				C10528.4,688.1,10527.1,689.7,10525,689.7z M10525,684.1c-1.4,0-2.2,1-2.2,2.3c0,1.2,0.8,2.3,2.2,2.3c1.4,0,2.2-1.1,2.2-2.3
				C10527.3,685.1,10526.4,684.1,10525,684.1z M10524.5,696.3h-1.3l10-13.1h1.3L10524.5,696.3z M10532.6,696.5
				c-2.1,0-3.3-1.5-3.3-3.3c0-1.8,1.3-3.3,3.3-3.3c2,0,3.3,1.5,3.3,3.3C10536,695,10534.7,696.5,10532.6,696.5z M10532.6,690.9
				c-1.4,0-2.2,1.1-2.2,2.3c0,1.3,0.8,2.3,2.2,2.3c1.4,0,2.2-1,2.2-2.3C10534.9,692,10534,690.9,10532.6,690.9z"/>
		</g>
	</g>
	<g class="st0">
		<path class="st5" d="M10538.7,798.3c0.2,0,0.3,0.1,0.3,0.3v3.5c0,0.4-0.1,0.7-0.4,1c-0.3,0.3-0.6,0.4-1,0.4h-0.1h-13.2h-0.1
			c-0.4,0-0.7-0.1-1-0.4c-0.3-0.3-0.4-0.6-0.4-1v-18.4c0-0.4,0.1-0.7,0.4-1c0.3-0.3,0.6-0.4,1-0.4h3.8v-0.9v-0.1
			c0-0.3,0.1-0.4,0.4-0.4h4.8c0.3,0,0.4,0.1,0.4,0.4v0.9h3.8c0.4,0,0.7,0.1,1,0.4c0.3,0.3,0.4,0.6,0.4,1v3.5c0,0.2-0.1,0.4-0.3,0.4
			h-2c-0.2,0-0.3-0.1-0.3-0.4v-2.2h-1.3v0.8c0,0.3-0.2,0.5-0.5,0.5h-7.3c-0.3,0-0.5-0.2-0.5-0.5v-0.1v-0.8h-1.3v15.9h10.8v-2.3
			c0-0.2,0.1-0.3,0.3-0.3H10538.7z M10542.9,790.4c0,0.1,0.1,0.2,0.1,0.3s0,0.2-0.1,0.2l-5.9,5.9l-3,0.8c-0.1,0.1-0.2,0-0.4-0.1
			c-0.1-0.1-0.1-0.2-0.1-0.3l0.8-3l5.8-5.9c0.2-0.1,0.3-0.1,0.5,0L10542.9,790.4z M10534.5,796.6l1.8-0.5l-1.3-1.3L10534.5,796.6z"
			/>
	</g>
	<g class="st0">
		<path class="st4" d="M10544.2,486.1c0.1,0,0.3,0.1,0.4,0.2c0.1,0.1,0.2,0.3,0.2,0.4v1.4c0,0.2-0.1,0.3-0.2,0.5l-0.9,0.9
			c-0.1,0.1-0.2,0.2-0.4,0.2h-21.8c-0.1,0-0.3-0.1-0.4-0.2l-0.9-0.9c-0.1-0.1-0.2-0.2-0.2-0.4v-1.4c0-0.1,0.1-0.3,0.2-0.4
			c0.1-0.1,0.3-0.2,0.4-0.2H10544.2z M10523,484.9c-0.3,0-0.6-0.1-0.9-0.4c-0.3-0.3-0.4-0.6-0.4-0.9v-11.5c0-0.3,0.1-0.6,0.4-0.9
			s0.6-0.4,0.9-0.4h18.7c0.3,0,0.6,0.1,0.9,0.4c0.3,0.2,0.4,0.5,0.4,0.9v11.5c0,0.4-0.1,0.7-0.4,0.9s-0.6,0.4-0.9,0.4H10523z
			 M10524.3,473.4v8.9h16.1v-8.9H10524.3z M10534.6,488.2v-0.6c0-0.1,0-0.1-0.1-0.1h-4.3c-0.1,0-0.2,0-0.2,0.1v0.6
			c0,0.1,0.1,0.2,0.2,0.2h4.3C10534.6,488.4,10534.6,488.3,10534.6,488.2z"/>
	</g>
	<g class="st0">
		<path class="st2" d="M10293.6,474.6c0.1,0.2,0,0.4-0.2,0.6l-5.7,4.6l2.5,7.2c0.1,0.2,0,0.4-0.2,0.6c-0.1,0.1-0.2,0.2-0.3,0.2
			c-0.1,0-0.2,0-0.3-0.1l-6.7-4l-6.7,4c-0.2,0.1-0.4,0.1-0.6-0.1c-0.2-0.2-0.2-0.4-0.2-0.6l2.5-7.2l-5.7-4.6
			c-0.2-0.2-0.2-0.4-0.2-0.6c0.1-0.2,0.2-0.4,0.5-0.4h7.3l2.5-7.1c0.1-0.2,0.2-0.4,0.5-0.4c0.3,0,0.4,0.1,0.5,0.4l2.5,7.1h7.3
			C10293.4,474.3,10293.6,474.4,10293.6,474.6z"/>
	</g>
	<path id="Path_899" class="st6" d="M10313.5,504v14.2l22.6,22.6"/>
	<path id="Path_915" class="st7" d="M10587.1,768.8v-14.2l-22.6-22.6"/>
	<path id="Path_900" class="st8" d="M10532,504.5v9.7l-17.3,17.3"/>
</g>
</svg>
