<?xml version="1.0" encoding="utf-8"?>
<!-- Generator: Adobe Illustrator 21.1.0, SVG Export Plug-In . SVG Version: 6.00 Build 0)  -->
<svg version="1.1" id="Layer_1" xmlns="http://www.w3.org/2000/svg" xmlns:xlink="http://www.w3.org/1999/xlink" x="0px" y="0px"
	 viewBox="0 0 102.75 29.5" enable-background="new 0 0 102.75 29.5" xml:space="preserve">
<polygon fill="#FFFFFF" points="19.65,1.916 1.875,1.916 1.158,10.155 1.097,12.755 6.508,22.572 12.162,27.76 18.22,22.239 
	20.791,13.008 "/>
<g>
	<path fill="#FFFFFF" d="M11.895,1.51v11.245H1.097c0.015,0.089,0.033,0.179,0.048,0.267h10.75v13.442v1.295
		c0.046,0.025,0.087,0.053,0.133,0.078c0.046-0.025,0.088-0.053,0.134-0.078v-1.295V1.51H11.895z"/>
	<path fill="#FFFFFF" d="M6.471,3.581l0.005,0.313C6.685,3.724,6.989,3.59,7.232,3.542C7.098,4.143,6.802,4.295,6.479,4.35
		L6.468,4.857C6.73,4.646,7.126,4.362,7.429,4.299c-0.171,0.767-0.54,1.045-0.949,1.103v0.499C6.806,5.69,7.321,5.32,7.699,5.258
		C7.483,6.034,7.002,6.341,6.481,6.389l0.002,0.46c0.326-0.212,0.838-0.542,1.216-0.602C7.491,6.997,6.985,7.452,6.484,7.521V7.91
		C6.812,7.7,7.321,7.369,7.699,7.308c-0.198,0.786-0.698,1.21-1.22,1.255v0.318c0.393-0.233,1.036-0.638,1.489-0.704
		C7.71,9.02,7.1,9.478,6.479,9.536V9.9c0.21-0.169,0.653-0.352,0.896-0.398c-0.129,0.573-0.591,0.771-0.898,0.848l-0.002,0.68
		c0.073-0.002,0.143-0.015,0.217-0.023c-0.022-0.236,0.117-0.478,0.424-0.674c0.013,0.181-0.09,0.445-0.149,0.623
		c0.165-0.038,0.33-0.083,0.493-0.152c-0.088-0.345,0.027-0.817,0.422-1.218c0.074,0.267,0.004,0.701-0.03,0.989
		c0.174-0.106,0.35-0.222,0.519-0.369C8.18,9.877,8.215,9.37,8.584,8.861c0.109,0.25,0.114,0.733,0.117,1.024
		c0.15-0.159,0.312-0.338,0.455-0.532c-0.26-0.317-0.27-0.623,0.042-1.241c0.108,0.25,0.206,0.625,0.21,0.917
		c0.135-0.174,0.23-0.318,0.345-0.526C9.685,8.341,9.717,8.22,9.799,8.117c0.115-0.144,0.287-0.267,0.441-0.173
		c0.214,0.098,0.106,0.334,0.032,0.506c-0.054,0.122-0.145,0.205-0.305,0.2c-0.11,0.196-0.266,0.411-0.4,0.583
		c0.311,0.099,0.533,0.172,0.743,0.387C9.848,9.81,9.573,9.765,9.344,9.574C9.195,9.771,8.977,9.987,8.822,10.15
		c0.303,0.093,0.502,0.178,0.75,0.429c-0.502,0.208-0.873,0.144-1.097-0.094C8.3,10.634,8.132,10.79,7.952,10.896
		c0.297,0.151,0.513,0.312,0.692,0.558c-0.571,0.132-0.948-0.031-1.115-0.351c-0.171,0.068-0.329,0.126-0.499,0.159
		c0.163,0.14,0.273,0.247,0.356,0.431c-0.392-0.01-0.615-0.102-0.673-0.343c-0.079,0.008-0.159,0.061-0.237,0.06v0.766L5.995,11.96
		v-0.561c-0.049-0.006-0.163-0.045-0.21-0.053c-0.069,0.229-0.241,0.317-0.617,0.324c0.081-0.185,0.127-0.317,0.317-0.415
		c-0.174-0.045-0.337-0.129-0.508-0.208c-0.149,0.356-0.488,0.505-1.09,0.366c0.177-0.247,0.4-0.47,0.702-0.572
		c-0.154-0.098-0.297-0.192-0.449-0.34c-0.219,0.247-0.595,0.331-1.107,0.117c0.21-0.214,0.418-0.385,0.738-0.445
		c-0.161-0.159-0.309-0.352-0.462-0.547C3.078,9.829,2.731,9.894,2.261,9.696c0.211-0.214,0.452-0.44,0.753-0.438
		c-0.092-0.132-0.174-0.282-0.27-0.435c-0.1-0.002-0.186,0-0.289-0.13C2.345,8.553,2.238,8.245,2.425,8.148
		c0.114-0.1,0.38,0.046,0.468,0.206c0.081,0.148,0.052,0.234,0.022,0.338c0.094,0.146,0.2,0.293,0.295,0.424
		C3.144,8.693,3.265,8.343,3.375,8.094C3.753,8.62,3.682,9.074,3.472,9.398c0.158,0.194,0.289,0.34,0.445,0.498
		C3.873,9.6,3.908,9.152,4.017,8.9c0.353,0.488,0.401,0.987,0.239,1.315c0.148,0.124,0.288,0.243,0.434,0.336
		C4.61,10.273,4.574,9.81,4.647,9.543c0.399,0.406,0.521,0.864,0.429,1.211c0.169,0.078,0.334,0.144,0.504,0.185
		c-0.081-0.165-0.159-0.448-0.145-0.628c0.3,0.191,0.375,0.412,0.364,0.646c0.046,0.005,0.173,0.064,0.219,0.064l-0.01-0.671
		c-0.295-0.076-0.739-0.246-0.884-0.815C5.4,9.598,5.751,9.665,6.008,9.892V9.537C5.412,9.489,4.811,9.065,4.515,8.221
		c0.517,0.09,1.017,0.336,1.494,0.648V8.557C5.488,8.519,4.995,8.036,4.777,7.35c0.431,0.08,0.832,0.275,1.231,0.56V7.518
		c-0.487-0.054-0.99-0.469-1.231-1.23C5.208,6.37,5.609,6.554,6.008,6.839v-0.44C5.504,6.364,5.028,6.082,4.777,5.3
		c0.431,0.08,0.832,0.307,1.231,0.592v-0.49c-0.396-0.045-0.771-0.289-0.97-1.061c0.346,0.081,0.651,0.228,0.97,0.514V4.347
		C5.703,4.293,5.42,4.17,5.268,3.574c0.208,0.048,0.46,0.06,0.743,0.312L6.005,3.581C5.774,3.236,5.826,3.085,5.853,2.812
		C5.878,2.564,5.971,2.38,6.238,2.368C6.504,2.38,6.596,2.564,6.623,2.812C6.652,3.085,6.702,3.236,6.471,3.581"/>
	<path fill="#FFFFFF" d="M17.735,9.796c0.16-1.907,0.451-2.436,0.93-2.836l0.041-0.033l-0.179-1.172l-0.092,0.016
		c-0.256,0.042-0.493,0.288-0.652,0.505l-0.002-1.106l-1.292-0.764l0.001,0.659c-0.138-0.139-0.267-0.248-0.317-0.285
		c-0.146-0.107-0.275-0.157-0.406-0.157c-0.077,0-0.145,0.017-0.206,0.032c-0.102,0.026-0.172,0.049-0.32-0.015
		c-0.65-0.132-1.153,0.013-1.432,0.405c-0.261,0.369-0.304,0.938-0.11,1.486c0.159,0.444,0.456,0.898,0.677,1.198
		c0.128,0.177,1.26,1.37,1.521,1.638c0.189,0.191,0.392,0.381,0.598,0.568l0,0.507l-0.326-0.222l-0.323,0.746l0.068,0.043
		c0.287,0.178,0.571,0.642,0.764,3.063c-0.7,0.257-1.641,1.095-1.667,1.962c-0.011,0.4,0.179,0.959,1.165,1.346
		c0.213,0.082,0.445,0.172,0.674,0.266c0.012,0.441,0.023,0.914,0.032,1.416c-0.177,0.066-0.585,0.281-0.657,0.609
		c-0.058,0.26,0.102,0.514,0.474,0.752c0.065,0.041,0.135,0.066,0.204,0.086c0.001,0.129,0.002,0.262,0.004,0.392
		c-0.216,0.102-0.295,0.152-0.428,0.303c-0.067,0.076-0.129,0.158-0.092,0.234c0.008,0.021,0.037,0.068,0.114,0.068
		c0.051,0,0.125-0.023,0.264-0.08c0.079-0.031,0.129-0.045,0.164-0.053c0.06,0.141,0.19,0.234,0.336,0.234
		c0.158,0,0.287-0.109,0.324-0.289c0-0.053,0-0.103-0.001-0.156c0.176-0.088,0.289-0.244,0.296-0.44
		c0.009-0.223-0.109-0.439-0.303-0.584c-0.001-0.189-0.002-0.371-0.003-0.555c0.656-0.133,1.354-0.557,1.417-1.127
		c0.038-0.34-0.145-0.84-1.232-1.279c-0.067-0.027-0.129-0.053-0.194-0.078c-0.001-0.893,0.001-1.699,0.007-2.434
		c1.166-0.584,1.961-1.127,2.062-1.856C19.743,12.052,19.113,11.155,17.735,9.796z M15.756,4.879
		c0.031-0.038,0.12-0.036,0.177,0.018c0.032,0.028,0.051,0.068,0.053,0.105c0.001,0.028-0.006,0.054-0.024,0.073
		c-0.018,0.02-0.044,0.03-0.073,0.03c-0.037,0-0.076-0.019-0.107-0.047c-0.032-0.029-0.052-0.07-0.053-0.108
		C15.728,4.922,15.739,4.897,15.756,4.879z M15.472,5.43c0.028-0.053,0.109-0.066,0.179-0.03c0.069,0.036,0.101,0.106,0.076,0.164
		c-0.02,0.035-0.055,0.053-0.098,0.053c-0.027,0-0.055-0.008-0.082-0.021c-0.04-0.022-0.069-0.056-0.081-0.092
		C15.458,5.478,15.46,5.452,15.472,5.43z M16.104,8.268c-1.761-1.596-1.835-2.323-1.723-2.615c0.103-0.267,0.412-0.339,0.578-0.339
		c0.045,0,0.078,0.006,0.096,0.01c0.057,0.013,0.059,0.023,0.077,0.095c0.028,0.111,0.069,0.282,0.408,0.393
		c0.416,0.138,0.728,0.211,0.951,0.222l0.003,2.593C16.363,8.506,16.243,8.394,16.104,8.268z M18.206,18.504
		c-0.003,0.076-0.099,0.223-0.63,0.389c-0.001-0.314-0.003-0.623-0.003-0.92C17.946,18.16,18.214,18.348,18.206,18.504z
		 M17.595,5.277l0,0.773l-0.469-0.124l-0.211-0.108c0.028-0.155-0.087-0.357-0.24-0.544l0-0.541L17.595,5.277z M15.905,16.06
		c-0.027-0.232,0.229-0.533,0.842-0.99c0.029,0.502,0.055,1.07,0.077,1.709C16.292,16.529,15.935,16.297,15.905,16.06z
		 M17.04,17.729c0.121,0.051,0.236,0.102,0.347,0.154c0.001,0.344,0.002,0.697,0.004,1.065l-0.004,0.002v0.672h0.008
		c0,0.135,0.001,0.27,0.002,0.408c-0.094-0.041-0.271-0.147-0.316-0.289C17.071,19.008,17.057,18.342,17.04,17.729z M17.268,21.422
		c-0.057,0-0.129-0.033-0.167-0.117L17.1,21.279c-0.002-0.248-0.004-0.486-0.007-0.721c0.195,0.045,0.307,0.084,0.304,0.344v0.34
		l0.01-0.004c0,0.021,0,0.043,0,0.064C17.383,21.412,17.294,21.422,17.268,21.422z M17.385,17.025
		c-0.13-0.055-0.253-0.107-0.371-0.16c-0.179-5.174-0.579-5.732-0.932-5.97l0.17-0.393l0.432,0.294l-0.001-0.691
		c0.08,0.072,0.16,0.146,0.239,0.216c0.191,0.171,0.378,0.34,0.557,0.506C17.409,12.254,17.382,14.232,17.385,17.025z M17.56,9.628
		c-0.267-0.259-0.561-0.536-0.879-0.83l-0.003-2.772c0.062-0.011,0.104-0.036,0.141-0.065l0.212,0.104l0.277,0.441l0.086-0.027
		l-0.017-0.28l0.219-0.045L17.596,6.6l0.177,0.041c0.095-0.192,0.353-0.549,0.601-0.659l0.132,0.871
		C18.02,7.271,17.725,7.811,17.56,9.628z M17.588,13.689c0.014-1.068,0.038-1.951,0.072-2.692c0.629,0.604,1.094,1.174,1.01,1.686
		C18.609,13.056,18.246,13.385,17.588,13.689z"/>
	<path fill="#FFFFFF" d="M9.219,17.379l-0.002-2.395H4.97v4.248h1.312v2.395h4.247v-4.248H9.219z M7.962,15.523h0.696v1.779H7.962
		V15.523z M8.676,19.232v0.541h-0.54v-0.541H8.676z M5.606,15.523h1.777v0.697H5.606V15.523z M6.281,18.691H5.586v-1.777h0.695
		V18.691z M6.823,16.838h0.539v0.541H6.823V16.838z M6.88,17.996h1.778v0.695H6.88V17.996z M7.595,21.008H6.9v-1.775h0.695V21.008z
		 M9.893,20.99H8.115v-0.697h1.777V20.99z M9.913,19.754H9.217v-1.777h0.695V19.754z"/>
</g>
<g>
	<g>
		<path fill="#231F20" d="M48.45,15.066c-2.553,0-2.75-1.938-2.75-2.533c0-0.699,0.188-1.935,1.814-2.533
			c1.679-0.617,2.038-0.689,3.193-1.052V8.649c0-0.56,0-0.696-0.111-1.043c-0.223-0.666-0.861-1.084-1.728-1.084
			c-1.274,0-1.797,0.973-1.801,0.982l-0.102,0.19l-0.473-0.281l0.047-0.146c0.23-0.733,1.155-1.979,3.177-1.979
			c1.313,0,2.169,0.373,2.699,1.178c0.394,0.639,0.426,1.521,0.426,2.444c0,0.811-0.02,1.714-0.037,2.442
			c-0.012,0.5-0.021,0.934-0.021,1.197c0,0.666,0.105,1.182,0.66,1.182c0.138,0,0.232-0.029,0.308-0.094l0.152-0.129l0.31,0.354
			l-0.104,0.133c-0.51,0.615-0.995,1.049-1.86,1.049c-0.749,0-1.268-0.356-1.443-0.953C50.392,14.526,49.635,15.066,48.45,15.066z
			 M50.708,10.112c-1.255,0.377-1.681,0.587-2.069,0.783c-0.54,0.273-0.821,0.828-0.821,1.479c0,0.51,0.182,1.364,1.405,1.364
			c0.404,0,0.981-0.074,1.485-0.436V10.112z"/>
	</g>
	<g>
		<g>
			<path fill="#231F20" d="M32.852,15.042c-1.222,0-2.152-0.134-3.107-0.445l-0.138-0.045v-0.685c0-0.911-0.019-1.269-0.039-1.56
				l-0.027-0.474l0.556,0.001l0.012,0.198c0.023,0.425,0.166,0.843,0.426,1.136c0.4,0.453,1.323,0.727,2.18,0.727
				c1.796,0,2.631-0.68,2.631-2.139c0-1.25-0.772-1.769-1.839-2.49l-0.171-0.117l-1.127-0.75c-1.566-1.038-2.363-1.869-2.363-3.529
				c0-0.813,0.307-3.463,4.255-3.463c1.62,0,2.869,0.213,2.922,0.221l0.17,0.03l-0.006,0.167c0,0.005-0.014,0.52-0.014,1.078
				c0,0.439-0.008,0.822,0.008,1.218l0.016,0.295h-0.479l-0.012-0.185c-0.035-0.502-0.182-0.862-0.457-1.139
				c-0.38-0.381-1.22-0.559-2.109-0.559c-2.092,0-2.336,1.076-2.336,1.882c0,1.11,0.569,1.486,1.813,2.308l1.427,0.945
				c1.216,0.811,2.361,1.576,2.361,3.592C37.403,14.673,34.221,15.042,32.852,15.042z"/>
		</g>
		<g>
			<path fill="#231F20" d="M42.206,15.102c-1.457,0-2.264-0.52-2.622-1.683c-0.149-0.463-0.149-1.374-0.149-1.92
				c0-1.505,0.014-2.713,0.029-4.111l0.008-0.656h-1.243v-0.37l0.121-0.05c0.579-0.239,0.8-0.402,1.056-0.6
				c0.905-0.702,1.534-1.889,1.544-1.906l0.212-0.359h0.41v2.117h3.208v1.168h-3.208v4.945c0,1.477,0.275,2.32,1.675,2.32
				c0.649,0,1.149-0.252,1.153-0.256l0.193-0.1l0.165,0.383l-0.081,0.092C44.644,14.153,43.918,15.102,42.206,15.102z"/>
		</g>
		<g>
			<path fill="#231F20" d="M55.019,14.983v-0.447l0.182-0.014c0.158-0.014,0.557-0.076,0.835-0.391
				c0.291-0.324,0.309-1.128,0.309-2.732V8.708c0-1.158-0.018-1.654-0.186-1.906c-0.192-0.277-0.618-0.307-0.845-0.323
				c-0.029-0.001-0.055-0.005-0.078-0.006l-0.18-0.019V5.915l0.213,0.017c0.037,0.005,0.084,0.005,0.144,0.005
				c0.291,0,0.978-0.039,1.702-0.18c0.554-0.088,0.876-0.279,0.993-0.334l0.107-0.05l0.186,0.11v0.748
				c0.476-0.352,1.431-0.905,2.729-0.905c1.697,0,2.807,0.794,3.123,2.233c0.09,0.357,0.123,1.224,0.123,1.686v2.748
				c0,1.555,0.06,1.991,0.351,2.264c0.147,0.135,0.457,0.246,0.729,0.264l0.186,0.014v0.439l-0.467-0.024
				c-0.676-0.034-1.258-0.065-1.869-0.065c-0.695,0-1.297,0-2.137,0.078l-0.219,0.022v-0.436l0.17-0.024
				c0.365-0.057,0.619-0.16,0.781-0.321c0.305-0.306,0.32-1.029,0.344-1.655c0.004-0.104,0.008-0.213,0.014-0.326
				c0.017-0.352,0.017-1.092,0.017-1.633c0-0.705,0-1.434-0.076-2.153c-0.141-1.218-0.775-1.784-2-1.784
				c-0.84,0-1.365,0.192-1.763,0.397v4.945c0,1.555,0.064,1.991,0.355,2.264c0.148,0.135,0.455,0.246,0.728,0.264l0.185,0.014v0.439
				l-0.501-0.025c-0.652-0.034-1.218-0.064-1.812-0.064c-0.681,0-1.319,0-2.162,0.078L55.019,14.983z"/>
		</g>
		<g>
			<path fill="#231F20" d="M66.764,14.983v-0.457l0.184-0.014c0.16-0.012,0.559-0.074,0.836-0.388
				c0.293-0.325,0.307-1.121,0.307-2.726V6.731h-1.227V6.203l0.123-0.052c0.533-0.22,0.861-0.395,1.104-0.583
				c0.002-0.835,0.027-1.911,0.141-2.497c0.373-1.943,1.643-2.93,3.779-2.93c0.916,0,1.791,0.306,2.299,0.718l0.072,0.059l0.029,0.2
				l-0.936,1.299L73.25,2.419l-0.051-0.117c-0.357-0.799-0.877-1.111-1.586-1.111c-0.295,0-0.699,0.088-0.949,0.339
				c-0.408,0.406-0.477,1.013-0.477,2.214v1.82h2.098v1.168h-2.098v5.223c0,1.243,0.041,1.849,0.203,2.092
				c0.264,0.396,1.064,0.427,1.301,0.427h0.199v0.501l-0.209-0.012c-1.037-0.054-1.809-0.078-2.365-0.078
				c-0.699,0-1.494,0-2.336,0.078L66.764,14.983z"/>
		</g>
		<g>
			<path fill="#231F20" d="M77.594,15.142c-2.873,0-4.59-1.791-4.59-4.789c0-2.328,1.254-5.047,4.789-5.047
				c2.875,0,4.592,1.791,4.592,4.788C82.385,12.423,81.131,15.142,77.594,15.142z M77.713,6.394c-0.555,0-1.004,0.143-1.332,0.428
				c-0.758,0.634-1.141,1.789-1.141,3.431c0,0.635,0.117,3.802,2.436,3.802c0.553,0,1.004-0.146,1.336-0.428
				c0.754-0.634,1.137-1.789,1.137-3.432C80.148,9.56,80.031,6.394,77.713,6.394z"/>
		</g>
		<g>
			<path fill="#231F20" d="M83.293,14.983v-0.477l0.184-0.016c0.16-0.01,0.563-0.072,0.838-0.389
				c0.293-0.324,0.305-1.099,0.305-2.703V8.708c0-1.158-0.016-1.654-0.182-1.906c-0.193-0.277-0.617-0.307-0.846-0.323
				c-0.027-0.001-0.055-0.005-0.074-0.006l-0.184-0.019v-0.57l0.203,0.004c0.035,0.003,0.096,0.004,0.154,0.004
				c0.293,0,0.979-0.036,1.701-0.178c0.457-0.076,0.852-0.193,1.01-0.269l0.109-0.049l0.166,0.087v0.818
				c0.451-0.426,1.166-0.877,2.178-0.877c0.658,0,1.189,0.176,1.576,0.524l0.064,0.06v0.297l-0.793,1.453h-0.381l-0.059-0.092
				c-0.221-0.346-0.662-0.758-1.518-0.758c-0.391,0-0.729,0.098-1.027,0.299v4.746c0,1.243,0.041,1.83,0.203,2.072
				c0.266,0.395,1.063,0.426,1.299,0.426h0.197v0.522l-0.207-0.012c-1.035-0.054-1.809-0.078-2.365-0.078
				c-0.699,0-1.492,0-2.334,0.078L83.293,14.983z"/>
		</g>
		<g>
			<path fill="#231F20" d="M98.098,15.114l-0.252-0.084v-0.793c-0.467,0.346-1.393,0.883-2.631,0.883
				c-2.586,0-4.258-1.793-4.258-4.57c0-0.921,0.182-1.797,0.516-2.535c0.787-1.709,2.428-2.688,4.492-2.688
				c0.758,0,1.436,0.094,1.84,0.181V3.505c0-1.174-0.016-1.799-0.184-2.052c-0.191-0.274-0.604-0.306-0.826-0.322
				c-0.029-0.001-0.055-0.003-0.076-0.006l-0.178-0.018l0.041-0.423h0.199c0.045,0,1.133-0.09,2.018-0.264
				c0.371-0.06,0.738-0.144,0.93-0.214l0.094-0.035l0.162,0.097L99.977,0.36c-0.063,0.776-0.072,2.436-0.072,3.679v7.678
				c0,1.148,0.016,1.857,0.182,2.086c0.195,0.28,0.605,0.327,0.828,0.345c0.029,0.001,0.057,0.002,0.078,0.006l0.178,0.007v0.506
				h-0.197c-0.211,0-1.033,0.058-1.828,0.194c-0.457,0.074-0.795,0.141-0.961,0.217L98.098,15.114z M95.924,6.454
				c-1.834,0-2.73,1.256-2.73,3.839c0,1.047,0.297,3.481,3.031,3.481h0.088c0.332,0,0.951-0.049,1.492-0.384V7.084
				C97.65,6.932,97.08,6.454,95.924,6.454z"/>
		</g>
	</g>
</g>
<g>
	<g>
		<path fill="#231F20" d="M30.536,19.085h1.535l1.416,3.862l0.516,1.486h0.048l0.504-1.486l1.391-3.862h1.535v7.844h-1.307v-3.586
			c0-0.732,0.107-1.774,0.18-2.495h-0.048l-0.636,1.787l-1.355,3.563h-0.647l-1.356-3.563l-0.624-1.787H31.64
			c0.072,0.721,0.18,1.764,0.18,2.495v3.586h-1.283V19.085z"/>
		<path fill="#231F20" d="M42.476,19.085h4.726v1.175h-3.334v2.004h2.818v1.175h-2.818v2.315h3.454v1.175h-4.846V19.085z"/>
		<path fill="#231F20" d="M51.932,19.085h2.1c2.398,0,3.813,1.296,3.813,3.886c0,2.603-1.415,3.958-3.742,3.958h-2.171V19.085z
			 M53.935,25.801c1.583,0,2.483-0.899,2.483-2.83c0-1.919-0.9-2.758-2.483-2.758h-0.611v5.588H53.935z"/>
		<path fill="#231F20" d="M62.432,19.085h1.392v7.844h-1.392V19.085z"/>
		<path fill="#231F20" d="M72.031,18.941c0.947,0,1.738,0.467,2.23,0.995l-0.779,0.864c-0.396-0.396-0.84-0.649-1.439-0.649
			c-1.295,0-2.207,1.08-2.207,2.843c0,1.786,0.84,2.866,2.159,2.866c0.695,0,1.199-0.288,1.643-0.779l0.78,0.852
			c-0.636,0.731-1.464,1.139-2.447,1.139c-2.003,0-3.562-1.44-3.562-4.041C68.409,20.465,70.016,18.941,72.031,18.941z"/>
		<path fill="#231F20" d="M78.727,19.085h1.392v7.844h-1.392V19.085z"/>
		<path fill="#231F20" d="M85.112,19.085h1.428l2.446,4.413l0.804,1.668h0.048c-0.06-0.804-0.18-1.799-0.18-2.675v-3.406h1.331
			v7.844h-1.427l-2.447-4.413l-0.804-1.668h-0.048c0.061,0.828,0.181,1.775,0.181,2.65v3.431h-1.332V19.085z"/>
		<path fill="#231F20" d="M95.983,19.085h4.726v1.175h-3.334v2.004h2.818v1.175h-2.818v2.315h3.454v1.175h-4.846V19.085z"/>
	</g>
</g>
<path fill="#A61D38" d="M15.582,5.54c0.045,0.024,0.098,0.021,0.114-0.01c0.016-0.031-0.006-0.08-0.054-0.103
	c-0.048-0.025-0.1-0.022-0.117,0.011C15.509,5.469,15.534,5.515,15.582,5.54"/>
<path fill="#A61D38" d="M15.828,5.009c0.038,0.037,0.089,0.044,0.114,0.018c0.024-0.026,0.013-0.076-0.026-0.111
	c-0.04-0.037-0.091-0.045-0.114-0.018C15.777,4.922,15.789,4.974,15.828,5.009"/>
<g>
	<path fill="#231F20" d="M16.929,5.803l0.211,0.109l0.469,0.124l-0.001-0.773l-0.919-0.543l0,0.541
		C16.842,5.446,16.957,5.648,16.929,5.803z"/>
	<path fill="#231F20" d="M18.22,18.489c0.008-0.156-0.26-0.343-0.633-0.532c0,0.299,0.002,0.605,0.003,0.92
		C18.121,18.712,18.216,18.565,18.22,18.489z"/>
	<path fill="#231F20" d="M15.918,16.045c0.029,0.237,0.387,0.47,0.919,0.719c-0.022-0.638-0.049-1.207-0.077-1.709
		C16.147,15.512,15.891,15.814,15.918,16.045z"/>
	<path fill="#231F20" d="M17.412,20.014c-0.001-0.139-0.002-0.273-0.002-0.408L17.4,19.607v-0.674l0.005-0.001
		c-0.002-0.366-0.003-0.722-0.005-1.065c-0.111-0.052-0.226-0.104-0.347-0.154c0.017,0.613,0.031,1.28,0.042,2.012
		C17.14,19.867,17.317,19.975,17.412,20.014z"/>
	<path fill="#231F20" d="M15.553,5.797c-0.338-0.111-0.379-0.281-0.408-0.394c-0.018-0.071-0.02-0.081-0.077-0.094
		c-0.019-0.004-0.051-0.01-0.096-0.01c-0.166,0-0.475,0.072-0.578,0.339c-0.112,0.292-0.038,1.019,1.723,2.615
		c0.139,0.127,0.259,0.238,0.39,0.358l-0.003-2.593C16.28,6.008,15.969,5.935,15.553,5.797z"/>
	<path fill="#231F20" d="M15.642,5.602c0.042,0,0.078-0.018,0.098-0.053c0.026-0.057-0.006-0.128-0.075-0.164
		c-0.07-0.036-0.15-0.023-0.179,0.03c-0.012,0.022-0.014,0.048-0.006,0.075c0.012,0.036,0.041,0.07,0.081,0.091
		C15.586,5.595,15.614,5.602,15.642,5.602z"/>
	<path fill="#231F20" d="M15.902,5.09c0.029,0,0.055-0.011,0.073-0.03C15.994,5.041,16.001,5.015,16,4.987
		c-0.002-0.037-0.021-0.077-0.053-0.105c-0.058-0.054-0.146-0.056-0.178-0.018c-0.018,0.018-0.028,0.043-0.026,0.07
		c0.001,0.038,0.021,0.079,0.053,0.108C15.826,5.072,15.865,5.09,15.902,5.09z"/>
	<path fill="#231F20" d="M17.41,21.227v-0.34c0.003-0.258-0.108-0.299-0.303-0.344c0.003,0.235,0.005,0.475,0.007,0.721l0.001,0.025
		c0.037,0.086,0.11,0.117,0.167,0.117c0.027,0,0.115-0.009,0.14-0.119c0-0.021,0-0.041-0.001-0.063L17.41,21.227z"/>
	<path fill="#231F20" d="M17.601,13.674c0.658-0.303,1.021-0.633,1.082-1.007c0.083-0.511-0.381-1.081-1.01-1.685
		C17.639,11.723,17.615,12.606,17.601,13.674z"/>
	<path fill="#231F20" d="M22.209,1.496H12.175v24.953v1.297c0.744-0.412,1.435-0.846,2.087-1.297
		C26.337,18.116,23.163,3.725,22.209,1.496z M19.653,12.796c-0.101,0.73-0.896,1.273-2.061,1.857
		c-0.006,0.735-0.008,1.54-0.007,2.433c0.064,0.026,0.127,0.053,0.194,0.079c1.086,0.44,1.269,0.94,1.231,1.28
		c-0.063,0.569-0.761,0.993-1.417,1.125c0.001,0.184,0.002,0.365,0.003,0.555c0.194,0.146,0.312,0.361,0.303,0.584
		c-0.008,0.195-0.12,0.353-0.296,0.439c0,0.054,0,0.104,0.001,0.158c-0.037,0.179-0.167,0.287-0.324,0.287
		c-0.147,0-0.276-0.092-0.337-0.233c-0.035,0.007-0.084,0.021-0.164,0.054c-0.138,0.057-0.212,0.078-0.264,0.078
		c-0.077,0-0.106-0.047-0.114-0.067c-0.037-0.077,0.025-0.157,0.091-0.234c0.133-0.149,0.213-0.2,0.429-0.303
		c-0.001-0.13-0.002-0.265-0.004-0.392c-0.069-0.021-0.139-0.046-0.204-0.088c-0.372-0.238-0.531-0.49-0.474-0.752
		c0.072-0.328,0.479-0.542,0.656-0.608c-0.009-0.504-0.02-0.975-0.032-1.416c-0.229-0.094-0.461-0.185-0.673-0.268
		c-0.987-0.385-1.177-0.943-1.165-1.346c0.025-0.866,0.966-1.705,1.666-1.962c-0.193-2.421-0.478-2.884-0.764-3.062l-0.069-0.043
		l0.323-0.746l0.326,0.222l0-0.507c-0.206-0.188-0.409-0.378-0.598-0.568c-0.261-0.268-1.394-1.461-1.521-1.638
		c-0.222-0.301-0.518-0.753-0.677-1.198c-0.193-0.548-0.15-1.118,0.11-1.487c0.279-0.393,0.782-0.537,1.432-0.405
		c0.148,0.063,0.218,0.042,0.32,0.015c0.061-0.015,0.129-0.033,0.206-0.033c0.131,0,0.26,0.05,0.406,0.158
		c0.05,0.037,0.179,0.146,0.316,0.285l-0.001-0.659l1.292,0.764l0.002,1.106c0.159-0.217,0.396-0.462,0.651-0.505L18.54,5.74
		l0.179,1.172l-0.041,0.034c-0.479,0.399-0.769,0.928-0.93,2.835C19.126,11.14,19.756,12.038,19.653,12.796z"/>
	<path fill="#231F20" d="M18.519,6.838l-0.132-0.871c-0.247,0.11-0.505,0.466-0.6,0.659l-0.177-0.041l0-0.446L17.39,6.184
		l0.018,0.281l-0.086,0.026L17.044,6.05l-0.212-0.104C16.795,5.975,16.752,6,16.691,6.011l0.003,2.773
		c0.318,0.294,0.613,0.572,0.879,0.831C17.738,7.796,18.033,7.256,18.519,6.838z"/>
	<path fill="#231F20" d="M16.696,10.09l0,0.691l-0.432-0.293l-0.169,0.392c0.353,0.239,0.753,0.797,0.932,5.971
		c0.118,0.052,0.241,0.106,0.371,0.159c-0.004-2.792,0.024-4.771,0.094-6.198c-0.18-0.167-0.366-0.335-0.557-0.506
		C16.856,10.235,16.776,10.162,16.696,10.09z"/>
	<path fill="#231F20" d="M1.11,12.74h10.798V1.496H1.874C1.362,2.69,0.216,7.37,1.11,12.74z M2.758,8.809
		c-0.1-0.002-0.187,0-0.289-0.129C2.358,8.538,2.251,8.23,2.437,8.133c0.114-0.099,0.381,0.046,0.468,0.207
		c0.081,0.147,0.052,0.234,0.022,0.337c0.094,0.147,0.2,0.293,0.295,0.424C3.157,8.678,3.278,8.328,3.388,8.079
		c0.377,0.526,0.307,0.98,0.097,1.304C3.642,9.577,3.773,9.723,3.93,9.881c-0.044-0.296-0.009-0.745,0.1-0.996
		c0.353,0.487,0.401,0.986,0.24,1.314c0.149,0.125,0.288,0.244,0.434,0.336c-0.08-0.279-0.116-0.742-0.043-1.008
		c0.399,0.406,0.522,0.864,0.43,1.211c0.17,0.078,0.334,0.145,0.504,0.184c-0.081-0.165-0.159-0.448-0.145-0.628
		c0.3,0.192,0.375,0.412,0.363,0.645c0.046,0.005,0.174,0.064,0.219,0.064l-0.01-0.671c-0.295-0.076-0.739-0.246-0.884-0.815
		c0.276,0.065,0.627,0.131,0.884,0.359V9.522C5.425,9.474,4.824,9.05,4.528,8.206c0.517,0.09,1.016,0.336,1.494,0.647V8.542
		C5.5,8.504,5.008,8.021,4.79,7.335c0.431,0.081,0.832,0.275,1.231,0.56V7.503C5.534,7.45,5.032,7.034,4.79,6.273
		C5.221,6.354,5.622,6.54,6.021,6.824v-0.44C5.518,6.349,5.041,6.068,4.79,5.285c0.431,0.08,0.832,0.307,1.231,0.592v-0.49
		c-0.396-0.045-0.771-0.289-0.97-1.06c0.346,0.08,0.65,0.228,0.97,0.514V4.332C5.716,4.277,5.433,4.156,5.28,3.559
		c0.208,0.047,0.461,0.059,0.743,0.312L6.018,3.565C5.787,3.221,5.839,3.069,5.866,2.797c0.025-0.248,0.118-0.431,0.385-0.444
		c0.266,0.013,0.358,0.196,0.386,0.444c0.029,0.272,0.078,0.424-0.152,0.768l0.005,0.314C6.698,3.71,7.002,3.575,7.245,3.526
		c-0.134,0.602-0.43,0.754-0.753,0.809L6.481,4.842C6.744,4.631,7.14,4.347,7.442,4.285C7.27,5.051,6.901,5.33,6.492,5.387v0.499
		c0.327-0.211,0.841-0.581,1.22-0.642C7.496,6.019,7.015,6.327,6.495,6.374l0.002,0.46c0.326-0.211,0.837-0.542,1.216-0.602
		C7.504,6.981,6.998,7.437,6.497,7.506v0.389c0.328-0.21,0.836-0.542,1.215-0.602c-0.198,0.786-0.698,1.21-1.22,1.255v0.318
		c0.393-0.233,1.037-0.637,1.489-0.704C7.723,9.005,7.113,9.463,6.492,9.521v0.364c0.211-0.168,0.653-0.351,0.896-0.398
		c-0.129,0.574-0.591,0.771-0.898,0.848l-0.001,0.68c0.072-0.002,0.143-0.015,0.217-0.024c-0.021-0.236,0.117-0.479,0.424-0.674
		c0.013,0.181-0.09,0.446-0.149,0.623c0.165-0.038,0.33-0.083,0.493-0.152C7.385,10.443,7.5,9.97,7.895,9.57
		c0.074,0.267,0.004,0.701-0.031,0.989c0.174-0.107,0.35-0.222,0.52-0.369C8.193,9.863,8.228,9.355,8.597,8.846
		c0.109,0.25,0.114,0.733,0.118,1.024c0.15-0.16,0.312-0.339,0.455-0.533C8.909,9.02,8.899,8.714,9.21,8.096
		c0.108,0.25,0.207,0.625,0.21,0.917c0.135-0.174,0.231-0.318,0.345-0.527c-0.068-0.16-0.037-0.281,0.046-0.385
		c0.115-0.144,0.287-0.267,0.441-0.172c0.214,0.097,0.106,0.333,0.031,0.506c-0.053,0.122-0.145,0.205-0.305,0.2
		c-0.11,0.197-0.266,0.412-0.4,0.583c0.311,0.099,0.533,0.171,0.743,0.386C9.861,9.795,9.585,9.75,9.357,9.559
		c-0.149,0.197-0.367,0.413-0.522,0.576c0.303,0.093,0.502,0.178,0.749,0.429c-0.502,0.208-0.874,0.143-1.097-0.094
		c-0.175,0.15-0.342,0.305-0.523,0.411c0.297,0.151,0.513,0.312,0.692,0.559c-0.571,0.131-0.948-0.031-1.115-0.352
		c-0.17,0.068-0.328,0.126-0.499,0.159c0.163,0.139,0.273,0.247,0.356,0.431c-0.392-0.01-0.615-0.102-0.673-0.343
		c-0.079,0.008-0.159,0.061-0.237,0.06v0.766l-0.482-0.214v-0.562c-0.049-0.005-0.163-0.044-0.21-0.052
		c-0.069,0.229-0.241,0.317-0.618,0.324c0.082-0.186,0.127-0.318,0.318-0.416c-0.174-0.045-0.337-0.129-0.508-0.208
		c-0.15,0.357-0.488,0.505-1.09,0.367c0.176-0.247,0.4-0.47,0.702-0.573c-0.154-0.097-0.297-0.192-0.449-0.339
		c-0.219,0.247-0.595,0.331-1.108,0.117c0.21-0.214,0.418-0.385,0.737-0.445C3.621,10,3.473,9.806,3.319,9.612
		C3.091,9.814,2.745,9.879,2.274,9.681C2.485,9.467,2.726,9.24,3.028,9.244C2.935,9.111,2.853,8.961,2.758,8.809z"/>
	<rect x="6.914" y="19.217" fill="#231F20" width="0.695" height="1.777"/>
	<rect x="8.128" y="20.279" fill="#231F20" width="1.777" height="0.695"/>
	<rect x="9.23" y="17.963" fill="#231F20" width="0.696" height="1.776"/>
	<rect x="6.836" y="16.822" fill="#231F20" width="0.539" height="0.541"/>
	<rect x="6.893" y="17.98" fill="#231F20" width="1.777" height="0.696"/>
	<rect x="8.148" y="19.217" fill="#231F20" width="0.541" height="0.543"/>
	<path fill="#231F20" d="M9.821,26.449c0.652,0.451,1.343,0.885,2.087,1.297v-1.297V13.008H1.158
		C1.978,17.6,4.316,22.651,9.821,26.449z M9.23,14.969l0.002,2.394h1.31v4.25H6.294v-2.396H4.983v-4.248H9.23z"/>
	<rect x="5.6" y="16.899" fill="#231F20" width="0.695" height="1.777"/>
	<rect x="7.975" y="15.509" fill="#231F20" width="0.696" height="1.778"/>
	<rect x="5.62" y="15.509" fill="#231F20" width="1.777" height="0.697"/>
</g>
<g>
</g>
<g>
</g>
<g>
</g>
<g>
</g>
<g>
</g>
<g>
</g>
</svg>
