<svg xmlns="http://www.w3.org/2000/svg" viewBox="-9992 2288 72 56">
  <defs>
    <style>
      .cls-1, .cls-5 {
        fill: none;
      }

      .cls-1 {
        stroke: #1f3c53;
        stroke-width: 3px;
      }

      .cls-2 {
        fill: #f37021;
      }

      .cls-3 {
        fill: #1f3c53;
      }

      .cls-4 {
        stroke: none;
      }
    </style>
  </defs>
  <g id="Group_165" data-name="Group 165" transform="translate(-10266 -458.094)">
    <g id="Rectangle_576" data-name="Rectangle 576" class="cls-1" transform="translate(274 2746.094)">
      <path class="cls-4" d="M3,0H69a3,3,0,0,1,3,3V56a0,0,0,0,1,0,0H0a0,0,0,0,1,0,0V3A3,3,0,0,1,3,0Z"/>
      <rect class="cls-5" x="1.5" y="1.5" width="69" height="53" rx="1.5"/>
    </g>
    <rect id="Rectangle_577" data-name="Rectangle 577" class="cls-2" width="4.893" height="4.78" transform="translate(284.485 2764.533)"/>
    <rect id="Rectangle_578" data-name="Rectangle 578" class="cls-2" width="4.893" height="4.78" transform="translate(292.175 2764.533)"/>
    <rect id="Rectangle_579" data-name="Rectangle 579" class="cls-2" width="4.893" height="4.78" transform="translate(299.864 2764.533)"/>
    <rect id="Rectangle_580" data-name="Rectangle 580" class="cls-2" width="4.893" height="4.78" transform="translate(307.554 2764.533)"/>
    <rect id="Rectangle_581" data-name="Rectangle 581" class="cls-2" width="4.893" height="4.78" transform="translate(315.243 2764.533)"/>
    <rect id="Rectangle_582" data-name="Rectangle 582" class="cls-2" width="4.893" height="4.78" transform="translate(322.932 2764.533)"/>
    <rect id="Rectangle_583" data-name="Rectangle 583" class="cls-2" width="4.893" height="4.78" transform="translate(330.621 2764.533)"/>
    <rect id="Rectangle_584" data-name="Rectangle 584" class="cls-2" width="4.893" height="4.78" transform="translate(284.485 2772.046)"/>
    <rect id="Rectangle_585" data-name="Rectangle 585" class="cls-2" width="4.893" height="4.78" transform="translate(292.175 2772.046)"/>
    <rect id="Rectangle_586" data-name="Rectangle 586" class="cls-2" width="4.893" height="4.78" transform="translate(299.864 2772.046)"/>
    <rect id="Rectangle_587" data-name="Rectangle 587" class="cls-2" width="4.893" height="4.78" transform="translate(307.554 2772.046)"/>
    <rect id="Rectangle_588" data-name="Rectangle 588" class="cls-2" width="4.893" height="4.78" transform="translate(315.243 2772.046)"/>
    <rect id="Rectangle_589" data-name="Rectangle 589" class="cls-2" width="4.893" height="4.78" transform="translate(322.932 2772.046)"/>
    <rect id="Rectangle_590" data-name="Rectangle 590" class="cls-2" width="4.893" height="4.78" transform="translate(330.621 2772.046)"/>
    <rect id="Rectangle_591" data-name="Rectangle 591" class="cls-2" width="4.893" height="4.78" transform="translate(284.485 2779.558)"/>
    <rect id="Rectangle_592" data-name="Rectangle 592" class="cls-2" width="4.893" height="4.78" transform="translate(292.175 2779.558)"/>
    <rect id="Rectangle_593" data-name="Rectangle 593" class="cls-2" width="4.893" height="4.78" transform="translate(299.864 2779.558)"/>
    <rect id="Rectangle_594" data-name="Rectangle 594" class="cls-2" width="4.893" height="4.78" transform="translate(307.554 2779.558)"/>
    <rect id="Rectangle_595" data-name="Rectangle 595" class="cls-2" width="4.893" height="4.78" transform="translate(315.243 2779.558)"/>
    <rect id="Rectangle_596" data-name="Rectangle 596" class="cls-2" width="4.893" height="4.78" transform="translate(322.932 2779.558)"/>
    <rect id="Rectangle_597" data-name="Rectangle 597" class="cls-2" width="4.893" height="4.78" transform="translate(330.621 2779.558)"/>
    <rect id="Rectangle_598" data-name="Rectangle 598" class="cls-3" width="4.893" height="4.78" transform="translate(284.485 2787.07)"/>
    <rect id="Rectangle_599" data-name="Rectangle 599" class="cls-3" width="4.893" height="4.78" transform="translate(292.175 2787.07)"/>
    <rect id="Rectangle_600" data-name="Rectangle 600" class="cls-3" width="4.893" height="4.78" transform="translate(299.864 2787.07)"/>
    <rect id="Rectangle_601" data-name="Rectangle 601" class="cls-3" width="4.893" height="4.78" transform="translate(307.554 2787.07)"/>
    <rect id="Rectangle_602" data-name="Rectangle 602" class="cls-3" width="4.893" height="4.78" transform="translate(315.243 2787.07)"/>
    <rect id="Rectangle_603" data-name="Rectangle 603" class="cls-3" width="4.893" height="4.78" transform="translate(322.932 2787.07)"/>
    <rect id="Rectangle_604" data-name="Rectangle 604" class="cls-3" width="4.893" height="4.78" transform="translate(330.621 2787.07)"/>
    <rect id="Rectangle_605" data-name="Rectangle 605" class="cls-3" width="67.107" height="8.195" transform="translate(276.415 2748.453)"/>
  </g>
</svg>
