<?xml version="1.0" encoding="utf-8"?>
<!-- Generator: Adobe Illustrator 21.1.0, SVG Export Plug-In . SVG Version: 6.00 Build 0)  -->
<svg version="1.1" id="Layer_1" xmlns="http://www.w3.org/2000/svg" xmlns:xlink="http://www.w3.org/1999/xlink" x="0px" y="0px"
	 viewBox="0 0 101.1 56.9" style="enable-background:new 0 0 101.1 56.9;" xml:space="preserve">
<style type="text/css">
	.st0{fill:none;stroke:#1F3C53;stroke-width:3;}
	.st1{enable-background:new    ;}
	.st2{fill:#1F3C53;}
	.st3{fill:none;stroke:#F37021;stroke-width:4;}
</style>
<g id="Group_167" transform="translate(-9229.556 2282)">
	<path id="Path_204" class="st0" d="M9244.8-2276.4v49.8h85.5"/>
	<g class="st1">
		<path class="st2" d="M9233.7-2278.2h0.8l-0.2,1.3c0.7,0.1,1.4,0.4,1.9,0.7l-0.4,1.4c-0.5-0.3-1.1-0.5-1.7-0.7c0,0-0.3,2.3-0.3,2.3
			c1.3,0.4,2.7,1,2.7,2.6c0,1.6-1.3,2.7-3.3,2.7c-0.1,0-0.2,0-0.2,0l-0.2,1.5h-0.8c0,0,0.2-1.6,0.2-1.6c-0.8-0.1-1.5-0.4-2.1-0.7
			l0.4-1.5c0.6,0.4,1.2,0.6,1.9,0.8l0.4-2.5c-1.2-0.4-2.5-0.9-2.5-2.6c0-1.6,1.2-2.6,3.1-2.6c0.1,0,0.2,0,0.3,0L9233.7-2278.2z
			 M9233.3-2275.5C9233.3-2275.5,9233.3-2275.5,9233.3-2275.5c-1.1,0-1.6,0.4-1.6,1.1c0,0.6,0.4,0.9,1.2,1.1L9233.3-2275.5z
			 M9233.1-2269.2C9233.1-2269.2,9233.1-2269.2,9233.1-2269.2c1.1,0,1.7-0.5,1.7-1.2c0-0.6-0.4-0.9-1.4-1.2L9233.1-2269.2z"/>
	</g>
	<path id="Path_205" class="st3" d="M9249.2-2271.2h10.5l14.2,16.1l11.8-11.6l17.3,18.8l11.7-9.6l14.7,12.8"/>
</g>
</svg>
