<?xml version="1.0" encoding="utf-8"?>
<!-- Generator: Adobe Illustrator 21.1.0, SVG Export Plug-In . SVG Version: 6.00 Build 0)  -->
<svg version="1.1" id="Layer_1" xmlns="http://www.w3.org/2000/svg" xmlns:xlink="http://www.w3.org/1999/xlink" x="0px" y="0px"
	 viewBox="0 0 83.1 65" style="enable-background:new 0 0 83.1 65;" xml:space="preserve">
<style type="text/css">
	.st0{enable-background:new    ;}
	.st1{fill:#F37021;}
	.st2{fill:#1F3C53;}
</style>
<g id="Group_166" transform="translate(-10272 -216)">
	<g class="st0">
		<path class="st1" d="M10286.6,234v0.2c0,0.2-0.1,0.4-0.2,0.6c-0.1,0.2-0.2,0.3-0.4,0.4c-0.2,0.1-0.4,0.2-0.6,0.2
			c-0.6,0-0.9-0.3-1.1-0.8l-1.3-4.9c-0.1-0.2-0.2-0.3-0.4-0.3c-0.2,0-0.3,0.1-0.3,0.4v0.1l2.1,7.9c0,0,0.1,0.1,0.1,0.2l0.1,0.1h-0.1
			h0.1c0,0.4-0.2,0.6-0.6,0.6h-1.5v5.2c0,0.3-0.1,0.5-0.2,0.6c-0.1,0.2-0.3,0.4-0.5,0.5c-0.2,0.1-0.4,0.2-0.6,0.2
			c-0.3,0-0.7-0.2-1-0.5c-0.3-0.3-0.4-0.6-0.4-0.9v-5.2h-0.8v5.2c0,0.3-0.1,0.6-0.4,0.9c-0.3,0.3-0.6,0.5-0.9,0.5
			c-0.3,0-0.7-0.2-1-0.5c-0.3-0.3-0.4-0.6-0.4-0.9v-5.2h-1.5c-0.4,0-0.6-0.2-0.6-0.6v-0.1c0-0.1,0-0.2,0.1-0.2l2.1-7.9v-0.1v-0.1
			c-0.1-0.2-0.2-0.3-0.3-0.3c-0.2,0-0.3,0.1-0.4,0.3l-1.3,4.9h-0.1c-0.2,0.5-0.6,0.8-1,0.8c-0.3,0-0.6-0.1-0.8-0.4
			c-0.2-0.2-0.3-0.5-0.3-0.8V234l1.8-6.8l0.1-0.1c0.2-0.6,0.6-0.8,1.2-0.8v-0.1h8.5v0.1c0.6,0,1.1,0.3,1.2,0.8l0.1,0.1L10286.6,234z
			 M10279.1,225.5c-1.8,0-2.7-0.9-2.7-2.7s0.9-2.7,2.7-2.7s2.7,0.9,2.7,2.7S10280.9,225.5,10279.1,225.5z"/>
	</g>
	<g class="st0">
		<path class="st2" d="M10309.1,266v0.2c0,0.2-0.1,0.4-0.2,0.6c-0.1,0.2-0.2,0.3-0.4,0.4c-0.2,0.1-0.4,0.2-0.6,0.2
			c-0.6,0-0.9-0.3-1.1-0.8l-1.3-4.9c-0.1-0.2-0.2-0.3-0.4-0.3c-0.2,0-0.3,0.1-0.3,0.4v0.1l2.1,7.9c0,0,0.1,0.1,0.1,0.2l0.1,0.1h-0.1
			h0.1c0,0.4-0.2,0.6-0.6,0.6h-1.5v5.2c0,0.3-0.1,0.5-0.2,0.6c-0.1,0.2-0.3,0.4-0.5,0.5c-0.2,0.1-0.4,0.2-0.6,0.2
			c-0.3,0-0.7-0.2-1-0.5c-0.3-0.3-0.4-0.6-0.4-0.9v-5.2h-0.8v5.2c0,0.3-0.1,0.6-0.4,0.9c-0.3,0.3-0.6,0.5-0.9,0.5
			c-0.3,0-0.7-0.2-1-0.5c-0.3-0.3-0.4-0.6-0.4-0.9v-5.2h-1.5c-0.4,0-0.6-0.2-0.6-0.6v-0.1c0-0.1,0-0.2,0.1-0.2l2.1-7.9v-0.1v-0.1
			c-0.1-0.2-0.2-0.3-0.3-0.3c-0.2,0-0.3,0.1-0.4,0.3l-1.3,4.9h-0.1c-0.2,0.5-0.6,0.8-1,0.8c-0.3,0-0.6-0.1-0.8-0.4
			c-0.2-0.2-0.3-0.5-0.3-0.8V266l1.8-6.8l0.1-0.1c0.2-0.6,0.6-0.8,1.2-0.8v-0.1h8.5v0.1c0.6,0,1.1,0.3,1.2,0.8l0.1,0.1L10309.1,266z
			 M10301.5,257.5c-1.8,0-2.7-0.9-2.7-2.7s0.9-2.7,2.7-2.7s2.7,0.9,2.7,2.7S10303.3,257.5,10301.5,257.5z"/>
	</g>
	<g class="st0">
		<path class="st2" d="M10332.3,234v0.2c0,0.2-0.1,0.4-0.2,0.6c-0.1,0.2-0.2,0.3-0.4,0.4c-0.2,0.1-0.4,0.2-0.6,0.2
			c-0.6,0-0.9-0.3-1.1-0.8l-1.3-4.9c-0.1-0.2-0.2-0.3-0.4-0.3c-0.2,0-0.3,0.1-0.3,0.4v0.1l2.1,7.9c0,0,0.1,0.1,0.1,0.2l0.1,0.1h-0.1
			h0.1c0,0.4-0.2,0.6-0.6,0.6h-1.5v5.2c0,0.3-0.1,0.5-0.2,0.6c-0.1,0.2-0.3,0.4-0.5,0.5c-0.2,0.1-0.4,0.2-0.6,0.2
			c-0.3,0-0.7-0.2-1-0.5c-0.3-0.3-0.4-0.6-0.4-0.9v-5.2h-0.8v5.2c0,0.3-0.1,0.6-0.4,0.9c-0.3,0.3-0.6,0.5-0.9,0.5
			c-0.3,0-0.7-0.2-1-0.5c-0.3-0.3-0.4-0.6-0.4-0.9v-5.2h-1.5c-0.4,0-0.6-0.2-0.6-0.6v-0.1c0-0.1,0-0.2,0.1-0.2l2.1-7.9v-0.1v-0.1
			c-0.1-0.2-0.2-0.3-0.3-0.3c-0.2,0-0.3,0.1-0.4,0.3l-1.3,4.9h-0.1c-0.2,0.5-0.6,0.8-1,0.8c-0.3,0-0.6-0.1-0.8-0.4
			c-0.2-0.2-0.3-0.5-0.3-0.8V234l1.8-6.8l0.1-0.1c0.2-0.6,0.6-0.8,1.2-0.8v-0.1h8.5v0.1c0.6,0,1.1,0.3,1.2,0.8l0.1,0.1L10332.3,234z
			 M10324.7,225.5c-1.8,0-2.7-0.9-2.7-2.7s0.9-2.7,2.7-2.7s2.7,0.9,2.7,2.7S10326.5,225.5,10324.7,225.5z"/>
	</g>
	<g class="st0">
		<path class="st2" d="M10354.7,266v0.2c0,0.2-0.1,0.4-0.2,0.6c-0.1,0.2-0.2,0.3-0.4,0.4c-0.2,0.1-0.4,0.2-0.6,0.2
			c-0.6,0-0.9-0.3-1.1-0.8l-1.3-4.9c-0.1-0.2-0.2-0.3-0.4-0.3c-0.2,0-0.3,0.1-0.3,0.4v0.1l2.1,7.9c0,0,0.1,0.1,0.1,0.2l0.1,0.1h-0.1
			h0.1c0,0.4-0.2,0.6-0.6,0.6h-1.5v5.2c0,0.3-0.1,0.5-0.2,0.6c-0.1,0.2-0.3,0.4-0.5,0.5c-0.2,0.1-0.4,0.2-0.6,0.2
			c-0.3,0-0.7-0.2-1-0.5c-0.3-0.3-0.4-0.6-0.4-0.9v-5.2h-0.8v5.2c0,0.3-0.1,0.6-0.4,0.9c-0.3,0.3-0.6,0.5-0.9,0.5
			c-0.3,0-0.7-0.2-1-0.5c-0.3-0.3-0.4-0.6-0.4-0.9v-5.2h-1.5c-0.4,0-0.6-0.2-0.6-0.6v-0.1c0-0.1,0-0.2,0.1-0.2l2.1-7.9v-0.1v-0.1
			c-0.1-0.2-0.2-0.3-0.3-0.3c-0.2,0-0.3,0.1-0.4,0.3l-1.3,4.9h-0.1c-0.2,0.5-0.6,0.8-1,0.8c-0.3,0-0.6-0.1-0.8-0.4
			c-0.2-0.2-0.3-0.5-0.3-0.8V266l1.8-6.8l0.1-0.1c0.2-0.6,0.6-0.8,1.2-0.8v-0.1h8.5v0.1c0.6,0,1.1,0.3,1.2,0.8l0.1,0.1L10354.7,266z
			 M10347.2,257.5c-1.8,0-2.7-0.9-2.7-2.7s0.9-2.7,2.7-2.7s2.7,0.9,2.7,2.7S10349,257.5,10347.2,257.5z"/>
	</g>
	<g class="st0">
		<path class="st1" d="M10307,226.8c0.4,0.1,0.6,0.2,0.8,0.4c0.3,0.3,0.4,0.6,0.4,0.9v7.5c0,0.3-0.1,0.5-0.4,0.8
			c-0.2,0.2-0.5,0.3-0.8,0.3c-0.3,0-0.6-0.1-0.8-0.3c-0.2-0.2-0.3-0.5-0.3-0.8v-5.2v-0.1c0-0.3-0.1-0.4-0.4-0.4s-0.4,0.1-0.4,0.4
			v0.1v3.3v3.4v6.9c0,0.4-0.1,0.7-0.4,0.9s-0.5,0.4-0.9,0.4c-0.4,0-0.7-0.1-0.9-0.4s-0.4-0.6-0.4-0.9v-6.9c0-0.3-0.1-0.4-0.4-0.4
			s-0.4,0.1-0.4,0.4v6.9c0,0.4-0.1,0.7-0.4,0.9s-0.6,0.4-0.9,0.4s-0.7-0.1-0.9-0.4s-0.4-0.6-0.4-0.9v-10.3v-3.3v-0.1
			c0-0.3-0.1-0.4-0.3-0.4c-0.3,0-0.4,0.1-0.4,0.4v0.1v5.2c0,0.3-0.1,0.5-0.3,0.8c-0.2,0.2-0.5,0.3-0.8,0.3c-0.3,0-0.6-0.1-0.8-0.3
			c-0.2-0.2-0.3-0.5-0.3-0.8V228c0-0.3,0.1-0.5,0.2-0.6c0.2-0.3,0.3-0.4,0.4-0.5c0.1-0.1,0.3-0.1,0.6-0.1H10307z M10299.3,223.4
			c0-1.8,0.9-2.6,2.6-2.6c1.8,0,2.7,0.9,2.7,2.6s-0.9,2.6-2.7,2.6C10300.2,226,10299.3,225.1,10299.3,223.4z"/>
	</g>
	<g class="st0">
		<path class="st2" d="M10352.6,226.8c0.4,0.1,0.6,0.2,0.8,0.4c0.3,0.3,0.4,0.6,0.4,0.9v7.5c0,0.3-0.1,0.5-0.4,0.8
			c-0.2,0.2-0.5,0.3-0.8,0.3c-0.3,0-0.6-0.1-0.8-0.3c-0.2-0.2-0.3-0.5-0.3-0.8v-5.2v-0.1c0-0.3-0.1-0.4-0.4-0.4s-0.4,0.1-0.4,0.4
			v0.1v3.3v3.4v6.9c0,0.4-0.1,0.7-0.4,0.9s-0.5,0.4-0.9,0.4c-0.4,0-0.7-0.1-0.9-0.4s-0.4-0.6-0.4-0.9v-6.9c0-0.3-0.1-0.4-0.4-0.4
			s-0.4,0.1-0.4,0.4v6.9c0,0.4-0.1,0.7-0.4,0.9s-0.6,0.4-0.9,0.4s-0.7-0.1-0.9-0.4s-0.4-0.6-0.4-0.9v-10.3v-3.3v-0.1
			c0-0.3-0.1-0.4-0.3-0.4c-0.3,0-0.4,0.1-0.4,0.4v0.1v5.2c0,0.3-0.1,0.5-0.3,0.8c-0.2,0.2-0.5,0.3-0.8,0.3c-0.3,0-0.6-0.1-0.8-0.3
			c-0.2-0.2-0.3-0.5-0.3-0.8V228c0-0.3,0.1-0.5,0.2-0.6c0.2-0.3,0.3-0.4,0.4-0.5c0.1-0.1,0.3-0.1,0.6-0.1H10352.6z M10344.9,223.4
			c0-1.8,0.9-2.6,2.6-2.6c1.8,0,2.7,0.9,2.7,2.6s-0.9,2.6-2.7,2.6C10345.8,226,10344.9,225.1,10344.9,223.4z"/>
	</g>
	<g class="st0">
		<path class="st2" d="M10283.6,258.8c0.4,0.1,0.6,0.2,0.8,0.4c0.3,0.3,0.4,0.6,0.4,0.9v7.5c0,0.3-0.1,0.5-0.4,0.8
			c-0.2,0.2-0.5,0.3-0.8,0.3c-0.3,0-0.6-0.1-0.8-0.3c-0.2-0.2-0.3-0.5-0.3-0.8v-5.2v-0.1c0-0.3-0.1-0.4-0.4-0.4s-0.4,0.1-0.4,0.4
			v0.1v3.3v3.4v6.9c0,0.4-0.1,0.7-0.4,0.9s-0.5,0.4-0.9,0.4c-0.4,0-0.7-0.1-0.9-0.4s-0.4-0.6-0.4-0.9v-6.9c0-0.3-0.1-0.4-0.4-0.4
			s-0.4,0.1-0.4,0.4v6.9c0,0.4-0.1,0.7-0.4,0.9s-0.6,0.4-0.9,0.4s-0.7-0.1-0.9-0.4s-0.4-0.6-0.4-0.9v-10.3v-3.3v-0.1
			c0-0.3-0.1-0.4-0.3-0.4c-0.3,0-0.4,0.1-0.4,0.4v0.1v5.2c0,0.3-0.1,0.5-0.3,0.8c-0.2,0.2-0.5,0.3-0.8,0.3c-0.3,0-0.6-0.1-0.8-0.3
			c-0.2-0.2-0.3-0.5-0.3-0.8V260c0-0.3,0.1-0.5,0.2-0.6c0.2-0.3,0.3-0.4,0.4-0.5c0.1-0.1,0.3-0.1,0.6-0.1H10283.6z M10276,255.4
			c0-1.8,0.9-2.6,2.6-2.6c1.8,0,2.7,0.9,2.7,2.6s-0.9,2.6-2.7,2.6C10276.8,258,10276,257.1,10276,255.4z"/>
	</g>
	<g class="st0">
		<path class="st2" d="M10329.3,258.8c0.4,0.1,0.6,0.2,0.8,0.4c0.3,0.3,0.4,0.6,0.4,0.9v7.5c0,0.3-0.1,0.5-0.4,0.8
			c-0.2,0.2-0.5,0.3-0.8,0.3c-0.3,0-0.6-0.1-0.8-0.3c-0.2-0.2-0.3-0.5-0.3-0.8v-5.2v-0.1c0-0.3-0.1-0.4-0.4-0.4s-0.4,0.1-0.4,0.4
			v0.1v3.3v3.4v6.9c0,0.4-0.1,0.7-0.4,0.9s-0.5,0.4-0.9,0.4c-0.4,0-0.7-0.1-0.9-0.4s-0.4-0.6-0.4-0.9v-6.9c0-0.3-0.1-0.4-0.4-0.4
			s-0.4,0.1-0.4,0.4v6.9c0,0.4-0.1,0.7-0.4,0.9s-0.6,0.4-0.9,0.4s-0.7-0.1-0.9-0.4s-0.4-0.6-0.4-0.9v-10.3v-3.3v-0.1
			c0-0.3-0.1-0.4-0.3-0.4c-0.3,0-0.4,0.1-0.4,0.4v0.1v5.2c0,0.3-0.1,0.5-0.3,0.8c-0.2,0.2-0.5,0.3-0.8,0.3c-0.3,0-0.6-0.1-0.8-0.3
			c-0.2-0.2-0.3-0.5-0.3-0.8V260c0-0.3,0.1-0.5,0.2-0.6c0.2-0.3,0.3-0.4,0.4-0.5c0.1-0.1,0.3-0.1,0.6-0.1H10329.3z M10321.6,255.4
			c0-1.8,0.9-2.6,2.6-2.6c1.8,0,2.7,0.9,2.7,2.6s-0.9,2.6-2.7,2.6C10322.5,258,10321.6,257.1,10321.6,255.4z"/>
	</g>
</g>
</svg>
