<svg xmlns="http://www.w3.org/2000/svg" viewBox="-3231 2307 67 69"><defs><style>.cls-1{fill:#f7ce47}.cls-2{fill:#f37021}</style></defs><g id="Group_152" data-name="Group 152" transform="translate(-3919 -472)"><circle id="Ellipse_93" data-name="Ellipse 93" class="cls-1" cx="17.5" cy="17.5" r="17.5" transform="translate(704 2797)"/><path id="Rectangle_520" data-name="Rectangle 520" class="cls-2" transform="translate(688 2812)" d="M0 0h10v3H0z"/><path id="Rectangle_521" data-name="Rectangle 521" class="cls-2" transform="translate(745 2812)" d="M0 0h10v3H0z"/><path id="Rectangle_524" data-name="Rectangle 524" class="cls-2" transform="rotate(45 -3020.267 2234.085)" d="M0 0h10v3H0z"/><path id="Rectangle_526" data-name="Rectangle 526" class="cls-2" transform="rotate(-45 3771.148 582.01)" d="M0 0h10v3H0z"/><path id="Rectangle_527" data-name="Rectangle 527" class="cls-2" transform="rotate(-45 3746.863 504.07)" d="M0 0h10v3H0z"/><path id="Rectangle_525" data-name="Rectangle 525" class="cls-2" transform="rotate(45 -3044.552 2312.026)" d="M0 0h10v3H0z"/><path id="Rectangle_522" data-name="Rectangle 522" class="cls-2" transform="rotate(90 -1028 1751)" d="M0 0h10v3H0z"/><path id="Rectangle_523" data-name="Rectangle 523" class="cls-2" transform="rotate(90 -1057.5 1780.5)" d="M0 0h10v3H0z"/></g></svg>