<svg id="Layer_1" xmlns="http://www.w3.org/2000/svg" viewBox="0 0 492.5 340.5"><style>.st0{fill:#e4e4e4}.st1{fill:#4384f5}.st2{enable-background:new}.st3{fill:#182538}.st4{fill:#fff}.st5{fill:url(#Rectangle_867_2_)}.st6{fill:url(#Rectangle_868_2_)}.st7{fill:#f37021}</style><g id="Group_342" transform="translate(-10272 -464)"><path id="Rectangle_895" class="st0" d="M10362.1 489.7h336.7c9.4 0 17 7.6 17 17v44c0 9.4-7.6 17-17 17h-353.7v-61c0-9.4 7.7-17 17-17z"/><path id="Rectangle_896" class="st1" d="M10379.1 592.7h336.7c9.4 0 17 7.6 17 17v29h-353.7c-9.4 0-17-7.6-17-17v-12c0-9.4 7.7-17 17-17z"/><g class="st2"><path class="st3" d="M10363.3 520.6v-12.5h1.7v12.5h-1.7zm7.5.3c-1.8 0-2.7-.9-2.7-2.9l.1-5.1-1.5-.1.1-1 1.5-.5v-2h1.6l-.1 2.1h2.9l-.1 1.5h-2.9l-.1 5.2c0 .9.4 1.3 1.2 1.3.6 0 1.1-.1 1.7-.3l.3 1.4c-.6.2-1.3.4-2 .4zm4.8-13.7c.8 0 1.7.8 1.7 1.8 0 1.7-1.5 2.9-3 3.9l-.7-.7c1.4-1 2-1.8 2-2.5 0-.5-.4-.8-1.4-1.3.1-.6.6-1.2 1.4-1.2zm5.5 13.7c-1.1 0-2.4-.3-3.2-.9l.4-1.5c.8.5 1.9.9 2.8.9 1 0 1.8-.5 1.8-1.3 0-.9-1.1-1.2-2.2-1.5-1.3-.4-2.7-1-2.7-2.7s1.4-2.8 3.3-2.8c1.1 0 2.1.3 3 .7l-.4 1.5c-.8-.4-1.9-.7-2.6-.7-1 0-1.6.4-1.6 1.1 0 .9 1 1.2 2.1 1.5 1.3.4 2.8 1 2.8 2.7s-1.5 3-3.5 3zm12.9 0c-1.8 0-2.7-.9-2.7-2.9l.1-5.1-1.5-.1.1-1 1.5-.5v-2h1.6l-.1 2.1h2.9l-.1 1.5h-2.9l-.1 5.2c0 .9.4 1.3 1.2 1.3.6 0 1.1-.1 1.7-.3l.3 1.4c-.6.2-1.3.4-2 .4zm4.8-11.5c-.7 0-1.1-.6-1.1-1.2s.3-1.2 1.1-1.2 1.1.6 1.1 1.2-.3 1.2-1.1 1.2zm-.8 11.2v-9.2l1.6-.3v9.5h-1.6zm15.9 0v-5.7c0-1.6-.6-2.2-1.8-2.2-1 0-1.8.5-2.3 1v6.9h-1.6v-5.7c0-1.6-.6-2.2-1.8-2.2-1 0-1.8.4-2.3.9v7h-1.6v-9.2l1.6-.3v1.3c.9-.8 1.8-1.3 2.9-1.3 1.1 0 1.9.5 2.4 1.5 1-1 2.1-1.5 3.3-1.5 1.7 0 2.8 1.2 2.8 3.2v6.3h-1.6zm5.5-4.3c.1 1.8 1.3 3.1 3 3.1 1 0 2-.3 2.7-.8l.3 1.5c-.8.5-1.9.8-3.1.8-2.8 0-4.6-2-4.6-4.8 0-3 2-5 4.5-5 2.2 0 3.5 1.4 3.5 3.6 0 .5-.1 1.1-.2 1.5 0-.1-6.1 0-6.1.1zm4.8-1.4c0-1.5-.6-2.4-2.1-2.4-1.6 0-2.5 1.2-2.6 2.4h4.7zm13.1-6.3c-.4-.2-1-.4-1.5-.4-.9 0-1.4.6-1.4 1.9v1.3h2.9l-.1 1.5h-2.8v7.7h-1.6v-7.7l-1.6-.1.1-1 1.5-.4v-1.2c0-2.6 1.2-3.5 3-3.5.7 0 1.4.2 1.8.4.1 0-.3 1.5-.3 1.5zm5.3 12.3c-2.6 0-4.4-1.9-4.4-4.9 0-2.9 1.9-4.9 4.5-4.9s4.4 1.9 4.4 4.9c0 2.9-1.9 4.9-4.5 4.9zm.1-8.3c-1.8 0-2.8 1.4-2.8 3.4s1.1 3.4 2.9 3.4c1.8 0 2.8-1.4 2.8-3.4-.1-2-1.1-3.4-2.9-3.4zm8.3 8h-1.6v-9.2l1.6-.3v1.6c.6-1 1.4-1.6 2.6-1.6.6 0 1.2.2 1.7.5l-.4 1.5c-.5-.3-1-.4-1.5-.4-.9 0-1.7.6-2.4 1.9v6zm14.3.1l-.6 1.6c-.9 2.3-1.8 3-3.2 3-.7 0-1.3-.2-1.9-.5l.5-1.5c.5.2 1 .4 1.5.4.7 0 1.1-.4 1.8-2l.6-1.4-3.6-9h1.8l2.7 7.1 2.6-7.1h1.7l-3.9 9.4zm8.8.2c-2.6 0-4.4-1.9-4.4-4.9 0-2.9 1.9-4.9 4.5-4.9s4.4 1.9 4.4 4.9c0 2.9-1.9 4.9-4.5 4.9zm0-8.3c-1.8 0-2.8 1.4-2.8 3.4s1.1 3.4 2.9 3.4c1.8 0 2.8-1.4 2.8-3.4s-1.1-3.4-2.9-3.4zm8.3-1.2v5.8c0 1.6.6 2.1 1.8 2.1 1.1 0 2-.5 2.5-1v-6.9h1.6v9.2l-1.6.3v-1.3c-.8.8-1.9 1.3-3.1 1.3-1.8 0-2.9-1.2-2.9-3.2v-6.3h1.7zm10.4 9.2h-1.6v-9.2l1.6-.3v1.6c.6-1 1.4-1.6 2.6-1.6.6 0 1.2.2 1.7.5l-.4 1.5c-.5-.3-1-.4-1.5-.4-.9 0-1.7.6-2.4 1.9v6zm12.2 0h-1.6v-9.2l1.6-.3v1.6c.6-1 1.4-1.6 2.6-1.6.6 0 1.2.2 1.7.5l-.4 1.5c-.5-.3-1-.4-1.5-.4-.9 0-1.7.6-2.4 1.9v6zm6.8-4.3c.1 1.8 1.3 3.1 3 3.1 1 0 2-.3 2.7-.8l.3 1.5c-.8.5-1.9.8-3.1.8-2.8 0-4.6-2-4.6-4.8 0-3 2-5 4.5-5 2.2 0 3.5 1.4 3.5 3.6 0 .5-.1 1.1-.2 1.5.1-.1-6.1 0-6.1.1zm4.8-1.4c0-1.5-.6-2.4-2.1-2.4-1.6 0-2.5 1.2-2.6 2.4h4.7zm3.3 4.3c0-.8.6-1.5 1.5-1.8-1-.6-1.5-1.6-1.5-2.8 0-1.8 1.3-3.5 3.7-3.5 1 0 1.8.3 2.4.5l2.4-.2.1 1.6-1.8-.3c.4.3.6 1.2.6 1.9 0 1.8-1.5 3.4-3.7 3.4-.5 0-.7-.1-1.3-.2-.4.1-.9.5-.9 1s.4.9 2.1.9h.8c2.7 0 4 .8 4 2.5 0 2-2.2 3.5-4.9 3.5-2.4 0-4.3-1-4.3-2.7 0-1 .7-1.9 2-2.1-.8-.5-1.2-1.1-1.2-1.7zm.8 3.3c0 1 1.2 1.7 2.9 1.7s3.1-.7 3.1-1.9c0-1-.9-1.2-2.7-1.2-.6 0-1.3 0-1.7-.1-.9.3-1.6.8-1.6 1.5zm2.9-5.9c1.2 0 2-.9 2-2.1 0-1.2-.7-2.1-2.1-2.1-1.2 0-2 .9-2 2.2 0 1.2.8 2 2.1 2zm7.9-5.2v5.8c0 1.6.6 2.1 1.8 2.1 1.1 0 2-.5 2.5-1v-6.9h1.6v9.2l-1.6.3v-1.3c-.8.8-1.9 1.3-3.1 1.3-1.8 0-2.9-1.2-2.9-3.2v-6.3h1.7zm8.7 9.2v-13.5l1.6-.3v13.7l-1.6.1zm9.2-1c-.7.8-1.5 1.3-2.5 1.3-1.7 0-2.9-1.1-2.9-2.6 0-1.6 1.2-3.1 5.5-3.3v-.3c0-1.5-.6-2.1-2.1-2.1-.9 0-2.1.4-3 1l-.3-1.5c.8-.6 2.1-1.1 3.4-1.1 2.5 0 3.6 1.1 3.5 3.6v3.8c0 .8.1.9.9.9l-.1 1.4c-1.4.2-2.1-.3-2.4-1.1zm0-3.6c-2.7.4-3.7.9-3.7 2 0 .8.6 1.4 1.6 1.4.8 0 1.6-.4 2.1-1V516zm6 4.6h-1.6v-9.2l1.6-.3v1.6c.6-1 1.4-1.6 2.6-1.6.6 0 1.2.2 1.7.5l-.4 1.5c-.5-.3-1-.4-1.5-.4-.9 0-1.7.6-2.4 1.9v6zm14.1.3c-.5 0-1.4-.1-2-.3l-1.6.3v-13.8l1.6-.3v5.4c.7-.6 1.5-1.1 2.6-1.1 2.6 0 4.1 2.1 4.1 4.8 0 2.8-1.9 5-4.7 5zm.3-8.3c-.9 0-1.6.3-2.2.9v5.2c.5.4 1.2.7 2 .7 1.9 0 2.9-1.5 2.9-3.4 0-2-1-3.4-2.7-3.4zm6.6 8v-13.5l1.6-.3v13.7l-1.6.1zm8.3.3c-2.6 0-4.4-1.9-4.4-4.9 0-2.9 1.9-4.9 4.5-4.9s4.4 1.9 4.4 4.9c0 2.9-1.9 4.9-4.5 4.9zm0-8.3c-1.8 0-2.8 1.4-2.8 3.4s1.1 3.4 2.9 3.4c1.8 0 2.8-1.4 2.8-3.4s-1.1-3.4-2.9-3.4zm10.5 8.3c-2.6 0-4.4-1.9-4.4-4.9 0-2.9 1.9-4.9 4.5-4.9s4.4 1.9 4.4 4.9c0 2.9-1.9 4.9-4.5 4.9zm.1-8.3c-1.8 0-2.8 1.4-2.8 3.4s1.1 3.4 2.9 3.4c1.8 0 2.8-1.4 2.8-3.4-.1-2-1.1-3.4-2.9-3.4zm12.7-5.5l1.6-.3v13.7h-1.6v-.8c-.7.6-1.5 1.1-2.6 1.1-2.6 0-4.1-2.1-4.1-4.8 0-2.8 1.9-4.9 4.7-4.9.7 0 1.4.1 2 .3v-4.3zm-2 5.5c-1.9 0-2.9 1.5-2.9 3.4 0 2 1 3.4 2.7 3.4.9 0 1.6-.3 2.2-.9v-5.2c-.5-.5-1.2-.7-2-.7zm13.5 8.3c-1.1 0-2.4-.3-3.2-.9l.4-1.5c.8.5 1.9.9 2.8.9 1 0 1.8-.5 1.8-1.3 0-.9-1.1-1.2-2.2-1.5-1.3-.4-2.7-1-2.7-2.7s1.4-2.8 3.3-2.8c1.1 0 2.1.3 3 .7l-.4 1.5c-.8-.4-1.9-.7-2.6-.7-1 0-1.6.4-1.6 1.1 0 .9 1 1.2 2.1 1.5 1.3.4 2.8 1 2.8 2.7s-1.5 3-3.5 3zm7.1-9.5v5.8c0 1.6.6 2.1 1.8 2.1 1.1 0 2-.5 2.5-1v-6.9h1.6v9.2l-1.6.3v-1.3c-.8.8-1.9 1.3-3.1 1.3-1.8 0-2.9-1.2-2.9-3.2v-6.3h1.7zm8.3 7.8c0-.8.6-1.5 1.5-1.8-1-.6-1.5-1.6-1.5-2.8 0-1.8 1.3-3.5 3.7-3.5 1 0 1.8.3 2.4.5l2.4-.2.1 1.6-1.8-.3c.4.3.6 1.2.6 1.9 0 1.8-1.5 3.4-3.7 3.4-.5 0-.7-.1-1.3-.2-.4.1-.9.5-.9 1s.4.9 2.1.9h.8c2.7 0 4 .8 4 2.5 0 2-2.2 3.5-4.9 3.5-2.4 0-4.3-1-4.3-2.7 0-1 .7-1.9 2-2.1-.8-.5-1.2-1.1-1.2-1.7zm.9 3.3c0 1 1.2 1.7 2.9 1.7s3.1-.7 3.1-1.9c0-1-.9-1.2-2.7-1.2-.6 0-1.3 0-1.7-.1-1 .3-1.6.8-1.6 1.5zm2.9-5.9c1.2 0 2-.9 2-2.1 0-1.2-.7-2.1-2.1-2.1-1.2 0-2 .9-2 2.2-.1 1.2.8 2 2.1 2zm10.9 3c-.7.8-1.5 1.3-2.5 1.3-1.7 0-2.9-1.1-2.9-2.6 0-1.6 1.2-3.1 5.5-3.3v-.3c0-1.5-.6-2.1-2.1-2.1-.9 0-2.1.4-3 1l-.3-1.5c.8-.6 2.1-1.1 3.4-1.1 2.5 0 3.6 1.1 3.5 3.6v3.8c0 .8.1.9.9.9l-.1 1.4c-1.4.2-2.1-.3-2.4-1.1zm0-3.6c-2.7.4-3.7.9-3.7 2 0 .8.6 1.4 1.6 1.4.8 0 1.6-.4 2.1-1V516zm6 4.6h-1.6v-9.2l1.6-.3v1.6c.6-1 1.4-1.6 2.6-1.6.6 0 1.2.2 1.7.5l-.4 1.5c-.5-.3-1-.4-1.5-.4-.9 0-1.7.6-2.4 1.9v6zm13.3.3c-1.8 0-2.7-.9-2.7-2.9l.1-5.1-1.5-.1.1-1 1.5-.5v-2h1.6l-.1 2.1h2.9l-.1 1.5h-2.9l-.1 5.2c0 .9.4 1.3 1.2 1.3.6 0 1.1-.1 1.7-.3l.3 1.4c-.6.2-1.3.4-2 .4zm5-4.6c.1 1.8 1.3 3.1 3 3.1 1 0 2-.3 2.7-.8l.3 1.5c-.8.5-1.9.8-3.1.8-2.8 0-4.6-2-4.6-4.8 0-3 2-5 4.5-5 2.2 0 3.5 1.4 3.5 3.6 0 .5-.1 1.1-.2 1.5 0-.1-6.1 0-6.1.1zm4.8-1.4c0-1.5-.6-2.4-2.1-2.4-1.6 0-2.5 1.2-2.6 2.4h4.7zm6.1 6c-1.1 0-2.4-.3-3.2-.9l.4-1.5c.8.5 1.9.9 2.8.9 1 0 1.8-.5 1.8-1.3 0-.9-1.1-1.2-2.2-1.5-1.3-.4-2.7-1-2.7-2.7s1.4-2.8 3.3-2.8c1.1 0 2.1.3 3 .7l-.4 1.5c-.8-.4-1.9-.7-2.6-.7-1 0-1.6.4-1.6 1.1 0 .9 1 1.2 2.1 1.5 1.3.4 2.8 1 2.8 2.7s-1.5 3-3.5 3zm8.4 0c-1.8 0-2.7-.9-2.7-2.9l.1-5.1-1.5-.1.1-1 1.5-.5v-2h1.6l-.1 2.1h2.9l-.1 1.5h-2.9l-.1 5.2c0 .9.4 1.3 1.2 1.3.6 0 1.1-.1 1.7-.3l.3 1.4c-.6.2-1.3.4-2 .4zm4.8 0c-.8 0-1.3-.6-1.3-1.3s.5-1.3 1.3-1.3c.7 0 1.3.6 1.3 1.3 0 .6-.5 1.3-1.3 1.3z"/></g><g class="st2"><path class="st3" d="M10367 546.6h-3.7v-12.5h3.8c4.1 0 6.6 2.4 6.6 6.2 0 3.8-2.4 6.3-6.7 6.3zm0-11h-2v9.3h2.1c3 0 4.9-1.6 4.9-4.6s-1.9-4.7-5-4.7zm12.8 11.3c-2.6 0-4.4-1.9-4.4-4.9 0-2.9 1.9-4.9 4.5-4.9s4.4 1.9 4.4 4.9c0 2.9-1.9 4.9-4.5 4.9zm.1-8.3c-1.8 0-2.8 1.4-2.8 3.4s1.1 3.4 2.9 3.4c1.8 0 2.8-1.4 2.8-3.4-.1-2-1.1-3.4-2.9-3.4zm14.9 8.1l-.6 1.6c-.9 2.3-1.8 3-3.2 3-.7 0-1.3-.2-1.9-.5l.5-1.5c.5.2 1 .4 1.5.4.7 0 1.1-.4 1.8-2l.6-1.4-3.6-9h1.8l2.7 7.1 2.6-7.1h1.7l-3.9 9.4zm8.9.2c-2.6 0-4.4-1.9-4.4-4.9 0-2.9 1.9-4.9 4.5-4.9s4.4 1.9 4.4 4.9c0 2.9-1.9 4.9-4.5 4.9zm0-8.3c-1.8 0-2.8 1.4-2.8 3.4s1.1 3.4 2.9 3.4c1.8 0 2.8-1.4 2.8-3.4s-1.1-3.4-2.9-3.4zm8.3-1.2v5.8c0 1.6.6 2.1 1.8 2.1 1.1 0 2-.5 2.5-1v-6.9h1.6v9.2l-1.6.3v-1.3c-.8.8-1.9 1.3-3.1 1.3-1.8 0-2.9-1.2-2.9-3.2v-6.3h1.7zm19.3 9.2v-5.8c0-1.6-.6-2.1-1.9-2.1-1 0-1.9.5-2.4 1v6.9h-1.6v-9.2l1.6-.3v1.4c.8-.8 1.9-1.4 3-1.4 1.9 0 3 1.2 3 3.2v6.3h-1.7zm5.4-4.3c.1 1.8 1.3 3.1 3 3.1 1 0 2-.3 2.7-.8l.3 1.5c-.8.5-1.9.8-3.1.8-2.8 0-4.6-2-4.6-4.8 0-3 2-5 4.5-5 2.2 0 3.5 1.4 3.5 3.6 0 .5-.1 1.1-.2 1.5.1-.1-6.1 0-6.1.1zm4.8-1.4c0-1.5-.6-2.4-2.1-2.4-1.6 0-2.5 1.2-2.6 2.4h4.7zm4.8 1.4c.1 1.8 1.3 3.1 3 3.1 1 0 2-.3 2.7-.8l.3 1.5c-.8.5-1.9.8-3.1.8-2.8 0-4.6-2-4.6-4.8 0-3 2-5 4.5-5 2.2 0 3.5 1.4 3.5 3.6 0 .5-.1 1.1-.2 1.5.1-.1-6.1 0-6.1.1zm4.8-1.4c0-1.5-.6-2.4-2.1-2.4-1.6 0-2.5 1.2-2.6 2.4h4.7zm9.8-7.8l1.6-.3v13.7h-1.6v-.8c-.7.6-1.5 1.1-2.6 1.1-2.6 0-4.1-2.1-4.1-4.8 0-2.8 1.9-4.9 4.7-4.9.7 0 1.4.1 2 .3v-4.3zm-2 5.5c-1.9 0-2.9 1.5-2.9 3.4 0 2 1 3.4 2.7 3.4.9 0 1.6-.3 2.2-.9v-5.2c-.5-.5-1.2-.7-2-.7zm17 8v-5.8c0-1.6-.6-2.1-1.8-2.1-1.1 0-2 .5-2.5 1v6.9h-1.6v-13.5l1.6-.3v5.6c.8-.8 1.9-1.3 3.1-1.3 1.8 0 2.9 1.2 2.9 3.2v6.3h-1.7zm5.4-4.3c.1 1.8 1.3 3.1 3 3.1 1 0 2-.3 2.7-.8l.3 1.5c-.8.5-1.9.8-3.1.8-2.8 0-4.6-2-4.6-4.8 0-3 2-5 4.5-5 2.2 0 3.5 1.4 3.5 3.6 0 .5-.1 1.1-.2 1.5.1-.1-6.1 0-6.1.1zm4.8-1.4c0-1.5-.6-2.4-2.1-2.4-1.6 0-2.5 1.2-2.6 2.4h4.7zm3.8 5.7v-13.5l1.6-.3v13.7l-1.6.1zm8.7-9.5c2.6 0 4.1 2.1 4.1 4.8 0 2.8-1.9 4.9-4.7 4.9-.5 0-1.4-.1-2-.2v4.6h-1.6v-13.9l1.6-.3v1.1c.7-.5 1.5-1 2.6-1zm-2.6 7.6c.5.4 1.2.7 2 .7 1.9 0 2.9-1.5 2.9-3.4 0-2-1-3.4-2.7-3.4-.9 0-1.6.3-2.2.9v5.2zm15.8 2.2c-1.1 0-2.4-.3-3.2-.9l.4-1.5c.8.5 1.9.9 2.8.9 1 0 1.8-.5 1.8-1.3 0-.9-1.1-1.2-2.2-1.5-1.3-.4-2.7-1-2.7-2.7s1.4-2.8 3.3-2.8c1.1 0 2.1.3 3 .7l-.4 1.5c-.8-.4-1.9-.7-2.6-.7-1 0-1.6.4-1.6 1.1 0 .9 1 1.2 2.1 1.5 1.3.4 2.8 1 2.8 2.7s-1.5 3-3.5 3zm9.6 0c-2.9 0-4.5-2-4.5-4.9s1.9-4.9 4.6-4.9c1.2 0 2.1.3 3 .8l-.4 1.5c-.8-.5-1.6-.8-2.5-.8-1.9 0-2.9 1.3-2.9 3.3 0 2.1 1.2 3.4 2.9 3.4 1 0 1.9-.3 2.6-.8l.3 1.5c-.9.6-2 .9-3.1.9zm11.1-.3v-5.8c0-1.6-.6-2.1-1.8-2.1-1.1 0-2 .5-2.5 1v6.9h-1.6v-13.5l1.6-.3v5.6c.8-.8 1.9-1.3 3.1-1.3 1.8 0 2.9 1.2 2.9 3.2v6.3h-1.7zm5.5-4.3c.1 1.8 1.3 3.1 3 3.1 1 0 2-.3 2.7-.8l.3 1.5c-.8.5-1.9.8-3.1.8-2.8 0-4.6-2-4.6-4.8 0-3 2-5 4.5-5 2.2 0 3.5 1.4 3.5 3.6 0 .5-.1 1.1-.2 1.5 0-.1-6.1 0-6.1.1zm4.8-1.4c0-1.5-.6-2.4-2.1-2.4-1.6 0-2.5 1.2-2.6 2.4h4.7zm9.8-7.8l1.6-.3v13.7h-1.6v-.8c-.7.6-1.5 1.1-2.6 1.1-2.6 0-4.1-2.1-4.1-4.8 0-2.8 1.9-4.9 4.7-4.9.7 0 1.4.1 2 .3v-4.3zm-2.1 5.5c-1.9 0-2.9 1.5-2.9 3.4 0 2 1 3.4 2.7 3.4.9 0 1.6-.3 2.2-.9v-5.2c-.5-.5-1.2-.7-2-.7zm8.1-1.2v5.8c0 1.6.6 2.1 1.8 2.1 1.1 0 2-.5 2.5-1v-6.9h1.6v9.2l-1.6.3v-1.3c-.8.8-1.9 1.3-3.1 1.3-1.8 0-2.9-1.2-2.9-3.2v-6.3h1.7zm8.8 9.2v-13.5l1.6-.3v13.7l-1.6.1zm5.3-11.2c-.7 0-1.1-.6-1.1-1.2s.3-1.2 1.1-1.2 1.1.6 1.1 1.2-.4 1.2-1.1 1.2zm-.8 11.2v-9.2l1.6-.3v9.5h-1.6zm10.4 0v-5.8c0-1.6-.6-2.1-1.9-2.1-1 0-1.9.5-2.4 1v6.9h-1.6v-9.2l1.6-.3v1.4c.8-.8 1.9-1.4 3-1.4 1.9 0 3 1.2 3 3.2v6.3h-1.7zm3.9-1.4c0-.8.6-1.5 1.5-1.8-1-.6-1.5-1.6-1.5-2.8 0-1.8 1.3-3.5 3.7-3.5 1 0 1.8.3 2.4.5l2.4-.2.1 1.6-1.8-.3c.4.3.6 1.2.6 1.9 0 1.8-1.5 3.4-3.7 3.4-.5 0-.7-.1-1.3-.2-.4.1-.9.5-.9 1s.4.9 2.1.9h.8c2.7 0 4 .8 4 2.5 0 2-2.2 3.5-4.9 3.5-2.4 0-4.3-1-4.3-2.7 0-1 .7-1.9 2-2.1-.8-.5-1.2-1.1-1.2-1.7zm.8 3.3c0 1 1.2 1.7 2.9 1.7s3.1-.7 3.1-1.9c0-1-.9-1.2-2.7-1.2-.6 0-1.3 0-1.7-.1-.9.3-1.6.8-1.6 1.5zm2.9-5.9c1.2 0 2-.9 2-2.1 0-1.2-.7-2.1-2.1-2.1-1.2 0-2 .9-2 2.2 0 1.2.8 2 2.1 2zm11.7-7.2c-.7 0-1.1-.6-1.1-1.2s.3-1.2 1.1-1.2 1.1.6 1.1 1.2-.4 1.2-1.1 1.2zm-.8 11.2v-9.2l1.6-.3v9.5h-1.6zm7.2.3c-1.8 0-2.7-.9-2.7-2.9l.1-5.1-1.5-.1.1-1 1.5-.5v-2h1.6l-.1 2.1h2.9l-.1 1.5h-2.9l-.1 5.2c0 .9.4 1.3 1.2 1.3.6 0 1.1-.1 1.7-.3l.3 1.4c-.6.2-1.3.4-2 .4zm6.8-7.3c-.8.3-1.5.6-1.5 1.3 0 .6.5 1.2 1.1 1.7l-.8.2c-.7-.4-1.6-1.2-1.6-2.3 0-1.3 1-1.8 2-2.2.9-.3 1.6-.6 1.6-1.4 0-.9-.9-1.7-2.7-1.7-.5 0-1 .1-1.4.2V534c.4-.1.8-.2 1.5-.2 2.2 0 3.8 1.5 3.8 3.2.1 1.8-1 2.3-2 2.6zm-1.2 7.3c-.7 0-1.3-.6-1.3-1.3s.6-1.3 1.3-1.3c.8 0 1.3.6 1.3 1.3 0 .6-.5 1.3-1.3 1.3z"/></g><g class="st2"><path class="st4" d="M10390 617.1v5h-1.7v-5l-4.4-7.5h1.9l3.3 5.8 3.3-5.8h1.9l-4.3 7.5zm5.8.7c.1 1.8 1.3 3.1 3 3.1 1 0 2-.3 2.7-.8l.3 1.5c-.8.5-1.9.8-3.1.8-2.8 0-4.6-2-4.6-4.8 0-3 2-5 4.5-5 2.2 0 3.5 1.4 3.5 3.6 0 .5-.1 1.1-.2 1.5 0 0-6.1 0-6.1.1zm4.7-1.3c0-1.5-.6-2.4-2.1-2.4-1.6 0-2.5 1.2-2.6 2.4h4.7zm6.2 5.9c-1.1 0-2.4-.3-3.2-.9l.4-1.5c.8.5 1.9.9 2.8.9 1 0 1.8-.5 1.8-1.3 0-.9-1.1-1.2-2.2-1.5-1.3-.4-2.7-1-2.7-2.7s1.4-2.8 3.3-2.8c1.1 0 2.1.3 3 .7l-.4 1.5c-.8-.4-1.9-.7-2.6-.7-1 0-1.6.4-1.6 1.1 0 .9 1 1.2 2.1 1.5 1.3.4 2.8 1 2.8 2.7s-1.5 3-3.5 3zm6.4-2.7c.8 0 1.7.8 1.7 1.8 0 1.6-1.5 2.9-3 3.9l-.7-.7c1.4-1 2-1.8 2-2.5 0-.5-.4-.8-1.4-1.3.1-.7.5-1.2 1.4-1.2zm14.2-11.1l1.6-.3V622h-1.6v-.8c-.7.6-1.5 1.1-2.6 1.1-2.6 0-4.1-2.1-4.1-4.8 0-2.8 1.9-4.9 4.7-4.9.7 0 1.4.1 2 .3v-4.3zm-2 5.5c-1.9 0-2.9 1.5-2.9 3.4 0 2 1 3.4 2.7 3.4.9 0 1.6-.3 2.2-.9v-5.2c-.5-.5-1.2-.7-2-.7zm10.3 8.3c-2.6 0-4.4-1.9-4.4-4.9 0-2.9 1.9-4.9 4.5-4.9s4.4 1.9 4.4 4.9-1.9 4.9-4.5 4.9zm0-8.3c-1.8 0-2.8 1.4-2.8 3.4s1.1 3.4 2.9 3.4c1.8 0 2.8-1.4 2.8-3.4 0-1.9-1.1-3.4-2.9-3.4zm7.8 3.7c.1 1.8 1.3 3.1 3 3.1 1 0 2-.3 2.7-.8l.3 1.5c-.8.5-1.9.8-3.1.8-2.8 0-4.6-2-4.6-4.8 0-3 2-5 4.5-5 2.2 0 3.5 1.4 3.5 3.6 0 .5-.1 1.1-.2 1.5.1 0-6.1 0-6.1.1zm4.8-1.3c0-1.5-.6-2.4-2.1-2.4-1.6 0-2.5 1.2-2.6 2.4h4.7zm6.2 5.9c-1.1 0-2.4-.3-3.2-.9l.4-1.5c.8.5 1.9.9 2.8.9 1 0 1.8-.5 1.8-1.3 0-.9-1.1-1.2-2.2-1.5-1.3-.4-2.7-1-2.7-2.7s1.4-2.8 3.3-2.8c1.1 0 2.1.3 3 .7l-.4 1.5c-.8-.4-1.9-.7-2.6-.7-1 0-1.6.4-1.6 1.1 0 .9 1 1.2 2.1 1.5 1.3.4 2.8 1 2.8 2.7s-1.5 3-3.5 3zm16.1-.3v-5.8c0-1.6-.6-2.1-1.9-2.1-1 0-1.9.5-2.4 1v6.9h-1.6v-9.2l1.6-.3v1.4c.8-.8 1.9-1.4 3-1.4 1.9 0 3 1.2 3 3.2v6.3h-1.7zm5.4-4.3c.1 1.8 1.3 3.1 3 3.1 1 0 2-.3 2.7-.8l.3 1.5c-.8.5-1.9.8-3.1.8-2.8 0-4.6-2-4.6-4.8 0-3 2-5 4.5-5 2.2 0 3.5 1.4 3.5 3.6 0 .5-.1 1.1-.2 1.5.1 0-6.1 0-6.1.1zm4.8-1.3c0-1.5-.6-2.4-2.1-2.4-1.6 0-2.5 1.2-2.6 2.4h4.7zm8.8 5.6l-2.3-3.6-2.2 3.6h-1.9l3.1-4.7-3-4.5h1.8l2.1 3.3 2-3.3h1.9l-2.9 4.4 3.1 4.7-1.7.1zm6 .3c-1.8 0-2.7-.9-2.7-2.9l.1-5.1-1.5-.1.1-1 1.5-.5v-2h1.6l-.1 2.1h2.9l-.1 1.5h-2.9l-.1 5.2c0 .9.4 1.3 1.2 1.3.6 0 1.1-.1 1.7-.3l.3 1.4c-.6.3-1.3.4-2 .4zm13.6-11.2v10.9h-1.7v-10.9h-4.4v-1.6h10.4v1.6h-4.3zm5.9 1.7v5.8c0 1.6.6 2.1 1.8 2.1 1.1 0 2-.5 2.5-1v-6.9h1.6v9.2l-1.6.3v-1.3c-.8.8-1.9 1.3-3.1 1.3-1.8 0-2.9-1.2-2.9-3.2v-6.3h1.7zm9.8 4.9c.1 1.8 1.3 3.1 3 3.1 1 0 2-.3 2.7-.8l.3 1.5c-.8.5-1.9.8-3.1.8-2.8 0-4.6-2-4.6-4.8 0-3 2-5 4.5-5 2.2 0 3.5 1.4 3.5 3.6 0 .5-.1 1.1-.2 1.5 0 0-6.1 0-6.1.1zm4.8-1.3c0-1.5-.6-2.4-2.1-2.4-1.6 0-2.5 1.2-2.6 2.4h4.7zm6.1 5.9c-1.1 0-2.4-.3-3.2-.9l.4-1.5c.8.5 1.9.9 2.8.9 1 0 1.8-.5 1.8-1.3 0-.9-1.1-1.2-2.2-1.5-1.3-.4-2.7-1-2.7-2.7s1.4-2.8 3.3-2.8c1.1 0 2.1.3 3 .7l-.4 1.5c-.8-.4-1.9-.7-2.6-.7-1 0-1.6.4-1.6 1.1 0 .9 1 1.2 2.1 1.5 1.3.4 2.8 1 2.8 2.7s-1.5 3-3.5 3zm11.7-13.8l1.6-.3V622h-1.6v-.8c-.7.6-1.5 1.1-2.6 1.1-2.6 0-4.1-2.1-4.1-4.8 0-2.8 1.9-4.9 4.7-4.9.7 0 1.4.1 2 .3v-4.3zm-2 5.5c-1.9 0-2.9 1.5-2.9 3.4 0 2 1 3.4 2.7 3.4.9 0 1.6-.3 2.2-.9v-5.2c-.5-.5-1.2-.7-2-.7zm11.2 7c-.7.8-1.5 1.3-2.5 1.3-1.7 0-2.9-1.1-2.9-2.6 0-1.6 1.2-3.1 5.5-3.3v-.3c0-1.5-.6-2.1-2.1-2.1-.9 0-2.1.4-3 1l-.3-1.5c.8-.6 2.1-1.1 3.4-1.1 2.5 0 3.6 1.1 3.5 3.6v3.8c0 .8.1.9.9.9l-.1 1.4c-1.5.2-2.1-.3-2.4-1.1zm0-3.6c-2.7.4-3.7.9-3.7 2 0 .8.6 1.4 1.6 1.4.8 0 1.6-.4 2.1-1v-2.4zm8 4.7l-.6 1.6c-.9 2.3-1.8 3-3.2 3-.7 0-1.3-.2-1.9-.5l.5-1.5c.5.2 1 .4 1.5.4.7 0 1.1-.4 1.8-2l.6-1.4-3.6-9h1.8l2.7 7.1 2.6-7.1h1.7l-3.9 9.4zm14.4-1.1c-.7.8-1.5 1.3-2.5 1.3-1.7 0-2.9-1.1-2.9-2.6 0-1.6 1.2-3.1 5.5-3.3v-.3c0-1.5-.6-2.1-2.1-2.1-.9 0-2.1.4-3 1l-.3-1.5c.8-.6 2.1-1.1 3.4-1.1 2.5 0 3.6 1.1 3.5 3.6v3.8c0 .8.1.9.9.9l-.1 1.4c-1.5.2-2.1-.3-2.4-1.1zm0-3.6c-2.7.4-3.7.9-3.7 2 0 .8.6 1.4 1.6 1.4.8 0 1.6-.4 2.1-1v-2.4zm7.1 4.9c-1.8 0-2.7-.9-2.7-2.9l.1-5.1-1.5-.1.1-1 1.5-.5v-2h1.6l-.1 2.1h2.9l-.1 1.5h-2.9l-.1 5.2c0 .9.4 1.3 1.2 1.3.6 0 1.1-.1 1.7-.3l.3 1.4c-.7.3-1.4.4-2 .4zm10.3-8l-2.3.7-.1-1.5 4-1.3v9.8h-1.6v-7.7zm5.9 1.8c-.8 0-1.3-.6-1.3-1.3s.5-1.3 1.3-1.3c.7 0 1.3.6 1.3 1.3 0 .7-.5 1.3-1.3 1.3zm0 6.2c-.8 0-1.3-.6-1.3-1.3s.5-1.3 1.3-1.3c.7 0 1.3.6 1.3 1.3 0 .7-.5 1.3-1.3 1.3zm7.9 0c-2.8 0-4.8-2-4.8-5s2-5 4.8-5 4.8 2 4.8 5-1.9 5-4.8 5zm0-8.5c-1.9 0-3.2 1.5-3.2 3.5s1.3 3.5 3.2 3.5 3.2-1.5 3.2-3.5-1.3-3.5-3.2-3.5zm11.6 8.5c-2.8 0-4.8-2-4.8-5s2-5 4.8-5 4.8 2 4.8 5-2 5-4.8 5zm0-8.5c-1.9 0-3.2 1.5-3.2 3.5s1.3 3.5 3.2 3.5 3.2-1.5 3.2-3.5-1.3-3.5-3.2-3.5zm15.9-1.3c2.6 0 4.1 2.1 4.1 4.8 0 2.8-1.9 4.9-4.7 4.9-.5 0-1.4-.1-2-.2v4.6h-1.6v-13.9l1.6-.3v1.1c.7-.4 1.6-1 2.6-1zm-2.5 7.7c.5.4 1.2.7 2 .7 1.9 0 2.9-1.5 2.9-3.4 0-2-1-3.4-2.7-3.4-.9 0-1.6.3-2.2.9v5.2zm20.3 1.8v-5.7c0-1.6-.6-2.2-1.8-2.2-1 0-1.8.5-2.3 1v6.9h-1.6v-5.7c0-1.6-.6-2.2-1.8-2.2-1 0-1.8.4-2.3.9v7h-1.6v-9.2l1.6-.3v1.3c.9-.8 1.8-1.3 2.9-1.3 1.1 0 1.9.5 2.4 1.5 1-1 2.1-1.5 3.3-1.5 1.7 0 2.8 1.2 2.8 3.2v6.3h-1.6zm10.6 0l-2.8-9.2h1.8l1.9 6.8 2.1-6.8h1.5l2.3 6.8 1.7-6.8h1.8l-2.8 9.2h-1.5l-2.3-6.8-2.2 6.8h-1.5zm15.8.3c-2.6 0-4.4-1.9-4.4-4.9 0-2.9 1.9-4.9 4.5-4.9s4.4 1.9 4.4 4.9-2 4.9-4.5 4.9zm0-8.3c-1.8 0-2.8 1.4-2.8 3.4s1.1 3.4 2.9 3.4c1.8 0 2.8-1.4 2.8-3.4-.1-1.9-1.1-3.4-2.9-3.4zm8.3 8h-1.6v-9.2l1.6-.3v1.6c.6-1 1.4-1.6 2.6-1.6.6 0 1.2.2 1.7.5l-.4 1.5c-.5-.3-1-.4-1.5-.4-.9 0-1.7.6-2.4 1.9v6zm7.7-4.5v4.5h-1.6v-13.5l1.6-.3v8.8l3.8-4.2h2.1l-4.2 4.3 4.2 4.8h-2.1l-3.8-4.4zm10.1-2.4c-.8.3-1.5.6-1.5 1.3 0 .6.5 1.2 1.1 1.7l-.8.2c-.7-.4-1.6-1.2-1.6-2.3 0-1.3 1-1.8 2-2.2.9-.3 1.6-.6 1.6-1.4 0-.9-.9-1.7-2.7-1.7-.5 0-1 .1-1.4.2v-1.5c.4-.1.8-.2 1.5-.2 2.2 0 3.8 1.5 3.8 3.2.1 1.8-1 2.3-2 2.7zm-1.3 7.2c-.7 0-1.3-.6-1.3-1.3s.6-1.3 1.3-1.3c.8 0 1.3.6 1.3 1.3 0 .7-.5 1.3-1.3 1.3z"/></g><linearGradient id="Rectangle_867_2_" gradientUnits="userSpaceOnUse" x1="21657.396" y1="-1.409" x2="21657.396" y2="-2.409" gradientTransform="matrix(12.678 0 0 340.459 -264294.125 1284.315)"><stop offset="0" stop-color="#fff" stop-opacity="0"/><stop offset=".014" stop-color="#e9eced" stop-opacity=".026"/><stop offset=".04" stop-color="#c5cbd0" stop-opacity=".077"/><stop offset=".071" stop-color="#a5aeb6" stop-opacity=".134"/><stop offset=".104" stop-color="#8996a0" stop-opacity=".197"/><stop offset=".141" stop-color="#73828e" stop-opacity=".268"/><stop offset=".185" stop-color="#627381" stop-opacity=".352"/><stop offset=".24" stop-color="#576977" stop-opacity=".455"/><stop offset=".316" stop-color="#506372" stop-opacity=".599"/><stop offset=".527" stop-color="#4e6170"/><stop offset=".722" stop-color="#506372" stop-opacity=".599"/><stop offset=".792" stop-color="#576977" stop-opacity=".455"/><stop offset=".842" stop-color="#627381" stop-opacity=".352"/><stop offset=".882" stop-color="#73838e" stop-opacity=".269"/><stop offset=".917" stop-color="#8996a0" stop-opacity=".198"/><stop offset=".948" stop-color="#a5afb6" stop-opacity=".135"/><stop offset=".975" stop-color="#c4cbcf" stop-opacity=".079"/><stop offset="1" stop-color="#e8ebec" stop-opacity=".028"/><stop offset="1" stop-color="#e9eced" stop-opacity=".027"/></linearGradient><path id="Rectangle_867_1_" class="st5" d="M10272 464h12.7v340.5h-12.7z"/><linearGradient id="Rectangle_868_2_" gradientUnits="userSpaceOnUse" x1="21657.393" y1="-1.409" x2="21657.393" y2="-2.409" gradientTransform="matrix(12.678 0 0 340.459 -263814.281 1284.315)"><stop offset="0" stop-color="#fff" stop-opacity="0"/><stop offset=".014" stop-color="#e9eced" stop-opacity=".026"/><stop offset=".04" stop-color="#c5cbd0" stop-opacity=".077"/><stop offset=".071" stop-color="#a5aeb6" stop-opacity=".134"/><stop offset=".104" stop-color="#8996a0" stop-opacity=".197"/><stop offset=".141" stop-color="#73828e" stop-opacity=".268"/><stop offset=".185" stop-color="#627381" stop-opacity=".352"/><stop offset=".24" stop-color="#576977" stop-opacity=".455"/><stop offset=".316" stop-color="#506372" stop-opacity=".599"/><stop offset=".527" stop-color="#4e6170"/><stop offset=".722" stop-color="#506372" stop-opacity=".599"/><stop offset=".792" stop-color="#576977" stop-opacity=".455"/><stop offset=".842" stop-color="#627381" stop-opacity=".352"/><stop offset=".882" stop-color="#73838e" stop-opacity=".269"/><stop offset=".917" stop-color="#8996a0" stop-opacity=".198"/><stop offset=".948" stop-color="#a5afb6" stop-opacity=".135"/><stop offset=".975" stop-color="#c4cbcf" stop-opacity=".079"/><stop offset="1" stop-color="#e8ebec" stop-opacity=".028"/><stop offset="1" stop-color="#e9eced" stop-opacity=".027"/></linearGradient><path id="Rectangle_868_1_" class="st6" d="M10751.8 464h12.7v340.5h-12.7z"/><ellipse id="Ellipse_151" class="st7" cx="10315.9" cy="556.4" rx="15.6" ry="15.6"/><ellipse id="Ellipse_152" class="st7" cx="10315.9" cy="728.1" rx="15.6" ry="15.6"/><g class="st2"><path class="st4" d="M10308.2 561.7v-9.4h1.8v7.8h4.2v1.6h-6zm13.9 0v-3.9h-4.5v3.9h-1.8v-9.4h1.8v3.9h4.5v-3.9h1.8v9.4h-1.8z"/></g><g class="st2"><path class="st4" d="M10308.2 733.3V724h1.8v7.8h4.2v1.6l-6-.1zm13.9 0v-3.9h-4.5v3.9h-1.8V724h1.8v3.9h4.5V724h1.8v9.4h-1.8v-.1z"/></g><path id="Rectangle_892" class="st0" d="M10362.1 665.7h304.7c9.4 0 17 7.6 17 17v44c0 9.4-7.6 17-17 17h-321.7v-61c0-9.4 7.7-17 17-17z"/><g class="st2"><path class="st3" d="M10368.9 696.6c-3.7 0-6.3-2.5-6.3-6.5s2.6-6.6 6.3-6.6c1.5 0 3.1.4 4.2 1.1l-.6 1.6c-1-.6-2.3-1.1-3.6-1.1-2.7 0-4.5 1.9-4.5 5s1.8 5.1 4.6 5.1c1 0 2-.3 2.7-.6v-3h-3.5V690h5.1v5.5c-1.3.7-3.1 1.1-4.4 1.1zm8.7-.3h-1.6v-9.2l1.6-.3v1.6c.6-1 1.4-1.6 2.6-1.6.6 0 1.2.2 1.7.5l-.4 1.5c-.5-.3-1-.4-1.5-.4-.9 0-1.7.6-2.4 1.9v6zm6.8-4.3c.1 1.8 1.3 3.1 3 3.1 1 0 2-.3 2.7-.8l.3 1.5c-.8.5-1.9.8-3.1.8-2.8 0-4.6-2-4.6-4.8 0-3 2-5 4.5-5 2.2 0 3.5 1.4 3.5 3.6 0 .5-.1 1.1-.2 1.5.1 0-6.1 0-6.1.1zm4.8-1.3c0-1.5-.6-2.4-2.1-2.4-1.6 0-2.5 1.2-2.6 2.4h4.7zm8.4 4.6c-.7.8-1.5 1.3-2.5 1.3-1.7 0-2.9-1.1-2.9-2.6 0-1.6 1.2-3.1 5.5-3.3v-.3c0-1.5-.6-2.1-2.1-2.1-.9 0-2.1.4-3 1l-.3-1.5c.8-.6 2.1-1.1 3.4-1.1 2.5 0 3.6 1.1 3.5 3.6v3.8c0 .8.1.9.9.9l-.1 1.4c-1.4.2-2-.3-2.4-1.1zm.1-3.6c-2.7.4-3.7.9-3.7 2 0 .8.6 1.4 1.6 1.4.8 0 1.6-.4 2.1-1v-2.4zm7 4.9c-1.8 0-2.7-.9-2.7-2.9l.1-5.1-1.5-.1.1-1 1.5-.5v-2h1.6l-.1 2.1h2.9l-.1 1.5h-2.9l-.1 5.2c0 .9.4 1.3 1.2 1.3.6 0 1.1-.1 1.7-.3l.3 1.4c-.6.3-1.3.4-2 .4zm4.8-2.7c.8 0 1.7.8 1.7 1.8 0 1.6-1.5 2.9-3 3.9l-.7-.7c1.4-1 2-1.8 2-2.5 0-.5-.4-.8-1.4-1.3.1-.7.6-1.2 1.4-1.2zm11.9 2.5l-.6 1.6c-.9 2.3-1.8 3-3.2 3-.7 0-1.3-.2-1.9-.5l.5-1.5c.5.2 1 .4 1.5.4.7 0 1.1-.4 1.8-2l.6-1.4-3.6-9h1.8l2.7 7.1 2.6-7.1h1.7l-3.9 9.4zm8.9.2c-2.6 0-4.4-1.9-4.4-4.9 0-2.9 1.9-4.9 4.5-4.9s4.4 1.9 4.4 4.9c0 3-2 4.9-4.5 4.9zm0-8.3c-1.8 0-2.8 1.4-2.8 3.4s1.1 3.4 2.9 3.4c1.8 0 2.8-1.4 2.8-3.4-.1-1.9-1.1-3.4-2.9-3.4zm8.3-1.2v5.8c0 1.6.6 2.1 1.8 2.1 1.1 0 2-.5 2.5-1v-6.9h1.6v9.2l-1.6.3v-1.3c-.8.8-1.9 1.3-3.1 1.3-1.8 0-2.9-1.2-2.9-3.2v-6.3h1.7zm9.5-4.1c.8 0 1.7.8 1.7 1.8 0 1.7-1.5 2.9-3 3.9l-.7-.7c1.4-1 2-1.8 2-2.5 0-.5-.4-.8-1.4-1.3.1-.7.6-1.2 1.4-1.2zm4.3 13.3h-1.6v-9.2l1.6-.3v1.6c.6-1 1.4-1.6 2.6-1.6.6 0 1.2.2 1.7.5l-.4 1.5c-.5-.3-1-.4-1.5-.4-.9 0-1.7.6-2.4 1.9v6zm6.8-4.3c.1 1.8 1.3 3.1 3 3.1 1 0 2-.3 2.7-.8l.3 1.5c-.8.5-1.9.8-3.1.8-2.8 0-4.6-2-4.6-4.8 0-3 2-5 4.5-5 2.2 0 3.5 1.4 3.5 3.6 0 .5-.1 1.1-.2 1.5.1 0-6.1 0-6.1.1zm4.8-1.3c0-1.5-.6-2.4-2.1-2.4-1.6 0-2.5 1.2-2.6 2.4h4.7zm12.2 5.9c-2.9 0-4.5-2-4.5-4.9s1.9-4.9 4.6-4.9c1.2 0 2.1.3 3 .8l-.4 1.5c-.8-.5-1.6-.8-2.5-.8-1.9 0-2.9 1.3-2.9 3.3 0 2.1 1.2 3.4 2.9 3.4 1 0 1.9-.3 2.6-.8l.3 1.5c-.9.6-1.9.9-3.1.9zm9 0c-2.6 0-4.4-1.9-4.4-4.9 0-2.9 1.9-4.9 4.5-4.9s4.4 1.9 4.4 4.9c0 3-2 4.9-4.5 4.9zm0-8.3c-1.8 0-2.8 1.4-2.8 3.4s1.1 3.4 2.9 3.4c1.8 0 2.8-1.4 2.8-3.4-.1-1.9-1.1-3.4-2.9-3.4zm12.6 8v-5.8c0-1.6-.6-2.1-1.9-2.1-1 0-1.9.5-2.4 1v6.9h-1.6v-9.2l1.6-.3v1.4c.8-.8 1.9-1.4 3-1.4 1.9 0 3 1.2 3 3.2v6.3h-1.7zm9.2-12c-.4-.2-1-.4-1.5-.4-.9 0-1.4.6-1.4 1.9v1.3h2.9l-.1 1.5h-2.8v7.7h-1.6v-7.7l-1.6-.1.1-1 1.5-.4v-1.2c0-2.6 1.2-3.5 3-3.5.7 0 1.4.2 1.8.4.1.1-.3 1.6-.3 1.5zm2.4.8c-.7 0-1.1-.6-1.1-1.2s.3-1.2 1.1-1.2 1.1.6 1.1 1.2-.4 1.2-1.1 1.2zm-.8 11.2v-9.2l1.6-.3v9.5h-1.6zm6 0h-1.6v-9.2l1.6-.3v1.6c.6-1 1.4-1.6 2.6-1.6.6 0 1.2.2 1.7.5l-.4 1.5c-.5-.3-1-.4-1.5-.4-.9 0-1.7.6-2.4 1.9v6zm17.4 0v-5.7c0-1.6-.6-2.2-1.8-2.2-1 0-1.8.5-2.3 1v6.9h-1.6v-5.7c0-1.6-.6-2.2-1.8-2.2-1 0-1.8.4-2.3.9v7h-1.6v-9.2l1.6-.3v1.3c.9-.8 1.8-1.3 2.9-1.3 1.1 0 1.9.5 2.4 1.5 1-1 2.1-1.5 3.3-1.5 1.7 0 2.8 1.2 2.8 3.2v6.3h-1.6zm5.5-4.3c.1 1.8 1.3 3.1 3 3.1 1 0 2-.3 2.7-.8l.3 1.5c-.8.5-1.9.8-3.1.8-2.8 0-4.6-2-4.6-4.8 0-3 2-5 4.5-5 2.2 0 3.5 1.4 3.5 3.6 0 .5-.1 1.1-.2 1.5 0 0-6.1 0-6.1.1zm4.8-1.3c0-1.5-.6-2.4-2.1-2.4-1.6 0-2.5 1.2-2.6 2.4h4.7zm9.8-7.9l1.6-.3v13.7h-1.6v-.8c-.7.6-1.5 1.1-2.6 1.1-2.6 0-4.1-2.1-4.1-4.8 0-2.8 1.9-4.9 4.7-4.9.7 0 1.4.1 2 .3v-4.3zm-2.1 5.5c-1.9 0-2.9 1.5-2.9 3.4 0 2 1 3.4 2.7 3.4.9 0 1.6-.3 2.2-.9V689c-.5-.5-1.2-.7-2-.7zm15.9-4c-.4-.2-1-.4-1.5-.4-.9 0-1.4.6-1.4 1.9v1.3h2.9l-.1 1.5h-2.8v7.7h-1.6v-7.7l-1.6-.1.1-1 1.5-.4v-1.2c0-2.6 1.2-3.5 3-3.5.7 0 1.4.2 1.8.4.1.1-.3 1.6-.3 1.5zm5.4 12.3c-2.6 0-4.4-1.9-4.4-4.9 0-2.9 1.9-4.9 4.5-4.9s4.4 1.9 4.4 4.9c0 3-2 4.9-4.5 4.9zm0-8.3c-1.8 0-2.8 1.4-2.8 3.4s1.1 3.4 2.9 3.4c1.8 0 2.8-1.4 2.8-3.4-.1-1.9-1.1-3.4-2.9-3.4zm8.3 8h-1.6v-9.2l1.6-.3v1.6c.6-1 1.4-1.6 2.6-1.6.6 0 1.2.2 1.7.5l-.4 1.5c-.5-.3-1-.4-1.5-.4-.9 0-1.7.6-2.4 1.9v6zm15.6-10.9v10.9h-1.7v-10.9h-4.4v-1.6h10.4v1.6h-4.3zm5.8 1.7v5.8c0 1.6.6 2.1 1.8 2.1 1.1 0 2-.5 2.5-1v-6.9h1.6v9.2l-1.6.3v-1.3c-.8.8-1.9 1.3-3.1 1.3-1.8 0-2.9-1.2-2.9-3.2v-6.3h1.7zm9.9 4.9c.1 1.8 1.3 3.1 3 3.1 1 0 2-.3 2.7-.8l.3 1.5c-.8.5-1.9.8-3.1.8-2.8 0-4.6-2-4.6-4.8 0-3 2-5 4.5-5 2.2 0 3.5 1.4 3.5 3.6 0 .5-.1 1.1-.2 1.5 0 0-6.1 0-6.1.1zm4.8-1.3c0-1.5-.6-2.4-2.1-2.4-1.6 0-2.5 1.2-2.6 2.4h4.7zm6.1 5.9c-1.1 0-2.4-.3-3.2-.9l.4-1.5c.8.5 1.9.9 2.8.9 1 0 1.8-.5 1.8-1.3 0-.9-1.1-1.2-2.2-1.5-1.3-.4-2.7-1-2.7-2.7s1.4-2.8 3.3-2.8c1.1 0 2.1.3 3 .7l-.4 1.5c-.8-.4-1.9-.7-2.6-.7-1 0-1.6.4-1.6 1.1 0 .9 1 1.2 2.1 1.5 1.3.4 2.8 1 2.8 2.7s-1.5 3-3.5 3zm11.7-13.8l1.6-.3v13.7h-1.6v-.8c-.7.6-1.5 1.1-2.6 1.1-2.6 0-4.1-2.1-4.1-4.8 0-2.8 1.9-4.9 4.7-4.9.7 0 1.4.1 2 .3v-4.3zm-2.1 5.5c-1.9 0-2.9 1.5-2.9 3.4 0 2 1 3.4 2.7 3.4.9 0 1.6-.3 2.2-.9V689c-.5-.5-1.2-.7-2-.7zm11.2 7c-.7.8-1.5 1.3-2.5 1.3-1.7 0-2.9-1.1-2.9-2.6 0-1.6 1.2-3.1 5.5-3.3v-.3c0-1.5-.6-2.1-2.1-2.1-.9 0-2.1.4-3 1l-.3-1.5c.8-.6 2.1-1.1 3.4-1.1 2.5 0 3.6 1.1 3.5 3.6v3.8c0 .8.1.9.9.9l-.1 1.4c-1.4.2-2-.3-2.4-1.1zm.1-3.6c-2.7.4-3.7.9-3.7 2 0 .8.6 1.4 1.6 1.4.8 0 1.6-.4 2.1-1v-2.4zm8 4.7l-.6 1.6c-.9 2.3-1.8 3-3.2 3-.7 0-1.3-.2-1.9-.5l.5-1.5c.5.2 1 .4 1.5.4.7 0 1.1-.4 1.8-2l.6-1.4-3.6-9h1.8l2.7 7.1 2.6-7.1h1.7l-3.9 9.4zm5.1.2c-.8 0-1.3-.6-1.3-1.3s.5-1.3 1.3-1.3c.7 0 1.3.6 1.3 1.3s-.5 1.3-1.3 1.3z"/></g><g class="st2"><path class="st3" d="M10369.4 719c0-1.3-1-1.8-3-2.3-1.8-.5-3.7-1.2-3.7-3.7 0-2.1 1.7-3.5 4.2-3.5 1.4 0 2.7.4 3.9 1.1l-.6 1.5c-1-.6-2.2-1-3.3-1-1.8 0-2.5.8-2.5 1.9 0 1.3 1.1 1.7 3 2.2 1.8.5 3.7 1.4 3.7 3.7 0 2.2-1.8 3.7-4.4 3.7-1.5 0-3-.4-4.2-1.2l.6-1.5c1.1.7 2.2 1.2 3.7 1.2 1.4 0 2.6-.9 2.6-2.1zm5-1c.1 1.8 1.3 3.1 3 3.1 1 0 2-.3 2.7-.8l.3 1.5c-.8.5-1.9.8-3.1.8-2.8 0-4.6-2-4.6-4.8 0-3 2-5 4.5-5 2.2 0 3.5 1.4 3.5 3.6 0 .5-.1 1.1-.2 1.5 0 0-6.1 0-6.1.1zm4.8-1.3c0-1.5-.6-2.4-2.1-2.4-1.6 0-2.5 1.2-2.6 2.4h4.7zm4.8 1.3c.1 1.8 1.3 3.1 3 3.1 1 0 2-.3 2.7-.8l.3 1.5c-.8.5-1.9.8-3.1.8-2.8 0-4.6-2-4.6-4.8 0-3 2-5 4.5-5 2.2 0 3.5 1.4 3.5 3.6 0 .5-.1 1.1-.2 1.5 0 0-6.1 0-6.1.1zm4.8-1.3c0-1.5-.6-2.4-2.1-2.4-1.6 0-2.5 1.2-2.6 2.4h4.7zm12 5.7l-.6 1.6c-.9 2.3-1.8 3-3.2 3-.7 0-1.3-.2-1.9-.5l.5-1.5c.5.2 1 .4 1.5.4.7 0 1.1-.4 1.8-2l.6-1.4-3.6-9h1.8l2.7 7.1 2.6-7.1h1.7l-3.9 9.4zm8.8.2c-2.6 0-4.4-1.9-4.4-4.9 0-2.9 1.9-4.9 4.5-4.9s4.4 1.9 4.4 4.9c0 3-1.9 4.9-4.5 4.9zm0-8.3c-1.8 0-2.8 1.4-2.8 3.4s1.1 3.4 2.9 3.4c1.8 0 2.8-1.4 2.8-3.4 0-1.9-1.1-3.4-2.9-3.4zm8.3-1.2v5.8c0 1.6.6 2.1 1.8 2.1 1.1 0 2-.5 2.5-1v-6.9h1.6v9.2l-1.6.3v-1.3c-.8.8-1.9 1.3-3.1 1.3-1.8 0-2.9-1.2-2.9-3.2v-6.3h1.7zm16.1 9.5c-1.8 0-2.7-.9-2.7-2.9l.1-5.1-1.5-.1.1-1 1.5-.5v-2h1.6l-.1 2.1h2.9l-.1 1.5h-2.9l-.1 5.2c0 .9.4 1.3 1.2 1.3.6 0 1.1-.1 1.7-.3l.3 1.4c-.6.3-1.3.4-2 .4zm10-.3v-5.8c0-1.6-.6-2.1-1.8-2.1-1.1 0-2 .5-2.5 1v6.9h-1.6v-13.5l1.6-.3v5.6c.8-.8 1.9-1.3 3.1-1.3 1.8 0 2.9 1.2 2.9 3.2v6.3h-1.7zm5.4-4.3c.1 1.8 1.3 3.1 3 3.1 1 0 2-.3 2.7-.8l.3 1.5c-.8.5-1.9.8-3.1.8-2.8 0-4.6-2-4.6-4.8 0-3 2-5 4.5-5 2.2 0 3.5 1.4 3.5 3.6 0 .5-.1 1.1-.2 1.5.1 0-6.1 0-6.1.1zm4.8-1.3c0-1.5-.6-2.4-2.1-2.4-1.6 0-2.5 1.2-2.6 2.4h4.7zm9.7 5.6v-5.8c0-1.6-.6-2.1-1.9-2.1-1 0-1.9.5-2.4 1v6.9h-1.6v-9.2l1.6-.3v1.4c.8-.8 1.9-1.4 3-1.4 1.9 0 3 1.2 3 3.2v6.3h-1.7zm5.8.3c-.8 0-1.3-.6-1.3-1.3s.6-1.3 1.3-1.3 1.3.6 1.3 1.3c-.1.7-.6 1.3-1.3 1.3zm-1-13.3h2l-.5 9.2h-1l-.5-9.2z"/></g></g></svg>