<svg id="Layer_1" xmlns="http://www.w3.org/2000/svg" viewBox="0 0 392 374"><style>.st0{enable-background:new}.st1{fill:#4e6170}.st2{fill:#f37021}.st3{fill:#fff}.st4{fill:#2595a5}.st5{fill:#25a575}.st6{fill:none;stroke:#f37021}.st7,.st8{fill:none;stroke:#25a575}.st8{stroke:#2595a5}</style><g id="Group_344" transform="translate(-10272 -464)"><g class="st0"><path class="st1" d="M10313.3 483.9l-.8 1.6-4.4-2.3h-.3c-3 0-5.1-1.9-5.1-5.2 0-3.1 2.2-5.3 5.2-5.3 2.9 0 5.1 1.9 5.1 5.2 0 2.1-1 3.7-2.6 4.6l2.9 1.4zm-5.5-9.5c-1.9 0-3.1 1.4-3.1 3.6s1.2 3.7 3.2 3.7c1.9 0 3.2-1.5 3.2-3.6-.1-2.3-1.4-3.7-3.3-3.7zm8.6 1.2v4.5c0 1.1.4 1.4 1.2 1.4.7 0 1.3-.3 1.6-.6v-5.3h1.9v7.3l-1.9.3v-1.1c-.6.7-1.5 1.1-2.4 1.1-1.4 0-2.3-1-2.3-2.5v-5.1h1.9zm10.7 6.6c-.5.6-1.2 1.1-2.1 1.1-1.3 0-2.3-.9-2.3-2.1 0-1.4 1-2.5 4.4-2.6v-.2c0-1-.4-1.4-1.5-1.4-.8 0-1.7.3-2.4.8l-.4-1.5c.7-.4 1.9-.9 3.1-.9 2.3 0 3.2 1 3.1 3v2.6c0 .6.1.6.7.7l-.1 1.4c-1.5.2-2.2-.2-2.5-.9zm0-2.7c-1.8.2-2.5.6-2.5 1.4 0 .6.4 1 1.1 1 .6 0 1.1-.3 1.4-.6v-1.8zm3.8 3.5v-10.7l1.9-.3v11h-1.9zm4.9-8.7c-.7 0-1.2-.4-1.2-1.1 0-.7.4-1.1 1.2-1.1.8 0 1.2.5 1.2 1.1-.1.6-.5 1.1-1.2 1.1zm-1 8.7v-7.3l1.9-.3v7.6h-1.9zm6.5.2c-1.6 0-2.5-.7-2.4-2.5l.1-3.5-1.2-.1v-1.2l1.2-.4v-1.6h1.8v1.7h2.1v1.6h-2.1l-.1 3.4c0 .7.3 1 1 1 .4 0 .8-.1 1.2-.2l.3 1.5c-.7.2-1.2.3-1.9.3z"/><path class="st1" d="M10348.2 482.9l-.4 1.2c-.7 2-1.6 2.6-2.9 2.6-.7 0-1.3-.2-1.9-.4l.6-1.6c.4.2.8.4 1.2.4.5 0 .8-.2 1.2-1.2l.3-.8-2.9-7.3h2l1.8 5.3 1.8-5.3h2l-2.8 7.1z"/></g><g class="st0"><path class="st1" d="M10563.5 786.2c-.8-.5-1.7-.8-2.6-.8-2 0-3.3 1.3-3.3 3.5s1.3 3.6 3.3 3.6c1 0 2-.4 2.7-.9l.4 1.8c-.8.5-2 .8-3.2.8-3.1 0-5.2-1.9-5.2-5.2 0-3.2 2.1-5.3 5.2-5.3 1.2 0 2.4.3 3.2.8l-.5 1.7zm2.2 7.8v-10.7l1.9-.3v11h-1.9zm4.9-8.7c-.7 0-1.2-.4-1.2-1.1 0-.7.4-1.1 1.2-1.1.8 0 1.2.5 1.2 1.1-.1.6-.5 1.1-1.2 1.1zm-1 8.7v-7.3l1.9-.3v7.6h-1.9zm8.7 0v-4.5c0-1.1-.4-1.5-1.3-1.5-.7 0-1.3.3-1.6.7v5.3h-1.9v-7.3l1.9-.3v1.2c.7-.7 1.5-1.2 2.4-1.2 1.5 0 2.4 1 2.4 2.5v5.1h-1.9zm4.8-8.7c-.7 0-1.2-.4-1.2-1.1 0-.7.4-1.1 1.2-1.1.8 0 1.2.5 1.2 1.1 0 .6-.4 1.1-1.2 1.1zm-.9 8.7v-7.3l1.9-.3v7.6h-1.9zm7.3.2c-2.4 0-3.8-1.5-3.8-3.9s1.6-4 3.9-4c1 0 1.9.2 2.5.6l-.4 1.5c-.6-.4-1.3-.6-2-.6-1.4 0-2.1.9-2.1 2.4s.8 2.4 2.1 2.4c.8 0 1.5-.2 2-.6l.3 1.5c-.6.5-1.5.7-2.5.7zm8-1c-.5.6-1.2 1.1-2.1 1.1-1.3 0-2.3-.9-2.3-2.1 0-1.4 1-2.5 4.4-2.6v-.2c0-1-.4-1.4-1.5-1.4-.8 0-1.7.3-2.4.8l-.4-1.5c.7-.4 1.9-.9 3.1-.9 2.3 0 3.2 1 3.1 3v2.6c0 .6.1.6.7.7l-.1 1.4c-1.5.2-2.2-.2-2.5-.9zm0-2.7c-1.8.2-2.5.6-2.5 1.4 0 .6.4 1 1.1 1 .6 0 1.1-.3 1.4-.6v-1.8zm3.8 3.5v-10.7l1.9-.3v11h-1.9zm10.8-3.1h-1.1v3.1h-2v-10h3.2c2.8 0 4.1 1.4 4.1 3.3.1 2.3-1.5 3.6-4.2 3.6zm0-5.3h-1.2v3.6h1.2c1.5 0 2.2-.7 2.2-1.8.1-1.2-.7-1.8-2.2-1.8zm7.7 8.4h-1.9v-7.3l1.9-.3v1.2c.5-.8 1.1-1.2 1.9-1.2.4 0 .9.1 1.3.3l-.4 1.7c-.4-.2-.7-.3-1.1-.3-.7 0-1.3.4-1.8 1.3v4.6zm8.1-.8c-.5.6-1.2 1.1-2.1 1.1-1.3 0-2.3-.9-2.3-2.1 0-1.4 1-2.5 4.4-2.6v-.2c0-1-.4-1.4-1.5-1.4-.8 0-1.7.3-2.4.8l-.4-1.5c.7-.4 1.9-.9 3.1-.9 2.3 0 3.2 1 3.1 3v2.6c0 .6.1.6.7.7l-.1 1.4c-1.5.2-2.1-.2-2.5-.9zm0-2.7c-1.8.2-2.5.6-2.5 1.4 0 .6.4 1 1.1 1 .6 0 1.1-.3 1.4-.6v-1.8zm7.3 3.7c-2.4 0-3.8-1.5-3.8-3.9s1.6-4 3.9-4c1 0 1.9.2 2.5.6l-.4 1.5c-.6-.4-1.3-.6-2-.6-1.4 0-2.1.9-2.1 2.4s.8 2.4 2.1 2.4c.8 0 1.5-.2 2-.6l.3 1.5c-.6.5-1.5.7-2.5.7zm6.7 0c-1.6 0-2.5-.7-2.4-2.5l.1-3.5-1.2-.1v-1.2l1.2-.4v-1.6h1.8v1.7h2.1v1.6h-2.1l-.1 3.4c0 .7.3 1 1 1 .4 0 .8-.1 1.2-.2l.3 1.5c-.8.2-1.3.3-1.9.3zm4.1-8.9c-.7 0-1.2-.4-1.2-1.1 0-.7.4-1.1 1.2-1.1.8 0 1.2.5 1.2 1.1-.1.6-.5 1.1-1.2 1.1zm-1 8.7v-7.3l1.9-.3v7.6h-1.9zm7.3.2c-2.4 0-3.8-1.5-3.8-3.9s1.6-4 3.9-4c1 0 1.9.2 2.5.6l-.4 1.5c-.6-.4-1.3-.6-2-.6-1.4 0-2.1.9-2.1 2.4s.8 2.4 2.1 2.4c.8 0 1.5-.2 2-.6l.3 1.5c-.6.5-1.5.7-2.5.7zm5.5-3.5c.1 1.2.9 2 2.2 2 .8 0 1.6-.3 2.3-.7l.2 1.6c-.7.4-1.7.6-2.7.6-2.4 0-3.9-1.5-3.9-3.9s1.6-4 3.8-4c2 0 3 1.2 3 3 0 .4-.1.9-.2 1.2.1.1-4.7.2-4.7.2zm3.2-1.2v-.1c0-1-.4-1.6-1.4-1.6-1 0-1.7.8-1.8 1.8l3.2-.1z"/></g><g class="st0"><path class="st1" d="M10556.2 814v-10h1.9v10h-1.9zm13.4 0v-4.5c0-1.1-.4-1.5-1.2-1.5-.7 0-1.2.3-1.5.7v5.2h-1.9v-4.5c0-1.1-.4-1.5-1.2-1.5-.7 0-1.2.3-1.5.6v5.3h-1.9v-7.3l1.9-.3v1c.7-.7 1.4-1.1 2.4-1.1.9 0 1.6.4 2 1.3.7-.8 1.6-1.3 2.6-1.3 1.4 0 2.3 1 2.3 2.6v5.1h-2zm7.8-7.6c2 0 3.2 1.6 3.2 3.9 0 2.4-1.6 4-3.7 4-.5 0-1.1-.1-1.6-.2v3.5h-1.9v-10.9l1.9-.3v.9c.5-.5 1.2-.9 2.1-.9zm-2.1 5.9c.4.3.8.4 1.4.4 1.3 0 2-1 2-2.4s-.7-2.4-1.9-2.4c-.6 0-1.1.2-1.5.6v3.8zm8.8 1.7h-1.9v-7.3l1.9-.3v1.2c.5-.8 1.1-1.2 1.9-1.2.4 0 .9.1 1.3.3l-.4 1.7c-.4-.2-.7-.3-1.1-.3-.7 0-1.3.4-1.8 1.3v4.6zm7.6.2c-2.2 0-3.7-1.5-3.7-3.9s1.6-4 3.8-4c2.2 0 3.7 1.5 3.7 3.9 0 2.5-1.7 4-3.8 4zm0-6.3c-1.2 0-1.9 1-1.9 2.4s.7 2.4 1.9 2.4 1.9-1 1.9-2.4-.7-2.4-1.9-2.4zm8.9 6.1h-2l-2.8-7.4h2l1.9 5.4 1.8-5.4h2l-2.9 7.4zm5.2-3.3c.1 1.2.9 2 2.2 2 .8 0 1.6-.3 2.3-.7l.2 1.6c-.7.4-1.7.6-2.7.6-2.4 0-3.9-1.5-3.9-3.9s1.6-4 3.8-4c2 0 3 1.2 3 3 0 .4-.1.9-.2 1.2.1.1-4.7.2-4.7.2zm3.2-1.2v-.1c0-1-.4-1.6-1.4-1.6-1 0-1.7.8-1.8 1.8l3.2-.1zm12.6 4.5v-4.5c0-1.1-.4-1.5-1.2-1.5-.7 0-1.2.3-1.5.7v5.2h-1.9v-4.5c0-1.1-.4-1.5-1.2-1.5-.7 0-1.2.3-1.5.6v5.3h-1.9v-7.3l1.9-.3v1c.7-.7 1.4-1.1 2.4-1.1.9 0 1.6.4 2 1.3.7-.8 1.6-1.3 2.6-1.3 1.4 0 2.3 1 2.3 2.6v5.1h-2zm5.3-3.3c.1 1.2.9 2 2.2 2 .8 0 1.6-.3 2.3-.7l.2 1.6c-.7.4-1.7.6-2.7.6-2.4 0-3.9-1.5-3.9-3.9s1.6-4 3.8-4c2 0 3 1.2 3 3 0 .4-.1.9-.2 1.2.1.1-4.7.2-4.7.2zm3.2-1.2v-.1c0-1-.4-1.6-1.4-1.6-1 0-1.7.8-1.8 1.8l3.2-.1zm8.2 4.5v-4.5c0-1.1-.4-1.5-1.3-1.5-.7 0-1.3.3-1.6.7v5.3h-1.9v-7.3l1.9-.3v1.2c.7-.7 1.5-1.2 2.4-1.2 1.5 0 2.4 1 2.4 2.5v5.1h-1.9zm6.4.2c-1.6 0-2.5-.7-2.4-2.5l.1-3.5-1.2-.1v-1.2l1.2-.4v-1.6h1.8v1.7h2.1v1.6h-2.1l-.1 3.4c0 .7.3 1 1 1 .4 0 .8-.1 1.2-.2l.3 1.5c-.7.2-1.2.3-1.9.3z"/></g><g class="st0"><path class="st1" d="M10564.7 834h-2l-.8-2.4h-4l-.8 2.4h-2l3.6-10h2.4l3.6 10zm-4.8-8.3l-1.5 4.3h3l-1.5-4.3zm9.2 8.5c-2.4 0-3.8-1.5-3.8-3.9s1.6-4 3.9-4c1 0 1.9.2 2.5.6l-.4 1.5c-.6-.4-1.3-.6-2-.6-1.4 0-2.1.9-2.1 2.4s.8 2.4 2.1 2.4c.8 0 1.5-.2 2-.6l.3 1.5c-.5.5-1.5.7-2.5.7zm6.8 0c-1.6 0-2.5-.7-2.4-2.5l.1-3.5-1.2-.1v-1.2l1.2-.4v-1.6h1.8v1.7h2.1v1.6h-2.1l-.1 3.4c0 .7.3 1 1 1 .4 0 .8-.1 1.2-.2l.3 1.5c-.8.2-1.3.3-1.9.3zm4-8.9c-.7 0-1.2-.4-1.2-1.1 0-.7.4-1.1 1.2-1.1.8 0 1.2.5 1.2 1.1 0 .6-.4 1.1-1.2 1.1zm-.9 8.7v-7.3l1.9-.3v7.6h-1.9zm7.7 0h-2l-2.8-7.4h2l1.9 5.4 1.8-5.4h2l-2.9 7.4zm4.8-8.7c-.7 0-1.2-.4-1.2-1.1 0-.7.4-1.1 1.2-1.1.8 0 1.2.5 1.2 1.1-.1.6-.5 1.1-1.2 1.1zm-1 8.7v-7.3l1.9-.3v7.6h-1.9zm6.5.2c-1.6 0-2.5-.7-2.4-2.5l.1-3.5-1.2-.1v-1.2l1.2-.4v-1.6h1.8v1.7h2.1v1.6h-2.1l-.1 3.4c0 .7.3 1 1 1 .4 0 .8-.1 1.2-.2l.3 1.5c-.7.2-1.2.3-1.9.3zm4.1-8.9c-.7 0-1.2-.4-1.2-1.1 0-.7.4-1.1 1.2-1.1.8 0 1.2.5 1.2 1.1 0 .6-.4 1.1-1.2 1.1zm-.9 8.7v-7.3l1.9-.3v7.6h-1.9zm5.3-3.3c.1 1.2.9 2 2.2 2 .8 0 1.6-.3 2.3-.7l.2 1.6c-.7.4-1.7.6-2.7.6-2.4 0-3.9-1.5-3.9-3.9s1.6-4 3.8-4c2 0 3 1.2 3 3 0 .4-.1.9-.2 1.2.1.1-4.7.2-4.7.2zm3.2-1.2v-.1c0-1-.4-1.6-1.4-1.6-1 0-1.7.8-1.8 1.8l3.2-.1zm5.6 4.8c-1 0-2.1-.3-2.9-.7l.4-1.5c.7.4 1.7.7 2.5.7.7 0 1.2-.3 1.2-.8 0-.6-.6-.8-1.5-1-1.4-.3-2.5-.9-2.5-2.3s1.2-2.3 2.9-2.3c.9 0 2 .2 2.7.6l-.4 1.5c-.7-.4-1.7-.6-2.3-.6-.7 0-1.1.3-1.1.7 0 .6.6.8 1.5 1 1.4.3 2.5.9 2.5 2.3.1 1.3-1.1 2.4-3 2.4z"/></g><g class="st0"><path class="st1" d="M10564.7 483h-2l-.8-2.4h-4l-.8 2.4h-2l3.6-10h2.4l3.6 10zm-4.8-8.3l-1.5 4.3h3l-1.5-4.3zm10.7-2.4l1.9-.3v11h-1.9v-.7c-.5.5-1.2 1-2.1 1-2 0-3.2-1.6-3.2-3.9 0-2.4 1.6-4 3.7-4 .5 0 1.1.1 1.6.2v-3.3zm-1.4 4.6c-1.3 0-2 1-2 2.4s.7 2.4 1.9 2.4c.6 0 1.1-.2 1.5-.6v-3.7c-.3-.4-.8-.5-1.4-.5zm9.1 6.1h-2l-2.8-7.4h2l1.9 5.4 1.8-5.4h2l-2.9 7.4zm8-.8c-.5.6-1.2 1.1-2.1 1.1-1.3 0-2.3-.9-2.3-2.1 0-1.4 1-2.5 4.4-2.6v-.2c0-1-.4-1.4-1.5-1.4-.8 0-1.7.3-2.4.8l-.4-1.5c.7-.4 1.9-.9 3.1-.9 2.3 0 3.2 1 3.1 3v2.6c0 .6.1.6.7.7l-.1 1.4c-1.5.2-2.2-.2-2.5-.9zm0-2.7c-1.8.2-2.5.6-2.5 1.4 0 .6.4 1 1.1 1 .6 0 1.1-.3 1.4-.6v-1.8zm8.6 3.5v-4.5c0-1.1-.4-1.5-1.3-1.5-.7 0-1.3.3-1.6.7v5.3h-1.9v-7.3l1.9-.3v1.2c.7-.7 1.5-1.2 2.4-1.2 1.5 0 2.4 1 2.4 2.5v5.1h-1.9zm7.3.2c-2.4 0-3.8-1.5-3.8-3.9s1.6-4 3.9-4c1 0 1.9.2 2.5.6l-.4 1.5c-.6-.4-1.3-.6-2-.6-1.4 0-2.1.9-2.1 2.4s.8 2.4 2.1 2.4c.8 0 1.5-.2 2-.6l.3 1.5c-.6.5-1.5.7-2.5.7zm5-8.9c-.7 0-1.2-.4-1.2-1.1 0-.7.4-1.1 1.2-1.1.8 0 1.2.5 1.2 1.1 0 .6-.4 1.1-1.2 1.1zm-.9 8.7v-7.3l1.9-.3v7.6h-1.9zm8.7 0v-4.5c0-1.1-.4-1.5-1.3-1.5-.7 0-1.3.3-1.6.7v5.3h-1.9v-7.3l1.9-.3v1.2c.7-.7 1.5-1.2 2.4-1.2 1.5 0 2.4 1 2.4 2.5v5.1h-1.9zm3.4-1c0-.7.5-1.3 1.4-1.6-.8-.4-1.3-1.2-1.3-2.3 0-1.5 1.2-2.8 3.2-2.8.8 0 1.6.2 2.1.5l2-.2.1 1.6-1.4-.2c.2.2.3.8.3 1.2 0 1.5-1.3 2.7-3.1 2.7-.4 0-.6 0-1-.1-.3.1-.6.3-.6.6 0 .4.3.6 1.5.6h.8c2.1 0 3.3.6 3.3 2 0 1.7-2 2.9-4.3 2.9-2 0-3.5-.7-3.5-2 0-.8.6-1.5 1.7-1.6-.7-.2-1.2-.7-1.2-1.3zm1.2 2.6c0 .7.8 1.2 2.1 1.2s2.3-.5 2.3-1.2-.7-.8-2-.8c-.5 0-1.1 0-1.4-.1-.6.1-1 .4-1 .9zm2.1-4.9c.8 0 1.3-.6 1.3-1.5s-.5-1.5-1.4-1.5c-.8 0-1.4.6-1.4 1.6.1.8.6 1.4 1.5 1.4zm16.3-4.5c-.8-.5-1.7-.8-2.6-.8-2 0-3.3 1.3-3.3 3.5s1.3 3.6 3.3 3.6c1 0 2-.4 2.7-.9l.4 1.8c-.8.5-2 .8-3.2.8-3.1 0-5.2-1.9-5.2-5.2 0-3.2 2.1-5.3 5.2-5.3 1.2 0 2.4.3 3.2.8l-.5 1.7zm6.1 7c-.5.6-1.2 1.1-2.1 1.1-1.3 0-2.3-.9-2.3-2.1 0-1.4 1-2.5 4.4-2.6v-.2c0-1-.4-1.4-1.5-1.4-.8 0-1.7.3-2.4.8l-.4-1.5c.7-.4 1.9-.9 3.1-.9 2.3 0 3.2 1 3.1 3v2.6c0 .6.1.6.7.7l-.1 1.4c-1.5.2-2.1-.2-2.5-.9zm0-2.7c-1.8.2-2.5.6-2.5 1.4 0 .6.4 1 1.1 1 .6 0 1.1-.3 1.4-.6v-1.8zm5.7 3.5h-1.9v-7.3l1.9-.3v1.2c.5-.8 1.1-1.2 1.9-1.2.4 0 .9.1 1.3.3l-.4 1.7c-.4-.2-.7-.3-1.1-.3-.7 0-1.3.4-1.8 1.3v4.6zm5.7-3.3c.1 1.2.9 2 2.2 2 .8 0 1.6-.3 2.3-.7l.2 1.6c-.7.4-1.7.6-2.7.6-2.4 0-3.9-1.5-3.9-3.9s1.6-4 3.8-4c2 0 3 1.2 3 3 0 .4-.1.9-.2 1.2.1.1-4.7.2-4.7.2zm3.2-1.2v-.1c0-1-.4-1.6-1.4-1.6-1 0-1.7.8-1.8 1.8l3.2-.1z"/></g><g class="st0"><path class="st1" d="M10556.2 503v-10h1.9v10h-1.9zm8.9 0v-4.5c0-1.1-.4-1.5-1.3-1.5-.7 0-1.3.3-1.6.7v5.3h-1.9v-7.3l1.9-.3v1.2c.7-.7 1.5-1.2 2.4-1.2 1.5 0 2.4 1 2.4 2.5v5.1h-1.9zm8.2-9.2c-.4-.2-.8-.3-1.2-.3-.7 0-1 .4-1 1.3v.8h2.2v1.6h-2.1v5.8h-1.9v-5.8l-1.3-.1.1-1.2 1.2-.4v-.8c0-2.1 1-2.9 2.7-2.9.7 0 1.4.2 1.7.4 0 0-.4 1.7-.4 1.6zm4.5 9.4c-2.2 0-3.7-1.5-3.7-3.9s1.6-4 3.8-4c2.2 0 3.7 1.5 3.7 3.9 0 2.5-1.6 4-3.8 4zm0-6.3c-1.2 0-1.9 1-1.9 2.4s.7 2.4 1.9 2.4 1.9-1 1.9-2.4-.7-2.4-1.9-2.4zm7.3 6.1h-1.9v-7.3l1.9-.3v1.2c.5-.8 1.1-1.2 1.9-1.2.4 0 .9.1 1.3.3l-.4 1.7c-.4-.2-.7-.3-1.1-.3-.7 0-1.3.4-1.8 1.3v4.6zm13.6 0v-4.5c0-1.1-.4-1.5-1.2-1.5-.7 0-1.2.3-1.5.7v5.2h-1.9v-4.5c0-1.1-.4-1.5-1.2-1.5-.7 0-1.2.3-1.5.6v5.3h-1.9v-7.3l1.9-.3v1c.7-.7 1.4-1.1 2.4-1.1.9 0 1.6.4 2 1.3.7-.8 1.6-1.3 2.6-1.3 1.4 0 2.3 1 2.3 2.6v5.1h-2zm7.7-.8c-.5.6-1.2 1.1-2.1 1.1-1.3 0-2.3-.9-2.3-2.1 0-1.4 1-2.5 4.4-2.6v-.2c0-1-.4-1.4-1.5-1.4-.8 0-1.7.3-2.4.8l-.4-1.5c.7-.4 1.9-.9 3.1-.9 2.3 0 3.2 1 3.1 3v2.6c0 .6.1.6.7.7l-.1 1.4c-1.5.2-2.1-.2-2.5-.9zm0-2.7c-1.8.2-2.5.6-2.5 1.4 0 .6.4 1 1.1 1 .6 0 1.1-.3 1.4-.6v-1.8zm6.5 3.7c-1.6 0-2.5-.7-2.4-2.5l.1-3.5-1.2-.1v-1.2l1.2-.4v-1.6h1.8v1.7h2.1v1.6h-2.1l-.1 3.4c0 .7.3 1 1 1 .4 0 .8-.1 1.2-.2l.3 1.5c-.8.2-1.3.3-1.9.3zm4-8.9c-.7 0-1.2-.4-1.2-1.1 0-.7.4-1.1 1.2-1.1.8 0 1.2.5 1.2 1.1 0 .6-.4 1.1-1.2 1.1zm-.9 8.7v-7.3l1.9-.3v7.6h-1.9zm7.2.2c-2.2 0-3.7-1.5-3.7-3.9s1.6-4 3.8-4c2.2 0 3.7 1.5 3.7 3.9 0 2.5-1.6 4-3.8 4zm0-6.3c-1.2 0-1.9 1-1.9 2.4s.7 2.4 1.9 2.4 1.9-1 1.9-2.4-.7-2.4-1.9-2.4zm10.2 6.1v-4.5c0-1.1-.4-1.5-1.3-1.5-.7 0-1.3.3-1.6.7v5.3h-1.9v-7.3l1.9-.3v1.2c.7-.7 1.5-1.2 2.4-1.2 1.5 0 2.4 1 2.4 2.5v5.1h-1.9z"/></g><g id="Group_340" transform="translate(-2 -1)"><path id="Union_2" class="st2" d="M10331.2 562.8c-49.2 49.3-49.1 129.3.2 178.5 23.4 23.3 55 36.5 88 36.8h.8c27.4-.1 54.1-9.2 75.8-25.9l-75.8-103.2V525.7c-33.4 0-65.5 13.3-89 37.1z"/><g class="st0"><path class="st3" d="M10347.7 651.2l.5 1.6c-2.9.7-4.9 2.2-5.6 4.7.8-.8 1.8-1.2 3.2-1.2 2 0 3.7 1.5 3.7 3.9s-1.7 4.2-4.3 4.2c-2.8 0-4.4-2.4-4.4-5.2.1-3.6 2.3-6.9 6.9-8zm-2.4 11.6c1.5 0 2.5-1.1 2.5-2.6s-1-2.5-2.4-2.5c-1.1 0-2.2.6-2.7 1.1-.1.2-.1.5-.1.8 0 1.7 1 3.2 2.7 3.2zm10.8 1.5c-2.8 0-4.8-2-4.8-5s2-5 4.8-5 4.8 2 4.8 5-2 5-4.8 5zm0-8.5c-1.9 0-3.2 1.5-3.2 3.5s1.3 3.5 3.2 3.5 3.2-1.5 3.2-3.5-1.3-3.5-3.2-3.5zm9.4 1.9c-2 0-3.3-1.5-3.3-3.3 0-1.8 1.3-3.3 3.3-3.3 2.1 0 3.3 1.5 3.3 3.3 0 1.7-1.3 3.3-3.3 3.3zm0-5.6c-1.4 0-2.2 1-2.2 2.3 0 1.2.8 2.3 2.2 2.3s2.2-1.1 2.2-2.3c0-1.3-.8-2.3-2.2-2.3zm-.6 12.2h-1.3l10-13.1h1.3l-10 13.1zm8.2.2c-2.1 0-3.3-1.5-3.3-3.3 0-1.8 1.3-3.3 3.3-3.3 2 0 3.3 1.5 3.3 3.3 0 1.8-1.3 3.3-3.3 3.3zm0-5.6c-1.4 0-2.2 1.1-2.2 2.3 0 1.3.8 2.3 2.2 2.3s2.2-1 2.2-2.3c0-1.2-.8-2.3-2.2-2.3z"/></g></g><g id="Group_339"><path id="Intersection_34" class="st4" d="M10436.4 639l-.4-.5v-121c68.7 0 124.6 54.1 126.5 121.5h-126.1z"/><path id="Intersection_33" class="st5" d="M10448 656.5v-.5h126.4c.1 1.5.1 3 .1 4.5 0 39.3-18.7 76.3-50.2 99.7l-76.3-103.7z"/><g class="st0"><path class="st3" d="M10473.9 589v-1.4c2.8-2.1 5.3-3.6 5.3-5.2 0-.9-.7-1.6-1.9-1.6-1 0-1.9.4-2.8 1.1l-.6-1.4c.9-.7 2.1-1.3 3.6-1.3 2 0 3.5 1.2 3.5 2.9 0 2.2-2 3.4-4.6 5.3h5v1.6h-7.5zm12.2-4.4c2.6 0 4.3 1.5 4.3 3.8 0 2.6-2 4.3-4.4 4.3-1.3 0-2.7-.4-3.5-.9l.3-1.6c.8.4 2 .9 3.2.9 1.6 0 2.7-1 2.7-2.7 0-1.3-1-2.5-2.8-2.5-1.2 0-1.7.1-2.5.3l-.4-.4.8-6.4h6.2l.1 1.6h-5l-.5 3.5c.5.2.8.1 1.5.1zm8.2-1.9c-2 0-3.3-1.5-3.3-3.3 0-1.8 1.3-3.3 3.3-3.3 2.1 0 3.3 1.5 3.3 3.3 0 1.7-1.2 3.3-3.3 3.3zm0-5.6c-1.4 0-2.2 1-2.2 2.3 0 1.2.8 2.3 2.2 2.3s2.2-1.1 2.2-2.3c.1-1.3-.8-2.3-2.2-2.3zm-.5 12.2h-1.3l10-13.1h1.3l-10 13.1zm8.1.2c-2.1 0-3.3-1.5-3.3-3.3 0-1.8 1.3-3.3 3.3-3.3 2 0 3.3 1.5 3.3 3.3 0 1.8-1.2 3.3-3.3 3.3zm0-5.6c-1.4 0-2.2 1.1-2.2 2.3 0 1.3.8 2.3 2.2 2.3s2.2-1 2.2-2.3c.1-1.2-.8-2.3-2.2-2.3z"/></g><g class="st0"><path class="st3" d="M10509.2 688.3l-2.3.7-.1-1.5 4-1.3v9.8h-1.6v-7.7zm7.6 3.3c2.6 0 4.3 1.5 4.3 3.8 0 2.6-2 4.3-4.4 4.3-1.3 0-2.7-.4-3.5-.9l.3-1.6c.8.4 2 .9 3.2.9 1.6 0 2.7-1 2.7-2.7 0-1.3-1-2.5-2.8-2.5-1.2 0-1.7.1-2.5.3l-.4-.4.8-6.4h6.2l.1 1.6h-5l-.5 3.5c.5.2.8.1 1.5.1zm8.2-1.9c-2 0-3.3-1.5-3.3-3.3 0-1.8 1.3-3.3 3.3-3.3 2.1 0 3.3 1.5 3.3 3.3.1 1.7-1.2 3.3-3.3 3.3zm0-5.6c-1.4 0-2.2 1-2.2 2.3 0 1.2.8 2.3 2.2 2.3 1.4 0 2.2-1.1 2.2-2.3.1-1.3-.8-2.3-2.2-2.3zm-.5 12.2h-1.3l10-13.1h1.3l-10 13.1zm8.1.2c-2.1 0-3.3-1.5-3.3-3.3 0-1.8 1.3-3.3 3.3-3.3 2 0 3.3 1.5 3.3 3.3.1 1.8-1.2 3.3-3.3 3.3zm0-5.6c-1.4 0-2.2 1.1-2.2 2.3 0 1.3.8 2.3 2.2 2.3 1.4 0 2.2-1 2.2-2.3.1-1.2-.8-2.3-2.2-2.3z"/></g></g><g class="st0"><path class="st5" d="M10538.7 798.3c.2 0 .3.1.3.3v3.5c0 .4-.1.7-.4 1-.3.3-.6.4-1 .4h-13.4c-.4 0-.7-.1-1-.4-.3-.3-.4-.6-.4-1v-18.4c0-.4.1-.7.4-1 .3-.3.6-.4 1-.4h3.8v-1c0-.3.1-.4.4-.4h4.8c.3 0 .4.1.4.4v.9h3.8c.4 0 .7.1 1 .4.3.3.4.6.4 1v3.5c0 .2-.1.4-.3.4h-2c-.2 0-.3-.1-.3-.4v-2.2h-1.3v.8c0 .3-.2.5-.5.5h-7.3c-.3 0-.5-.2-.5-.5v-.9h-1.3v15.9h10.8v-2.3c0-.2.1-.3.3-.3h2.3zm4.2-7.9c0 .1.1.2.1.3s0 .2-.1.2l-5.9 5.9-3 .8c-.1.1-.2 0-.4-.1-.1-.1-.1-.2-.1-.3l.8-3 5.8-5.9c.2-.1.3-.1.5 0l2.3 2.1zm-8.4 6.2l1.8-.5-1.3-1.3-.5 1.8z"/></g><g class="st0"><path class="st4" d="M10544.2 486.1c.1 0 .3.1.4.2.1.1.2.3.2.4v1.4c0 .2-.1.3-.2.5l-.9.9c-.1.1-.2.2-.4.2h-21.8c-.1 0-.3-.1-.4-.2l-.9-.9c-.1-.1-.2-.2-.2-.4v-1.4c0-.1.1-.3.2-.4.1-.1.3-.2.4-.2h23.6zm-21.2-1.2c-.3 0-.6-.1-.9-.4-.3-.3-.4-.6-.4-.9v-11.5c0-.3.1-.6.4-.9s.6-.4.9-.4h18.7c.3 0 .6.1.9.4.3.2.4.5.4.9v11.5c0 .4-.1.7-.4.9s-.6.4-.9.4h-18.7zm1.3-11.5v8.9h16.1v-8.9h-16.1zm10.3 14.8v-.6c0-.1 0-.1-.1-.1h-4.3c-.1 0-.2 0-.2.1v.6c0 .1.1.2.2.2h4.3c.1 0 .1-.1.1-.2z"/></g><g class="st0"><path class="st2" d="M10293.6 474.6c.1.2 0 .4-.2.6l-5.7 4.6 2.5 7.2c.1.2 0 .4-.2.6-.1.1-.2.2-.3.2-.1 0-.2 0-.3-.1l-6.7-4-6.7 4c-.2.1-.4.1-.6-.1-.2-.2-.2-.4-.2-.6l2.5-7.2-5.7-4.6c-.2-.2-.2-.4-.2-.6.1-.2.2-.4.5-.4h7.3l2.5-7.1c.1-.2.2-.4.5-.4s.4.1.5.4l2.5 7.1h7.3c.5.1.7.2.7.4z"/></g><path id="Path_899" class="st6" d="M10313.5 504v14.2l22.6 22.6"/><path id="Path_915" class="st7" d="M10587.1 768.8v-14.2l-22.6-22.6"/><path id="Path_900" class="st8" d="M10532 504.5v9.7l-17.3 17.3"/></g></svg>