<svg id="Layer_1" xmlns="http://www.w3.org/2000/svg" viewBox="0 0 42 50"><style>.st0{enable-background:new}.st1{fill:#f37021}</style><g class="st0"><path class="st1" d="M6.9 20.1c.5 0 .8.3.8.8v1.4c0 .5-.3.8-.8.8H.7c-.5-.1-.7-.4-.7-.9v-1.4c0-.5.2-.8.7-.8h6.2zm-1-10.7c-.3-.3-.3-.7 0-1L7 7.3c.3-.3.7-.3 1.1 0l4.4 4.5c.3.3.3.7 0 1l-1.1 1c-.4.3-.7.4-1 .1L5.9 9.4zm7.4 6.1c2.1-2.1 4.6-3.1 7.5-3.1s5.4 1 7.5 3.1c2.1 2.1 3.1 4.6 3.1 7.5 0 2-.6 3.9-1.8 5.8-1.8 2.6-2.7 5.8-2.8 9.7-.2.3-.4.5-.7.5H15.4c-.3 0-.5-.1-.6-.4-.1-3.6-1-6.7-2.7-9.4-1.3-1.8-2-3.9-2-6.2.1-2.9 1.1-5.4 3.2-7.5zm12.9 24.9c.5 0 .7.3.7.8v1.7c0 .5-.2.8-.7.8l-.1-.1v.1H15.5v-.1l-.1.1c-.5 0-.8-.3-.8-.8v-1.7c0-.5.3-.8.8-.8h10.8zm0 4.8c.5 0 .7.2.7.7v1.7c0 .5-.2.8-.7.8H15.4c-.5 0-.8-.3-.8-.8v-1.7c0-.5.3-.7.8-.7h10.8zM20.1 9.9c-.5 0-.8-.2-.8-.7V3c0-.5.3-.8.8-.8h1.4c.5 0 .8.3.8.8v6.3c0 .5-.3.7-.8.7h-1.4zm11.4 4.2c-.3.3-.7.3-1 0l-1-1.1c-.3-.3-.3-.7 0-1l4.4-4.4c.3-.4.7-.4 1.1 0l1 1c.4.4.4.7 0 1.1l-4.5 4.4zm10.1 6.2v1.5c0 .5-.2.7-.7.7h-6.3c-.5 0-.7-.2-.7-.7v-1.5c0-.5.2-.8.7-.8h6.3c.5 0 .7.2.7.8z"/></g></svg>