<svg xmlns="http://www.w3.org/2000/svg" viewBox="-3742.995 -436 145 27.676"><defs><style>.cls-1{fill:#f37021}.cls-2{fill:#bcbec0}</style></defs><g id="logo_wo_tag_color" transform="translate(-3742.987 -436)"><g id="Group_136" data-name="Group 136" transform="translate(-.008)"><g id="Group_135" data-name="Group 135"><g id="Group_133" data-name="Group 133" transform="translate(0 2.29)"><path id="Path_147" data-name="Path 147" class="cls-1" d="M4.565 21.707V2.09H0v19.88a4.982 4.982 0 0 0 5.344 5.212h2.592v-3.843H6.181c-1.155 0-1.616-.539-1.616-1.632z" transform="translate(.008 -2.09)"/><path id="Path_148" data-name="Path 148" class="cls-1" d="M38.036 8.05a6.96 6.96 0 0 0-5.451 2.333 5.659 5.659 0 0 0-4.851-2.333 6.394 6.394 0 0 0-4.524 1.862V8.269h-4.6v11.118a2.973 2.973 0 0 1-3.052 3.351c-1.439 0-3.02-.843-3.02-3.352V8.269H8v11.778a6.832 6.832 0 0 0 1.864 5.22 5.925 5.925 0 0 0 4.366 1.623 6.254 6.254 0 0 0 4.57-1.906v1.632h4.47V15.542a2.968 2.968 0 0 1 3.049-3.349c1.439 0 3.02.843 3.02 3.352v11.071H33.9V15.433a2.977 2.977 0 0 1 .779-2.346 2.947 2.947 0 0 1 2.275-.942c1.439 0 3.02.843 3.02 3.352v11.12h4.567v-11.71a6.951 6.951 0 0 0-2.005-5.228 6.37 6.37 0 0 0-4.5-1.632z" transform="translate(.727 -1.522)"/><path id="Path_149" data-name="Path 149" class="cls-1" d="M50.094 8.05c-3.052 0-4.818.57-6.606 2.541l2.909 2.88a3.927 3.927 0 0 1 3.51-1.522c2.42 0 3.412.887 3.412 2.892v.92h-4.362c-4.251 0-6.257 2.4-6.257 5.334a5.909 5.909 0 0 0 1.515 4.132 6.228 6.228 0 0 0 4.677 1.621 5.546 5.546 0 0 0 4.5-1.763v1.533h4.457V14.567c.037-4.326-2.634-6.517-7.755-6.517zm3.27 11.83a3.033 3.033 0 0 1-.708 2.355 3.608 3.608 0 0 1-2.878.887c-1.788 0-2.638-.843-2.638-2.114s.916-2.081 2.562-2.081h3.619z" transform="translate(3.857 -1.522)"/></g><g id="Group_134" data-name="Group 134" transform="translate(64.327)"><path id="Path_150" data-name="Path 150" class="cls-2" d="M66.38 8.631a6.789 6.789 0 0 0-5.451 2.432V0H59v27.383h1.952V15.9c0-3.549 1.875-5.543 5.211-5.543s5.1 1.957 5.1 5.543v11.483h1.907V15.565c.002-4.316-2.538-6.934-6.79-6.934z" transform="translate(-59)"/><path id="Path_151" data-name="Path 151" class="cls-2" d="M81.542 7.88c-4.633 0-7.4 3.505-7.4 9.518 0 6.2 2.755 9.518 7.86 9.518a8.365 8.365 0 0 0 6.67-2.848l-1.461-1.15a6.418 6.418 0 0 1-5.1 2.191c-3.946 0-6.017-2.585-6.017-7.317h12.839v-.888c0-5.675-2.758-9.024-7.391-9.024zm-5.45 8.357a10.185 10.185 0 0 1 .652-3.505 5.245 5.245 0 0 1 9.583 0 8.513 8.513 0 0 1 .652 3.505z" transform="translate(-57.635 .751)"/><path id="Path_152" data-name="Path 152" class="cls-2" d="M96.466 7.88c-3.03 0-4.949.657-6.541 2.848l1.417 1.238c1.188-1.7 2.5-2.355 5.1-2.355 3.794 0 5.211 1.578 5.211 4.546v2.081H95.7c-4.023 0-6.443 1.957-6.443 5.356a5.151 5.151 0 0 0 1.343 3.625c1.188 1.238 2.682 1.7 5.451 1.7s4.066-.5 5.636-2.081v1.8h1.952V13.959c0-3.89-2.267-6.079-7.173-6.079zm5.211 12.32a4.824 4.824 0 0 1-1.035 3.549 6.118 6.118 0 0 1-4.6 1.424c-3.368 0-4.829-1.16-4.829-3.625s1.58-3.68 4.72-3.68h5.756z" transform="translate(-56.272 .751)"/><path id="Path_153" data-name="Path 153" class="cls-2" d="M106.622 22.574V0h-1.952v22.607c0 2.925 1.417 4.82 4.448 4.82h1.69V25.7h-1.341c-2.191 0-2.845-1.012-2.845-3.126z" transform="translate(-54.882)"/><path id="Path_154" data-name="Path 154" class="cls-2" d="M113.93 2.67h-1.952v5.937h-2.528v1.467h2.529V22.32c0 2.815 1.537 4.852 4.448 4.852h1.686v-1.731h-1.341c-1.952 0-2.835-1.1-2.835-3.078V10.074h4.176V8.607h-4.175z" transform="translate(-54.451 .255)"/><path id="Path_155" data-name="Path 155" class="cls-2" d="M127.395 8.631a6.789 6.789 0 0 0-5.451 2.432V0H120v27.383h1.952V15.9c0-3.549 1.875-5.543 5.211-5.543s5.1 1.957 5.1 5.543v11.483h1.908V15.565c.001-4.316-2.517-6.934-6.776-6.934z" transform="translate(-53.5)"/></g></g></g></g></svg>