<svg xmlns="http://www.w3.org/2000/svg" viewBox="0 0 248 64"><path fill="#333" d="M242 1c2.757 0 5 2.243 5 5v52c0 2.757-2.243 5-5 5H6c-2.757 0-5-2.243-5-5V6c0-2.757 2.243-5 5-5h236m0-1H6C2.7 0 0 2.7 0 6v52c0 3.3 2.7 6 6 6h236c3.3 0 6-2.7 6-6V6c0-3.3-2.7-6-6-6z"/><g opacity=".7" fill-rule="evenodd" clip-rule="evenodd" fill="#333"><path d="M33.494 17.787c.074.004.135.009.193.015.266.038.525.017.777-.081.277-.105.496-.287.635-.551.158-.303.293-.619.439-.93.159-.334.306-.676.482-1.004.254-.468.6-.857 1.043-1.164.414-.288.854-.353 1.336-.221.596.164 1.148.422 1.695.696.731.365 1.457.745 2.188 1.11.952.475 1.923.906 2.945 1.216.57.171 1.15.3 1.744.349.771.064 1.53.008 2.265-.254.314-.111.629-.215.964-.233.103-.007.206.007.306.024.081.016.135.074.123.16-.012.096-.017.201-.063.279a3.313 3.313 0 0 1-.375.55 3.628 3.628 0 0 1-1.912 1.116c-.178.039-.36.045-.542.068-.073.008-.144.014-.235.027.008.074.009.135.02.197.025.156-.002.239-.151.305-.155.064-.32.119-.489.146-.633.093-1.254.012-1.863-.167-.064-.018-.13-.031-.214-.053-.019.113-.036.205-.046.301-.05.531-.361.824-.895.85-.377.021-.74-.053-1.101-.154l-.097-.03c-.177-.054-.174-.054-.256.115-.057.12-.113.237-.187.347-.278.406-.676.537-1.149.498-.344-.027-.671-.134-1-.231-.3-.093-.301-.093-.46.178-.223.375-.604.536-1.077.464-.441-.064-.844-.238-1.229-.457-.302-.175-.299-.175-.557.064-.135.123-.267.25-.408.364-.186.148-.4.216-.637.225-.383.014-.752-.063-1.118-.158-.335-.091-.666-.199-.999-.306-.145-.044-.153-.056-.15-.206.008-.676.02-1.35.028-2.025.005-.412.008-.824.015-1.237.002-.06.008-.122.012-.202zM19.66 19.391c-.074.018-.137.029-.193.047-.52.156-1.051.23-1.591.203a3.21 3.21 0 0 1-.526-.078 1.14 1.14 0 0 1-.283-.118c-.106-.058-.153-.147-.125-.274.016-.059.019-.12.029-.201-.084-.012-.153-.029-.225-.033-1.076-.057-1.931-.549-2.615-1.357-.099-.117-.165-.261-.24-.397a.51.51 0 0 1-.047-.146c-.037-.195.008-.26.207-.293.279-.041.544.03.809.103.34.098.677.213 1.021.297.395.092.802.11 1.21.101 1.166-.029 2.262-.362 3.334-.787.885-.351 1.734-.776 2.578-1.21.828-.426 1.648-.875 2.517-1.213.312-.122.626-.225.961-.246.229-.018.439.023.647.127.579.293 1.004.74 1.307 1.299.223.412.4.846.6 1.271.1.212.197.426.306.632.301.571.86.765 1.451.684l.135-.013c.065.11.058.225.058.336.008.663.01 1.328.016 1.99.006.384.018.768.022 1.15.001.148-.002.148-.141.196-.53.179-1.065.354-1.623.431a3.499 3.499 0 0 1-.631.018c-.25-.018-.451-.154-.633-.318-.125-.111-.24-.226-.363-.34-.139-.129-.194-.134-.366-.041-.125.066-.249.143-.378.205-.301.15-.616.267-.957.311-.384.048-.731-.016-.986-.339-.064-.079-.108-.176-.159-.264-.064-.113-.079-.125-.204-.09-.242.065-.482.143-.726.203a2.21 2.21 0 0 1-.798.074c-.403-.054-.686-.266-.881-.607-.049-.086-.087-.176-.128-.264-.064-.129-.074-.132-.211-.1-.255.065-.51.142-.768.176a2.383 2.383 0 0 1-.648-.007c-.431-.072-.665-.354-.706-.788l-.024-.224-.032-.106zm9.058 6.466c-.233-.022-.468-.037-.679-.162-.133-.078-.275-.136-.41-.212a3.052 3.052 0 0 0-1.371-.399 18.737 18.737 0 0 0-1.111-.037c-.15 0-.299.025-.442.059-.466.109-.679.568-.469 1.003.088.18.226.316.379.437.425.335.905.556 1.404.749.787.305 1.601.496 2.434.622.65.1 1.303.155 1.963.171.514.012 1.029.025 1.541.072.82.076 1.628.229 2.42.457a9.11 9.11 0 0 1 1.666.632c.475.245.912.546 1.256.966.35.432.568.915.552 1.479-.009.413-.146.794-.356 1.149-.273.46-.64.837-1.05 1.168-.6.487-1.266.864-1.961 1.19a.23.23 0 0 1-.226-.013c-.298-.157-.6-.309-.899-.459-.063-.032-.119-.056-.104-.134.019-.09-.025-.206.098-.257l.269-.112c.428-.176.855-.352 1.252-.598.313-.192.601-.418.824-.715.143-.189.245-.4.29-.632.072-.364-.02-.692-.209-1-.208-.333-.496-.583-.824-.788a5.151 5.151 0 0 0-2.223-.752c-.476-.049-.957-.068-1.437-.107-.461-.037-.922-.09-1.381-.124a11.547 11.547 0 0 1-1.563-.218c-1.371-.285-2.67-.762-3.832-1.564-.451-.316-.863-.68-1.186-1.135a1.923 1.923 0 0 1-.332-.728 1.018 1.018 0 0 1 .279-.96c.237-.252.539-.402.854-.525.414-.16.844-.26 1.283-.313.377-.045.759-.07 1.14-.109.371-.035.739-.092 1.108-.113.324-.021.65-.009.977 0 .192.007.387.022.564.123.42.237.75.565.961.994.191.396.129.467-.233.636a2.663 2.663 0 0 1-.909.233 25.32 25.32 0 0 0-.307.026z"/><path d="M32.867 27.8c-.178-.019-.336-.04-.494-.056-.211-.023-.422-.047-.63-.064-.158-.012-.179-.028-.181-.183-.002-.388-.002-.778-.006-1.169-.015-1.101-.027-2.207-.043-3.311-.01-.824-.023-1.646-.035-2.47l-.031-2.3-.037-2.3c-.008-.56-.024-1.122-.025-1.682 0-.148-.053-.237-.169-.328-.956-.745-.841-2.207.226-2.777.947-.506 2.207-.017 2.419 1.175.115.645-.103 1.198-.628 1.609a.356.356 0 0 0-.154.314c-.008.88-.021 1.762-.032 2.642l-.036 2.3-.035 2.418-.033 2.439c-.012.863-.021 1.725-.035 2.589-.006.351-.016.699-.027 1.048l-.014.106zm-2.696 2.208c-.125.048-.215.082-.302.121-.479.215-.904.497-1.191.947-.35.543-.354 1.1-.021 1.648.244.402.598.688.992.933.377.232.783.402 1.192.567.726.293 1.454.576 2.184.864.704.277 1.347.655 1.882 1.197.362.368.649.788.781 1.292.165.637.083 1.249-.188 1.84-.339.741-.863 1.33-1.488 1.836-.125.103-.254.196-.391.3-.133-.083-.267-.161-.393-.248-.03-.02-.051-.079-.051-.117-.006-.182 0-.368 0-.551-.004-.082.053-.118.105-.162.331-.278.642-.57.896-.922.163-.229.3-.471.379-.746a1.48 1.48 0 0 0-.198-1.261c-.202-.32-.482-.565-.791-.775-.506-.352-1.065-.604-1.639-.815-.487-.183-.979-.354-1.461-.549-.863-.35-1.68-.784-2.408-1.369-.465-.369-.872-.792-1.156-1.321a2.29 2.29 0 0 1-.285-1.031c-.012-.552.191-1.031.538-1.447.15-.181.329-.332.495-.501.076-.077.166-.083.268-.065.479.088.955.181 1.434.255.255.04.519.051.817.08zm4.059-1.918c.375-.029.711-.049 1.043-.08a14.075 14.075 0 0 0 1.709-.274 9.908 9.908 0 0 0 1.965-.65 4.08 4.08 0 0 0 .885-.522 2.46 2.46 0 0 0 .313-.316c.167-.202.201-.442.132-.694a.563.563 0 0 0-.387-.406 2.043 2.043 0 0 0-.486-.096 7.01 7.01 0 0 0-1.723.111c-.229.047-.448.143-.661.232a7.433 7.433 0 0 0-.597.303c-.217.127-.456.158-.695.155a2.945 2.945 0 0 1-1.105-.218 2.579 2.579 0 0 1-.316-.166.208.208 0 0 1-.1-.235c.021-.083.043-.168.08-.244.217-.431.536-.767.953-1.007a.9.9 0 0 1 .44-.125c.292-.008.583-.035.875-.025.313.007.625.045.937.074.32.027.638.063.955.092.669.061 1.332.15 1.954.414.22.092.433.213.626.354.438.318.569.775.393 1.287-.113.331-.31.612-.545.867-.454.504-1 .889-1.584 1.219-.74.42-1.527.725-2.345.959-.106.026-.194.03-.293-.031-.712-.438-1.493-.713-2.294-.937-.029-.008-.06-.02-.129-.041z"/><path d="M33.328 46.641c-.15-.085-.24-.186-.222-.371.014-.159.005-.319.002-.479a.31.31 0 0 1 .101-.24c.154-.16.306-.326.436-.509.239-.346.245-.716.064-1.092a2.812 2.812 0 0 0-.479-.669c-.446-.481-.973-.862-1.531-1.206-.404-.246-.82-.477-1.192-.777-.601-.487-1.12-1.045-1.472-1.741a2.985 2.985 0 0 1-.335-1.353c.003-.43.111-.826.317-1.198.258-.469.631-.837 1.051-1.159.064-.05.119-.052.189-.023.283.112.564.222.848.328.09.032.133.08.121.178a.226.226 0 0 0 0 .052c.023.139-.036.23-.159.303a2.995 2.995 0 0 0-.714.584c-.197.223-.354.469-.426.757a1.6 1.6 0 0 0 .111 1.07c.162.359.402.663.678.942.381.39.808.728 1.26 1.03.348.231.705.449 1.059.668.51.314.974.684 1.331 1.173.277.375.441.802.457 1.27.01.277-.051.547-.152.807a3.095 3.095 0 0 1-.381.689c-.24.328-.527.616-.838.882-.038.029-.081.053-.124.084z"/><path d="M33.041 51.568c.005-.082.014-.164.014-.248.004-.222.003-.446.009-.671.009-.29.02-.583.037-.873.039-.669-.076-1.299-.476-1.856-.17-.236-.391-.416-.614-.594-.276-.217-.552-.427-.827-.642-.464-.366-.883-.776-1.188-1.292a2.302 2.302 0 0 1-.348-1.14c-.014-.4.103-.778.309-1.126.216-.364.501-.667.824-.932.063-.053.12-.067.186-.019.01.008.019.012.029.019.357.231.291.096.301.513.004.154.038.322-.01.459-.045.136-.182.242-.266.37-.099.152-.203.305-.281.47-.162.345-.135.688.068 1.015.194.306.452.551.726.776.388.319.788.624 1.181.938.504.404.871.904 1.033 1.538.1.383.105.777.067 1.173a4.835 4.835 0 0 1-.75 2.125.072.072 0 0 1-.024-.003zm-.25-17.077c-.051-.017-.09-.023-.123-.036-.279-.107-.557-.216-.832-.324-.177-.069-.177-.071-.179-.258-.015-1.07-.026-2.137-.04-3.205-.001-.172 0-.343 0-.534.395.009.795.032 1.209.083.008.058.018.106.018.156-.014 1.348-.025 2.697-.039 4.044 0 .017-.008.032-.014.074zm-1.1 1.887c.072.019.111.022.146.04.258.112.513.229.773.334.123.051.166.123.166.259-.019.786-.025 1.568-.039 2.353-.008.484-.016.968-.027 1.453-.001.046-.01.089-.017.146-.05-.021-.089-.031-.12-.055-.244-.167-.487-.337-.734-.506a.23.23 0 0 1-.107-.214c.004-.189-.001-.38-.003-.566-.011-1.006-.025-2.013-.036-3.02-.003-.066-.002-.133-.002-.224z"/><path d="M32.809 53.059c-1.071-.812-1.824-1.846-2.094-3.187a3.732 3.732 0 0 1-.012-1.518c.074-.364.238-.687.45-.991.015-.017.034-.032.055-.049.107.032.157.098.157.212-.002.585.019 1.165-.002 1.753-.028.803.176 1.546.521 2.262.245.511.54.994.882 1.449.015.019.029.045.043.069zm-.172-6.971c-.078-.061-.127-.096-.175-.134-.192-.154-.382-.314-.573-.462-.066-.051-.097-.11-.09-.19v-.034c-.012-.792-.021-1.578-.031-2.369v-.207c.061.031.103.047.137.071.217.166.434.336.652.5.088.066.123.15.123.266-.009.648-.009 1.303-.014 1.955-.002.188-.02.374-.029.604z"/><path d="M31.843 47.799c.216.153.374.318.489.518.182.305.285.629.279.993-.017.584-.008 1.166-.014 1.751-.003.239-.016.479-.026.752-.034-.04-.056-.058-.067-.076-.279-.504-.512-1.026-.613-1.595a4.291 4.291 0 0 1-.049-.681c-.01-.51-.01-1.021-.01-1.53 0-.035.004-.066.011-.132zm.065 5.137c.211.178.407.343.599.51.022.02.043.06.04.088-.019.324-.045.648-.178.95a.575.575 0 0 1-.062.103c-.061.072-.118.074-.163-.004a1.226 1.226 0 0 1-.132-.313 4.192 4.192 0 0 1-.101-.608c-.015-.231-.003-.466-.003-.726z"/></g><path d="M146.361 47.959c0 .787.036 1.561.138 2.023h-2.354l-.149-.844h-.055c-.548.672-1.405 1.029-2.4 1.029-1.701 0-2.714-1.232-2.714-2.572 0-2.18 1.959-3.207 4.928-3.207v-.105c0-.445-.238-1.082-1.527-1.082-.861 0-1.77.289-2.316.615l-.483-1.664c.584-.326 1.735-.756 3.262-.756 2.8 0 3.673 1.65 3.673 3.623v2.94zm-2.522-1.943c-1.372 0-2.439.324-2.439 1.318 0 .676.448 1 1.033 1 .634 0 1.184-.428 1.353-.965.037-.135.054-.291.054-.447v-.906zm3.491-1.612c0-1.102-.034-2.027-.068-2.818h2.269l.118 1.166h.031c.621-.873 1.58-1.355 2.797-1.355 1.838 0 3.485 1.6 3.485 4.277 0 3.057-1.94 4.494-3.81 4.494-1.012 0-1.805-.41-2.182-.957h-.03v4.168h-2.61v-8.975zm2.61 1.969c0 .207.015.381.049.549.173.709.772 1.242 1.529 1.242 1.131 0 1.801-.947 1.801-2.373 0-1.336-.6-2.352-1.767-2.352-.734 0-1.39.553-1.563 1.322a2.065 2.065 0 0 0-.049.465v1.147zm9.953-7.07v2.283h1.873v1.924h-1.873v3.053c0 1.016.262 1.482 1.034 1.482.36 0 .529-.018.771-.07l.019 1.975c-.328.117-.964.219-1.684.219-.842 0-1.545-.291-1.976-.719-.48-.496-.719-1.307-.719-2.488V43.51h-1.117v-1.924h1.117V40.01l2.555-.707zm2.765 2.283h2.607v8.396h-2.607zm3.548-1.436l2.606-1.654v4.088h.038c.497-.725 1.37-1.188 2.538-1.188 2.009 0 3.469 1.668 3.447 4.242 0 3.021-1.902 4.529-3.827 4.529-.977 0-1.938-.357-2.521-1.355h-.034l-.102 1.17h-2.215c.033-.549.069-1.564.069-2.506V40.15zm2.607 6.26c0 .17.018.324.055.463.169.689.771 1.234 1.528 1.234 1.113 0 1.8-.855 1.8-2.363 0-1.307-.582-2.338-1.8-2.338-.706 0-1.359.533-1.528 1.289a2.005 2.005 0 0 0-.055.48v1.235zm6.853-8.617h2.61v12.189h-2.61zm6.076 8.807c.086 1.1 1.152 1.613 2.367 1.613.894 0 1.615-.119 2.319-.363l.341 1.769c-.857.363-1.904.533-3.039.533-2.847 0-4.475-1.646-4.475-4.289 0-2.129 1.338-4.482 4.238-4.482 2.709 0 3.741 2.109 3.741 4.188 0 .447-.055.842-.085 1.049l-5.407-.018zm3.074-1.786c0-.615-.276-1.701-1.459-1.701-1.12 0-1.563 1.02-1.63 1.701h3.089zm-20.884-3.88c-1.029 0-1.691-.725-1.691-1.631 0-.926.684-1.631 1.733-1.631 1.046 0 1.691.705 1.711 1.631 0 .906-.665 1.631-1.731 1.631h-.022zm-102.03 8.314v-9.123h4.266c1.982 0 3.063 1.34 3.063 2.941 0 1.586-1.094 2.926-3.063 2.926h-2.324v3.256h-1.942zm5.346-6.182c0-.766-.588-1.23-1.354-1.23h-2.051v2.447h2.051c.766 0 1.354-.465 1.354-1.217zm2.503 2.872c0-1.873 1.313-3.459 3.486-3.459 2.188 0 3.5 1.586 3.5 3.459s-1.313 3.475-3.5 3.475c-2.174-.001-3.486-1.602-3.486-3.475zm5.182 0c0-1.025-.602-1.914-1.695-1.914-1.08 0-1.682.889-1.682 1.914 0 1.039.602 1.928 1.682 1.928 1.093-.001 1.695-.889 1.695-1.928zm8.901 3.31l-1.395-4.5-1.395 4.5h-1.859l-2.01-6.605h1.805l1.23 4.443 1.449-4.443h1.545l1.449 4.443 1.231-4.443h1.818l-2.01 6.605h-1.858zm4.309-3.31c0-1.914 1.422-3.459 3.418-3.459 1.982 0 3.309 1.477 3.309 3.623v.41h-4.908c.123.807.779 1.477 1.9 1.477.561 0 1.326-.232 1.75-.643l.779 1.15c-.656.602-1.695.916-2.721.916-2.01 0-3.527-1.355-3.527-3.474zm3.418-2.038c-1.08 0-1.545.752-1.613 1.408h3.254c-.056-.628-.493-1.408-1.641-1.408zm4.566 5.348v-6.605h1.736v.889c.479-.574 1.285-1.053 2.106-1.053v1.695a2.245 2.245 0 0 0-.479-.041c-.574 0-1.34.328-1.627.752v4.363h-1.736zm4.499-3.31c0-1.914 1.422-3.459 3.418-3.459 1.982 0 3.309 1.477 3.309 3.623v.41h-4.908c.123.807.779 1.477 1.9 1.477.561 0 1.326-.232 1.75-.643l.779 1.15c-.656.602-1.695.916-2.721.916-2.009 0-3.527-1.355-3.527-3.474zm3.418-2.038c-1.08 0-1.545.752-1.613 1.408h3.254c-.055-.628-.493-1.408-1.641-1.408zm9.106 5.348V48.4c-.52.656-1.23 1.012-2.037 1.012-1.654 0-2.926-1.258-2.926-3.475 0-2.146 1.244-3.459 2.926-3.459.779 0 1.518.328 2.037 1.012v-3.365h1.75v9.123h-1.75zm0-2.135v-2.338c-.287-.438-.916-.752-1.49-.752-.998 0-1.682.779-1.682 1.914 0 1.148.684 1.928 1.682 1.928.574 0 1.203-.314 1.49-.752zm6.989 2.135v-9.123h1.736v3.365a2.503 2.503 0 0 1 2.037-1.012c1.682 0 2.926 1.313 2.926 3.459 0 2.217-1.258 3.475-2.926 3.475-.793 0-1.518-.356-2.037-1.012v.848h-1.736zm3.24-1.383c.998 0 1.668-.779 1.668-1.928 0-1.135-.67-1.914-1.668-1.914-.574 0-1.203.328-1.504.766v2.338c.301.424.93.738 1.504.738zm4.8 2.406c.15.068.383.109.547.109.451 0 .752-.123.916-.477l.246-.574-2.68-6.688h1.859l1.723 4.594 1.736-4.594h1.859l-3.104 7.684c-.492 1.244-1.367 1.572-2.502 1.6-.191 0-.643-.041-.848-.109l.248-1.545z" opacity=".7" fill="#333"/><path fill="#333" d="M71.252 28.521v-5.723h-6.416v5.723h-2.891V14.94h2.891v5.333h6.416V14.94h2.909v13.581h-2.909zm5.985 0V14.94h2.892v13.581h-2.892zm5.988 0V14.94h6.354c2.951 0 4.561 1.994 4.561 4.378 0 2.361-1.629 4.355-4.561 4.355h-3.463v4.848h-2.891zm7.961-9.203c0-1.141-.875-1.834-2.016-1.834h-3.055v3.645h3.055c1.141 0 2.016-.692 2.016-1.811zm12.929 9.203l-.854-2.303h-5.823l-.857 2.303h-3.276l5.233-13.581h3.624l5.232 13.581h-3.279zM100.35 17.83l-2.117 5.844h4.234l-2.117-5.844zm18.101 10.691l-.855-2.303h-5.822l-.856 2.303h-3.278l5.234-13.581h3.624l5.233 13.581h-3.28zm-3.766-10.691l-2.119 5.844h4.234l-2.115-5.844zm17.388 3.91c0-4.193 3.156-7.025 7.248-7.025 2.976 0 4.704 1.609 5.662 3.318l-2.485 1.223c-.569-1.101-1.792-1.975-3.177-1.975-2.484 0-4.275 1.894-4.275 4.459 0 2.566 1.791 4.459 4.275 4.459 1.385 0 2.607-.877 3.177-1.975l2.485 1.2c-.958 1.689-2.687 3.34-5.662 3.34-4.092.001-7.248-2.85-7.248-7.024zm14.357 1.854c0-2.79 1.953-5.152 5.19-5.152 3.26 0 5.214 2.362 5.214 5.152 0 2.787-1.954 5.171-5.214 5.171-3.237 0-5.19-2.384-5.19-5.171zm7.716 0c0-1.529-.896-2.853-2.526-2.853-1.608 0-2.504 1.323-2.504 2.853 0 1.547.896 2.871 2.504 2.871 1.63 0 2.526-1.324 2.526-2.871zm16.477 4.927v-6.213c0-.916-.408-1.567-1.468-1.567-.915 0-1.669.612-2.037 1.142v6.639h-2.604v-6.213c0-.916-.407-1.567-1.466-1.567-.896 0-1.65.612-2.037 1.142v6.639h-2.584v-9.835h2.584v1.262c.428-.569 1.71-1.507 3.218-1.507 1.445 0 2.382.672 2.729 1.771.569-.876 1.873-1.771 3.38-1.771 1.811 0 2.892.957 2.892 2.973v7.107h-2.607zm7.464-1.261v5.007h-2.585v-13.58h2.585v1.241c.754-.958 1.833-1.486 3.034-1.486 2.524 0 4.357 1.873 4.357 5.152 0 3.277-1.833 5.171-4.357 5.171-1.161 0-2.22-.488-3.034-1.505zm4.724-3.666c0-1.689-1.018-2.853-2.506-2.853-.834 0-1.77.469-2.219 1.12v3.461c.429.633 1.385 1.142 2.219 1.142 1.488.001 2.506-1.161 2.506-2.87zm4.721 4.927V14.94h2.586v13.581h-2.586zm5.322-12.441c0-.857.692-1.528 1.526-1.528.854 0 1.549.671 1.549 1.528 0 .855-.694 1.545-1.549 1.545a1.54 1.54 0 0 1-1.526-1.545zm.246 12.441v-9.835h2.584v9.835H193.1zm11.063 0v-1.04c-.673.816-1.835 1.283-3.116 1.283-1.569 0-3.401-1.058-3.401-3.257 0-2.322 1.832-3.177 3.401-3.177 1.322 0 2.463.427 3.116 1.202V22.29c0-.997-.855-1.649-2.159-1.649-1.039 0-2.018.406-2.832 1.16l-1.018-1.813c1.201-1.08 2.749-1.547 4.296-1.547 2.262 0 4.316.896 4.316 3.727v6.354h-2.603zm0-2.363v-1.222c-.43-.569-1.244-.876-2.079-.876-1.019 0-1.854.551-1.854 1.486 0 .938.835 1.467 1.854 1.467.835.001 1.649-.284 2.079-.855zm11.29 2.363v-5.947c0-1.364-.714-1.833-1.813-1.833-1.018 0-1.792.571-2.24 1.142v6.639h-2.586v-9.835h2.586v1.262c.631-.733 1.854-1.507 3.441-1.507 2.178 0 3.217 1.221 3.217 3.135v6.945h-2.605zm5.906-2.463v-5.112h-1.63v-2.259h1.63v-2.689h2.585v2.689h1.995v2.259h-1.995v4.418c0 .632.325 1.101.896 1.101.387 0 .754-.145.896-.307l.55 1.975c-.386.346-1.078.632-2.159.632-1.812 0-2.768-.937-2.768-2.707zm-91.703-4.955v2.5h-6.829v-2.5h6.829z"/></svg>