<svg xmlns="http://www.w3.org/2000/svg" viewBox="0 0 102.75 29.5"><path fill="#FFF" d="M19.65 1.916H1.875l-.717 8.239-.061 2.6 5.411 9.817 5.654 5.188 6.058-5.521 2.571-9.231z"/><g fill="#FFF"><path d="M11.895 1.51v11.245H1.097l.048.267h10.75v14.737c.046.025.087.053.133.078.046-.025.088-.053.134-.078V1.51h-.267z"/><path d="M6.471 3.581l.005.313c.209-.17.513-.304.756-.352-.134.601-.43.753-.753.808l-.011.507c.262-.211.658-.495.961-.558-.171.767-.54 1.045-.949 1.103v.499c.326-.211.841-.581 1.219-.643-.216.776-.697 1.083-1.218 1.131l.002.46c.326-.212.838-.542 1.216-.602-.208.75-.714 1.205-1.215 1.274v.389c.328-.21.837-.541 1.215-.602-.198.786-.698 1.21-1.22 1.255v.318c.393-.233 1.036-.638 1.489-.704-.258.843-.868 1.301-1.489 1.359V9.9c.21-.169.653-.352.896-.398-.129.573-.591.771-.898.848l-.002.68c.073-.002.143-.015.217-.023-.022-.236.117-.478.424-.674.013.181-.09.445-.149.623.165-.038.33-.083.493-.152-.088-.345.027-.817.422-1.218.074.267.004.701-.03.989.174-.106.35-.222.519-.369-.191-.329-.156-.836.213-1.345.109.25.114.733.117 1.024.15-.159.312-.338.455-.532-.26-.317-.27-.623.042-1.241.108.25.206.625.21.917.135-.174.23-.318.345-.526-.068-.162-.036-.283.046-.386.115-.144.287-.267.441-.173.214.098.106.334.032.506-.054.122-.145.205-.305.2a5 5 0 0 1-.4.583c.311.099.533.172.743.387-.462.19-.737.145-.966-.046-.149.197-.367.413-.522.576.303.093.502.178.75.429-.502.208-.873.144-1.097-.094-.175.149-.343.305-.523.411.297.151.513.312.692.558-.571.132-.948-.031-1.115-.351a2.772 2.772 0 0 1-.499.159c.163.14.273.247.356.431-.392-.01-.615-.102-.673-.343-.079.008-.159.061-.237.06v.766l-.481-.216v-.561c-.049-.006-.163-.045-.21-.053-.069.229-.241.317-.617.324.081-.185.127-.317.317-.415-.174-.045-.337-.129-.508-.208-.149.356-.488.505-1.09.366.177-.247.4-.47.702-.572a2.579 2.579 0 0 1-.449-.34c-.219.247-.595.331-1.107.117.21-.214.418-.385.738-.445-.161-.159-.309-.352-.462-.547-.231.203-.578.268-1.048.07.211-.214.452-.44.753-.438-.092-.132-.174-.282-.27-.435-.1-.002-.186 0-.289-.13-.11-.14-.217-.448-.03-.545.114-.1.38.046.468.206.081.148.052.234.022.338.094.146.2.293.295.424-.066-.423.055-.773.165-1.022.378.526.307.98.097 1.304.158.194.289.34.445.498-.044-.296-.009-.744.1-.996.353.488.401.987.239 1.315.148.124.288.243.434.336-.08-.278-.116-.741-.043-1.008.399.406.521.864.429 1.211.169.078.334.144.504.185-.081-.165-.159-.448-.145-.628.3.191.375.412.364.646.046.005.173.064.219.064l-.01-.671c-.295-.076-.739-.246-.884-.815.276.063.627.13.884.357v-.355c-.596-.048-1.197-.472-1.493-1.316.517.09 1.017.336 1.494.648v-.312c-.521-.038-1.014-.521-1.232-1.207.431.08.832.275 1.231.56v-.392c-.487-.054-.99-.469-1.231-1.23.431.082.832.266 1.231.551v-.44c-.504-.035-.98-.317-1.231-1.099.431.08.832.307 1.231.592v-.49c-.396-.045-.771-.289-.97-1.061.346.081.651.228.97.514v-.508c-.305-.054-.588-.177-.74-.773.208.048.46.06.743.312l-.006-.305c-.231-.345-.179-.496-.152-.769.025-.248.118-.432.385-.444.266.012.358.196.385.444.029.273.079.424-.152.769m11.264 6.215c.16-1.907.451-2.436.93-2.836l.041-.033-.179-1.172-.092.016c-.256.042-.493.288-.652.505l-.002-1.106-1.292-.764.001.659a3.366 3.366 0 0 0-.317-.285c-.146-.107-.275-.157-.406-.157-.077 0-.145.017-.206.032-.102.026-.172.049-.32-.015-.65-.132-1.153.013-1.432.405-.261.369-.304.938-.11 1.486.159.444.456.898.677 1.198.128.177 1.26 1.37 1.521 1.638.189.191.392.381.598.568v.507l-.326-.222-.323.746.068.043c.287.178.571.642.764 3.063-.7.257-1.641 1.095-1.667 1.962-.011.4.179.959 1.165 1.346.213.082.445.172.674.266.012.441.023.914.032 1.416-.177.066-.585.281-.657.609-.058.26.102.514.474.752a.785.785 0 0 0 .204.086l.004.392c-.216.102-.295.152-.428.303-.067.076-.129.158-.092.234.008.021.037.068.114.068.051 0 .125-.023.264-.08.079-.031.129-.045.164-.053a.37.37 0 0 0 .336.234c.158 0 .287-.109.324-.289l-.001-.156a.505.505 0 0 0 .296-.44.708.708 0 0 0-.303-.584l-.003-.555c.656-.133 1.354-.557 1.417-1.127.038-.34-.145-.84-1.232-1.279-.067-.027-.129-.053-.194-.078-.001-.893.001-1.699.007-2.434 1.166-.584 1.961-1.127 2.062-1.856.105-.757-.525-1.654-1.903-3.013zm-1.979-4.917c.031-.038.12-.036.177.018a.155.155 0 0 1 .053.105.098.098 0 0 1-.024.073.096.096 0 0 1-.073.03.167.167 0 0 1-.107-.047.158.158 0 0 1-.053-.108.098.098 0 0 1 .027-.071zm-.284.551c.028-.053.109-.066.179-.03.069.036.101.106.076.164a.107.107 0 0 1-.098.053.192.192 0 0 1-.082-.021.17.17 0 0 1-.081-.092.094.094 0 0 1 .006-.074zm.632 2.838c-1.761-1.596-1.835-2.323-1.723-2.615.103-.267.412-.339.578-.339a.44.44 0 0 1 .096.01c.057.013.059.023.077.095.028.111.069.282.408.393.416.138.728.211.951.222l.003 2.593c-.131-.121-.251-.233-.39-.359zm2.102 10.236c-.003.076-.099.223-.63.389l-.003-.92c.373.187.641.375.633.531zm-.611-13.227v.773l-.469-.124-.211-.108c.028-.155-.087-.357-.24-.544v-.541l.92.544zm-1.69 10.783c-.027-.232.229-.533.842-.99.029.502.055 1.07.077 1.709-.532-.25-.889-.482-.919-.719zm1.135 1.669c.121.051.236.102.347.154l.004 1.065-.004.002v.672h.008l.002.408c-.094-.041-.271-.147-.316-.289-.01-.733-.024-1.399-.041-2.012zm.228 3.693a.187.187 0 0 1-.167-.117l-.001-.026-.007-.721c.195.045.307.084.304.344v.34l.01-.004v.064a.14.14 0 0 1-.139.12zm.117-4.397c-.13-.055-.253-.107-.371-.16-.179-5.174-.579-5.732-.932-5.97l.17-.393.432.294-.001-.691c.08.072.16.146.239.216.191.171.378.34.557.506-.07 1.427-.097 3.405-.094 6.198zm.175-7.397a50.856 50.856 0 0 0-.879-.83l-.003-2.772a.303.303 0 0 0 .141-.065l.212.104.277.441.086-.027-.017-.28.219-.045V6.6l.177.041c.095-.192.353-.549.601-.659l.132.871c-.486.418-.781.958-.946 2.775zm.028 4.061c.014-1.068.038-1.951.072-2.692.629.604 1.094 1.174 1.01 1.686-.061.373-.424.702-1.082 1.006zm-8.369 3.69l-.002-2.395H4.97v4.248h1.312v2.395h4.247v-4.248h-1.31zm-1.257-1.856h.696v1.779h-.696v-1.779zm.714 3.709v.541h-.54v-.541h.54zm-3.07-3.709h1.777v.697H5.606v-.697zm.675 3.168h-.695v-1.777h.695v1.777zm.542-1.853h.539v.541h-.539v-.541zm.057 1.158h1.778v.695H6.88v-.695zm.715 3.012H6.9v-1.775h.695v1.775zm2.298-.018H8.115v-.697h1.777v.697zm.02-1.236h-.696v-1.777h.695v1.777z"/></g><path fill="#231F20" d="M48.45 15.066c-2.553 0-2.75-1.938-2.75-2.533 0-.699.188-1.935 1.814-2.533 1.679-.617 2.038-.689 3.193-1.052v-.299c0-.56 0-.696-.111-1.043-.223-.666-.861-1.084-1.728-1.084a2.06 2.06 0 0 0-1.801.982l-.102.19-.473-.281.047-.146c.23-.733 1.155-1.979 3.177-1.979 1.313 0 2.169.373 2.699 1.178.394.639.426 1.521.426 2.444 0 .811-.02 1.714-.037 2.442-.012.5-.021.934-.021 1.197 0 .666.105 1.182.66 1.182.138 0 .232-.029.308-.094l.152-.129.31.354-.104.133c-.51.615-.995 1.049-1.86 1.049-.749 0-1.268-.356-1.443-.953-.414.435-1.171.975-2.356.975zm2.258-4.954c-1.255.377-1.681.587-2.069.783-.54.273-.821.828-.821 1.479 0 .51.182 1.364 1.405 1.364.404 0 .981-.074 1.485-.436v-3.19zm-17.856 4.93c-1.222 0-2.152-.134-3.107-.445l-.138-.045v-.685c0-.911-.019-1.269-.039-1.56l-.027-.474.556.001.012.198c.023.425.166.843.426 1.136.4.453 1.323.727 2.18.727 1.796 0 2.631-.68 2.631-2.139 0-1.25-.772-1.769-1.839-2.49l-.171-.117-1.127-.75c-1.566-1.038-2.363-1.869-2.363-3.529 0-.813.307-3.463 4.255-3.463 1.62 0 2.869.213 2.922.221l.17.03-.006.167c0 .005-.014.52-.014 1.078 0 .439-.008.822.008 1.218l.016.295h-.479l-.012-.185c-.035-.502-.182-.862-.457-1.139-.38-.381-1.22-.559-2.109-.559-2.092 0-2.336 1.076-2.336 1.882 0 1.11.569 1.486 1.813 2.308l1.427.945c1.216.811 2.361 1.576 2.361 3.592-.002 3.413-3.184 3.782-4.553 3.782zm9.354.06c-1.457 0-2.264-.52-2.622-1.683-.149-.463-.149-1.374-.149-1.92 0-1.505.014-2.713.029-4.111l.008-.656h-1.243v-.37l.121-.05c.579-.239.8-.402 1.056-.6.905-.702 1.534-1.889 1.544-1.906l.212-.359h.41v2.117h3.208v1.168h-3.208v4.945c0 1.477.275 2.32 1.675 2.32.649 0 1.149-.252 1.153-.256l.193-.1.165.383-.081.092c-.033.037-.759.986-2.471.986zm12.813-.119v-.447l.182-.014c.158-.014.557-.076.835-.391.291-.324.309-1.128.309-2.732V8.708c0-1.158-.018-1.654-.186-1.906-.192-.277-.618-.307-.845-.323-.029-.001-.055-.005-.078-.006l-.18-.019v-.539l.213.017c.037.005.084.005.144.005.291 0 .978-.039 1.702-.18.554-.088.876-.279.993-.334l.107-.05.186.11v.748a4.624 4.624 0 0 1 2.729-.905c1.697 0 2.807.794 3.123 2.233.09.357.123 1.224.123 1.686v2.748c0 1.555.06 1.991.351 2.264.147.135.457.246.729.264l.186.014v.439l-.467-.024c-.676-.034-1.258-.065-1.869-.065-.695 0-1.297 0-2.137.078l-.219.022v-.436l.17-.024c.365-.057.619-.16.781-.321.305-.306.32-1.029.344-1.655.004-.104.008-.213.014-.326.017-.352.017-1.092.017-1.633 0-.705 0-1.434-.076-2.153-.141-1.218-.775-1.784-2-1.784-.84 0-1.365.192-1.763.397v4.945c0 1.555.064 1.991.355 2.264.148.135.455.246.728.264l.185.014v.439l-.501-.025c-.652-.034-1.218-.064-1.812-.064-.681 0-1.319 0-2.162.078l-.211.018zm11.745 0v-.457l.184-.014c.16-.012.559-.074.836-.388.293-.325.307-1.121.307-2.726V6.731h-1.227v-.528l.123-.052c.533-.22.861-.395 1.104-.583.002-.835.027-1.911.141-2.497.373-1.943 1.643-2.93 3.779-2.93.916 0 1.791.306 2.299.718l.072.059.029.2-.936 1.299-.225.002-.051-.117c-.357-.799-.877-1.111-1.586-1.111-.295 0-.699.088-.949.339-.408.406-.477 1.013-.477 2.214v1.82h2.098v1.168h-2.098v5.223c0 1.243.041 1.849.203 2.092.264.396 1.064.427 1.301.427h.199v.501l-.209-.012a47.83 47.83 0 0 0-2.365-.078c-.699 0-1.494 0-2.336.078l-.216.02zm10.83.159c-2.873 0-4.59-1.791-4.59-4.789 0-2.328 1.254-5.047 4.789-5.047 2.875 0 4.592 1.791 4.592 4.788 0 2.329-1.254 5.048-4.791 5.048zm.119-8.748c-.555 0-1.004.143-1.332.428-.758.634-1.141 1.789-1.141 3.431 0 .635.117 3.802 2.436 3.802.553 0 1.004-.146 1.336-.428.754-.634 1.137-1.789 1.137-3.432-.001-.635-.118-3.801-2.436-3.801zm5.58 8.589v-.477l.184-.016c.16-.01.563-.072.838-.389.293-.324.305-1.099.305-2.703v-2.69c0-1.158-.016-1.654-.182-1.906-.193-.277-.617-.307-.846-.323-.027-.001-.055-.005-.074-.006l-.184-.019v-.57l.203.004c.035.003.096.004.154.004.293 0 .979-.036 1.701-.178.457-.076.852-.193 1.01-.269l.109-.049.166.087v.818a3.115 3.115 0 0 1 2.178-.877c.658 0 1.189.176 1.576.524l.064.06v.297l-.793 1.453h-.381l-.059-.092c-.221-.346-.662-.758-1.518-.758-.391 0-.729.098-1.027.299v4.746c0 1.243.041 1.83.203 2.072.266.395 1.063.426 1.299.426h.197v.522l-.207-.012a47.757 47.757 0 0 0-2.365-.078c-.699 0-1.492 0-2.334.078l-.217.022zm14.805.131l-.252-.084v-.793c-.467.346-1.393.883-2.631.883-2.586 0-4.258-1.793-4.258-4.57 0-.921.182-1.797.516-2.535.787-1.709 2.428-2.688 4.492-2.688a9.24 9.24 0 0 1 1.84.181V3.505c0-1.174-.016-1.799-.184-2.052-.191-.274-.604-.306-.826-.322a.735.735 0 0 1-.076-.006l-.178-.018.041-.423h.199c.045 0 1.133-.09 2.018-.264.371-.06.738-.144.93-.214l.094-.035.162.097-.008.092c-.063.776-.072 2.436-.072 3.679v7.678c0 1.148.016 1.857.182 2.086.195.28.605.327.828.345a.563.563 0 0 1 .078.006l.178.007v.506h-.197c-.211 0-1.033.058-1.828.194-.457.074-.795.141-.961.217l-.087.036zm-2.174-8.66c-1.834 0-2.73 1.256-2.73 3.839 0 1.047.297 3.481 3.031 3.481h.088c.332 0 .951-.049 1.492-.384V7.084c-.155-.152-.725-.63-1.881-.63zM30.536 19.085h1.535l1.416 3.862.516 1.486h.048l.504-1.486 1.391-3.862h1.535v7.844h-1.307v-3.586c0-.732.107-1.774.18-2.495h-.048l-.636 1.787-1.355 3.563h-.647l-1.356-3.563-.624-1.787h-.048c.072.721.18 1.764.18 2.495v3.586h-1.283v-7.844zm11.94 0h4.726v1.175h-3.334v2.004h2.818v1.175h-2.818v2.315h3.454v1.175h-4.846v-7.844zm9.456 0h2.1c2.398 0 3.813 1.296 3.813 3.886 0 2.603-1.415 3.958-3.742 3.958h-2.171v-7.844zm2.003 6.716c1.583 0 2.483-.899 2.483-2.83 0-1.919-.9-2.758-2.483-2.758h-.611v5.588h.611zm8.497-6.716h1.392v7.844h-1.392v-7.844zm9.599-.144c.947 0 1.738.467 2.23.995l-.779.864c-.396-.396-.84-.649-1.439-.649-1.295 0-2.207 1.08-2.207 2.843 0 1.786.84 2.866 2.159 2.866.695 0 1.199-.288 1.643-.779l.78.852c-.636.731-1.464 1.139-2.447 1.139-2.003 0-3.562-1.44-3.562-4.041 0-2.566 1.607-4.09 3.622-4.09zm6.696.144h1.392v7.844h-1.392v-7.844zm6.385 0h1.428l2.446 4.413.804 1.668h.048c-.06-.804-.18-1.799-.18-2.675v-3.406h1.331v7.844h-1.427l-2.447-4.413-.804-1.668h-.048c.061.828.181 1.775.181 2.65v3.431h-1.332v-7.844zm10.871 0h4.726v1.175h-3.334v2.004h2.818v1.175h-2.818v2.315h3.454v1.175h-4.846v-7.844z"/><path fill="#A61D38" d="M15.582 5.54c.045.024.098.021.114-.01s-.006-.08-.054-.103c-.048-.025-.1-.022-.117.011-.016.031.009.077.057.102m.246-.531c.038.037.089.044.114.018.024-.026.013-.076-.026-.111-.04-.037-.091-.045-.114-.018-.025.024-.013.076.026.111"/><g fill="#231F20"><path d="M16.929 5.803l.211.109.469.124-.001-.773-.919-.543v.541c.153.185.268.387.24.542zm1.291 12.686c.008-.156-.26-.343-.633-.532l.003.92c.531-.165.626-.312.63-.388zm-2.302-2.444c.029.237.387.47.919.719a80.239 80.239 0 0 0-.077-1.709c-.613.457-.869.759-.842.99zm1.494 3.969l-.002-.408-.01.001v-.674l.005-.001-.005-1.065a8.163 8.163 0 0 0-.347-.154c.017.613.031 1.28.042 2.012.045.142.222.25.317.289zM15.553 5.797c-.338-.111-.379-.281-.408-.394-.018-.071-.02-.081-.077-.094a.449.449 0 0 0-.096-.01c-.166 0-.475.072-.578.339-.112.292-.038 1.019 1.723 2.615l.39.358-.003-2.593c-.224-.01-.535-.083-.951-.221z"/><path d="M15.642 5.602a.108.108 0 0 0 .098-.053c.026-.057-.006-.128-.075-.164-.07-.036-.15-.023-.179.03a.097.097 0 0 0-.006.075c.012.036.041.07.081.091a.166.166 0 0 0 .081.021zm.26-.512a.1.1 0 0 0 .073-.03.095.095 0 0 0 .025-.073.155.155 0 0 0-.053-.105c-.058-.054-.146-.056-.178-.018a.089.089 0 0 0-.026.07.158.158 0 0 0 .053.108c.03.03.069.048.106.048zm1.508 16.137v-.34c.003-.258-.108-.299-.303-.344l.007.721.001.025c.037.086.11.117.167.117a.14.14 0 0 0 .14-.119l-.001-.063-.011.003zm.191-7.553c.658-.303 1.021-.633 1.082-1.007.083-.511-.381-1.081-1.01-1.685a83.434 83.434 0 0 0-.072 2.692z"/><path d="M22.209 1.496H12.175v26.25a24.646 24.646 0 0 0 2.087-1.297c12.075-8.333 8.901-22.724 7.947-24.953zm-2.556 11.3c-.101.73-.896 1.273-2.061 1.857-.006.735-.008 1.54-.007 2.433.064.026.127.053.194.079 1.086.44 1.269.94 1.231 1.28-.063.569-.761.993-1.417 1.125l.003.555a.709.709 0 0 1 .303.584.504.504 0 0 1-.296.439l.001.158c-.037.179-.167.287-.324.287a.37.37 0 0 1-.337-.233.892.892 0 0 0-.164.054c-.138.057-.212.078-.264.078-.077 0-.106-.047-.114-.067-.037-.077.025-.157.091-.234.133-.149.213-.2.429-.303l-.004-.392a.792.792 0 0 1-.204-.088c-.372-.238-.531-.49-.474-.752.072-.328.479-.542.656-.608-.009-.504-.02-.975-.032-1.416a44.488 44.488 0 0 0-.673-.268c-.987-.385-1.177-.943-1.165-1.346.025-.866.966-1.705 1.666-1.962-.193-2.421-.478-2.884-.764-3.062l-.069-.043.323-.746.326.222V9.92a17.233 17.233 0 0 1-.598-.568c-.261-.268-1.394-1.461-1.521-1.638-.222-.301-.518-.753-.677-1.198-.193-.548-.15-1.118.11-1.487.279-.393.782-.537 1.432-.405.148.063.218.042.32.015.061-.015.129-.033.206-.033.131 0 .26.05.406.158.05.037.179.146.316.285L16.5 4.39l1.292.764.002 1.106c.159-.217.396-.462.651-.505l.095-.015.179 1.172-.041.034c-.479.399-.769.928-.93 2.835 1.378 1.359 2.008 2.257 1.905 3.015z"/><path d="M18.519 6.838l-.132-.871c-.247.11-.505.466-.6.659l-.177-.041v-.446l-.22.045.018.281-.086.026-.278-.441-.212-.104a.308.308 0 0 1-.141.065l.003 2.773c.318.294.613.572.879.831.165-1.819.46-2.359.946-2.777zm-1.823 3.252v.691l-.432-.293-.169.392c.353.239.753.797.932 5.971.118.052.241.106.371.159-.004-2.792.024-4.771.094-6.198a42.55 42.55 0 0 0-.557-.506l-.239-.216zM1.11 12.74h10.798V1.496H1.874C1.362 2.69.216 7.37 1.11 12.74zm1.648-3.931c-.1-.002-.187 0-.289-.129-.111-.142-.218-.45-.032-.547.114-.099.381.046.468.207.081.147.052.234.022.337.094.147.2.293.295.424-.065-.423.056-.773.166-1.022.377.526.307.98.097 1.304.157.194.288.34.445.498-.044-.296-.009-.745.1-.996.353.487.401.986.24 1.314.149.125.288.244.434.336-.08-.279-.116-.742-.043-1.008.399.406.522.864.43 1.211.17.078.334.145.504.184-.081-.165-.159-.448-.145-.628.3.192.375.412.363.645.046.005.174.064.219.064l-.01-.671c-.295-.076-.739-.246-.884-.815.276.065.627.131.884.359v-.354c-.597-.048-1.198-.472-1.494-1.316.517.09 1.016.336 1.494.647v-.311C5.5 8.504 5.008 8.021 4.79 7.335c.431.081.832.275 1.231.56v-.392c-.487-.053-.989-.469-1.231-1.23.431.081.832.267 1.231.551v-.44c-.503-.035-.98-.316-1.231-1.099.431.08.832.307 1.231.592v-.49c-.396-.045-.771-.289-.97-1.06.346.08.65.228.97.514v-.509c-.305-.055-.588-.176-.741-.773.208.047.461.059.743.312l-.005-.306c-.231-.344-.179-.496-.152-.768.025-.248.118-.431.385-.444.266.013.358.196.386.444.029.272.078.424-.152.768l.005.314c.208-.169.512-.304.755-.353-.134.602-.43.754-.753.809l-.011.507c.263-.211.659-.495.961-.557-.172.766-.541 1.045-.95 1.102v.499c.327-.211.841-.581 1.22-.642-.216.775-.697 1.083-1.217 1.13l.002.46c.326-.211.837-.542 1.216-.602-.209.749-.715 1.205-1.216 1.274v.389c.328-.21.836-.542 1.215-.602-.198.786-.698 1.21-1.22 1.255v.318c.393-.233 1.037-.637 1.489-.704-.258.843-.868 1.301-1.489 1.359v.364c.211-.168.653-.351.896-.398-.129.574-.591.771-.898.848l-.001.68c.072-.002.143-.015.217-.024-.021-.236.117-.479.424-.674.013.181-.09.446-.149.623.165-.038.33-.083.493-.152-.089-.345.026-.818.421-1.218.074.267.004.701-.031.989.174-.107.35-.222.52-.369-.191-.327-.156-.835.213-1.344.109.25.114.733.118 1.024.15-.16.312-.339.455-.533-.261-.317-.271-.623.04-1.241.108.25.207.625.21.917.135-.174.231-.318.345-.527-.068-.16-.037-.281.046-.385.115-.144.287-.267.441-.172.214.097.106.333.031.506-.053.122-.145.205-.305.2-.11.197-.266.412-.4.583.311.099.533.171.743.386-.46.191-.736.146-.964-.045-.149.197-.367.413-.522.576.303.093.502.178.749.429-.502.208-.874.143-1.097-.094-.175.15-.342.305-.523.411.297.151.513.312.692.559-.571.131-.948-.031-1.115-.352-.17.068-.328.126-.499.159.163.139.273.247.356.431-.392-.01-.615-.102-.673-.343-.079.008-.159.061-.237.06v.766l-.482-.214v-.562c-.049-.005-.163-.044-.21-.052-.069.229-.241.317-.618.324.082-.186.127-.318.318-.416-.174-.045-.337-.129-.508-.208-.15.357-.488.505-1.09.367.176-.247.4-.47.702-.573a2.57 2.57 0 0 1-.449-.339c-.219.247-.595.331-1.108.117.21-.214.418-.385.737-.445-.159-.16-.307-.354-.461-.548-.228.202-.574.267-1.045.069.211-.214.452-.441.754-.437-.093-.133-.175-.283-.27-.435zm4.156 10.408h.695v1.777h-.695zm1.214 1.062h1.777v.695H8.128zm1.102-2.316h.696v1.776H9.23zm-2.394-1.141h.539v.541h-.539zm.057 1.158H8.67v.696H6.893zm1.255 1.237h.541v.543h-.541z"/><path d="M9.821 26.449c.652.451 1.343.885 2.087 1.297V13.008H1.158c.82 4.592 3.158 9.643 8.663 13.441zm-.591-11.48l.002 2.394h1.31v4.25H6.294v-2.396H4.983v-4.248H9.23z"/><path d="M5.6 16.899h.695v1.777H5.6zm2.375-1.39h.696v1.778h-.696zm-2.355 0h1.777v.697H5.62z"/></g></svg>