<svg id="Layer_1" xmlns="http://www.w3.org/2000/svg" viewBox="0 0 83.1 65"><style>.st0{enable-background:new}.st1{fill:#f37021}.st2{fill:#1f3c53}</style><g id="Group_166"><g class="st0"><path class="st1" d="M10286.6 234v.2c0 .2-.1.4-.2.6-.1.2-.2.3-.4.4-.2.1-.4.2-.6.2-.6 0-.9-.3-1.1-.8l-1.3-4.9c-.1-.2-.2-.3-.4-.3s-.3.1-.3.4v.1l2.1 7.9s.1.1.1.2l.1.1h-.1.1c0 .4-.2.6-.6.6h-1.5v5.2c0 .3-.1.5-.2.6-.1.2-.3.4-.5.5-.2.1-.4.2-.6.2-.3 0-.7-.2-1-.5-.3-.3-.4-.6-.4-.9v-5.2h-.8v5.2c0 .3-.1.6-.4.9-.3.3-.6.5-.9.5-.3 0-.7-.2-1-.5-.3-.3-.4-.6-.4-.9v-5.2h-1.5c-.4 0-.6-.2-.6-.6v-.1c0-.1 0-.2.1-.2l2.1-7.9v-.2c-.1-.2-.2-.3-.3-.3-.2 0-.3.1-.4.3l-1.3 4.9h-.1c-.2.5-.6.8-1 .8-.3 0-.6-.1-.8-.4-.2-.2-.3-.5-.3-.8v-.1l1.8-6.8.1-.1c.2-.6.6-.8 1.2-.8v-.1h8.5v.1c.6 0 1.1.3 1.2.8l.1.1 1.5 6.8zm-7.5-8.5c-1.8 0-2.7-.9-2.7-2.7s.9-2.7 2.7-2.7 2.7.9 2.7 2.7-.9 2.7-2.7 2.7z" transform="translate(-10272 -216)"/></g><g class="st0"><path class="st2" d="M10309.1 266v.2c0 .2-.1.4-.2.6-.1.2-.2.3-.4.4-.2.1-.4.2-.6.2-.6 0-.9-.3-1.1-.8l-1.3-4.9c-.1-.2-.2-.3-.4-.3s-.3.1-.3.4v.1l2.1 7.9s.1.1.1.2l.1.1h-.1.1c0 .4-.2.6-.6.6h-1.5v5.2c0 .3-.1.5-.2.6-.1.2-.3.4-.5.5-.2.1-.4.2-.6.2-.3 0-.7-.2-1-.5-.3-.3-.4-.6-.4-.9v-5.2h-.8v5.2c0 .3-.1.6-.4.9-.3.3-.6.5-.9.5-.3 0-.7-.2-1-.5-.3-.3-.4-.6-.4-.9v-5.2h-1.5c-.4 0-.6-.2-.6-.6v-.1c0-.1 0-.2.1-.2l2.1-7.9v-.2c-.1-.2-.2-.3-.3-.3-.2 0-.3.1-.4.3l-1.3 4.9h-.1c-.2.5-.6.8-1 .8-.3 0-.6-.1-.8-.4-.2-.2-.3-.5-.3-.8v-.1l1.8-6.8.1-.1c.2-.6.6-.8 1.2-.8v-.1h8.5v.1c.6 0 1.1.3 1.2.8l.1.1 1.5 6.8zm-7.6-8.5c-1.8 0-2.7-.9-2.7-2.7s.9-2.7 2.7-2.7 2.7.9 2.7 2.7-.9 2.7-2.7 2.7z" transform="translate(-10272 -216)"/></g><g class="st0"><path class="st2" d="M10332.3 234v.2c0 .2-.1.4-.2.6-.1.2-.2.3-.4.4-.2.1-.4.2-.6.2-.6 0-.9-.3-1.1-.8l-1.3-4.9c-.1-.2-.2-.3-.4-.3s-.3.1-.3.4v.1l2.1 7.9s.1.1.1.2l.1.1h-.1.1c0 .4-.2.6-.6.6h-1.5v5.2c0 .3-.1.5-.2.6-.1.2-.3.4-.5.5-.2.1-.4.2-.6.2-.3 0-.7-.2-1-.5-.3-.3-.4-.6-.4-.9v-5.2h-.8v5.2c0 .3-.1.6-.4.9-.3.3-.6.5-.9.5-.3 0-.7-.2-1-.5-.3-.3-.4-.6-.4-.9v-5.2h-1.5c-.4 0-.6-.2-.6-.6v-.1c0-.1 0-.2.1-.2l2.1-7.9v-.2c-.1-.2-.2-.3-.3-.3-.2 0-.3.1-.4.3l-1.3 4.9h-.1c-.2.5-.6.8-1 .8-.3 0-.6-.1-.8-.4-.2-.2-.3-.5-.3-.8v-.1l1.8-6.8.1-.1c.2-.6.6-.8 1.2-.8v-.1h8.5v.1c.6 0 1.1.3 1.2.8l.1.1 1.5 6.8zm-7.6-8.5c-1.8 0-2.7-.9-2.7-2.7s.9-2.7 2.7-2.7 2.7.9 2.7 2.7-.9 2.7-2.7 2.7z" transform="translate(-10272 -216)"/></g><g class="st0"><path class="st2" d="M10354.7 266v.2c0 .2-.1.4-.2.6-.1.2-.2.3-.4.4-.2.1-.4.2-.6.2-.6 0-.9-.3-1.1-.8l-1.3-4.9c-.1-.2-.2-.3-.4-.3s-.3.1-.3.4v.1l2.1 7.9s.1.1.1.2l.1.1h-.1.1c0 .4-.2.6-.6.6h-1.5v5.2c0 .3-.1.5-.2.6-.1.2-.3.4-.5.5-.2.1-.4.2-.6.2-.3 0-.7-.2-1-.5-.3-.3-.4-.6-.4-.9v-5.2h-.8v5.2c0 .3-.1.6-.4.9-.3.3-.6.5-.9.5-.3 0-.7-.2-1-.5-.3-.3-.4-.6-.4-.9v-5.2h-1.5c-.4 0-.6-.2-.6-.6v-.1c0-.1 0-.2.1-.2l2.1-7.9v-.2c-.1-.2-.2-.3-.3-.3-.2 0-.3.1-.4.3l-1.3 4.9h-.1c-.2.5-.6.8-1 .8-.3 0-.6-.1-.8-.4-.2-.2-.3-.5-.3-.8v-.1l1.8-6.8.1-.1c.2-.6.6-.8 1.2-.8v-.1h8.5v.1c.6 0 1.1.3 1.2.8l.1.1 1.5 6.8zm-7.5-8.5c-1.8 0-2.7-.9-2.7-2.7s.9-2.7 2.7-2.7 2.7.9 2.7 2.7-.9 2.7-2.7 2.7z" transform="translate(-10272 -216)"/></g><g class="st0"><path class="st1" d="M10307 226.8c.4.1.6.2.8.4.3.3.4.6.4.9v7.5c0 .3-.1.5-.4.8-.2.2-.5.3-.8.3-.3 0-.6-.1-.8-.3-.2-.2-.3-.5-.3-.8v-5.3c0-.3-.1-.4-.4-.4s-.4.1-.4.4V244c0 .4-.1.7-.4.9s-.5.4-.9.4-.7-.1-.9-.4-.4-.6-.4-.9v-6.9c0-.3-.1-.4-.4-.4s-.4.1-.4.4v6.9c0 .4-.1.7-.4.9s-.6.4-.9.4-.7-.1-.9-.4-.4-.6-.4-.9v-13.7c0-.3-.1-.4-.3-.4-.3 0-.4.1-.4.4v5.3c0 .3-.1.5-.3.8-.2.2-.5.3-.8.3-.3 0-.6-.1-.8-.3-.2-.2-.3-.5-.3-.8V228c0-.3.1-.5.2-.6.2-.3.3-.4.4-.5.1-.1.3-.1.6-.1h9.6zm-7.7-3.4c0-1.8.9-2.6 2.6-2.6 1.8 0 2.7.9 2.7 2.6s-.9 2.6-2.7 2.6c-1.7 0-2.6-.9-2.6-2.6z" transform="translate(-10272 -216)"/></g><g class="st0"><path class="st2" d="M10352.6 226.8c.4.1.6.2.8.4.3.3.4.6.4.9v7.5c0 .3-.1.5-.4.8-.2.2-.5.3-.8.3-.3 0-.6-.1-.8-.3-.2-.2-.3-.5-.3-.8v-5.3c0-.3-.1-.4-.4-.4s-.4.1-.4.4V244c0 .4-.1.7-.4.9s-.5.4-.9.4-.7-.1-.9-.4-.4-.6-.4-.9v-6.9c0-.3-.1-.4-.4-.4s-.4.1-.4.4v6.9c0 .4-.1.7-.4.9s-.6.4-.9.4-.7-.1-.9-.4-.4-.6-.4-.9v-13.7c0-.3-.1-.4-.3-.4-.3 0-.4.1-.4.4v5.3c0 .3-.1.5-.3.8-.2.2-.5.3-.8.3-.3 0-.6-.1-.8-.3-.2-.2-.3-.5-.3-.8V228c0-.3.1-.5.2-.6.2-.3.3-.4.4-.5.1-.1.3-.1.6-.1h9.6zm-7.7-3.4c0-1.8.9-2.6 2.6-2.6 1.8 0 2.7.9 2.7 2.6s-.9 2.6-2.7 2.6c-1.7 0-2.6-.9-2.6-2.6z" transform="translate(-10272 -216)"/></g><g class="st0"><path class="st2" d="M10283.6 258.8c.4.1.6.2.8.4.3.3.4.6.4.9v7.5c0 .3-.1.5-.4.8-.2.2-.5.3-.8.3-.3 0-.6-.1-.8-.3-.2-.2-.3-.5-.3-.8v-5.3c0-.3-.1-.4-.4-.4s-.4.1-.4.4V276c0 .4-.1.7-.4.9s-.5.4-.9.4-.7-.1-.9-.4-.4-.6-.4-.9v-6.9c0-.3-.1-.4-.4-.4s-.4.1-.4.4v6.9c0 .4-.1.7-.4.9s-.6.4-.9.4-.7-.1-.9-.4-.4-.6-.4-.9v-13.7c0-.3-.1-.4-.3-.4-.3 0-.4.1-.4.4v5.3c0 .3-.1.5-.3.8-.2.2-.5.3-.8.3-.3 0-.6-.1-.8-.3-.2-.2-.3-.5-.3-.8V260c0-.3.1-.5.2-.6.2-.3.3-.4.4-.5.1-.1.3-.1.6-.1h9.6zm-7.6-3.4c0-1.8.9-2.6 2.6-2.6 1.8 0 2.7.9 2.7 2.6s-.9 2.6-2.7 2.6c-1.8 0-2.6-.9-2.6-2.6z" transform="translate(-10272 -216)"/></g><g class="st0"><path class="st2" d="M10329.3 258.8c.4.1.6.2.8.4.3.3.4.6.4.9v7.5c0 .3-.1.5-.4.8-.2.2-.5.3-.8.3-.3 0-.6-.1-.8-.3-.2-.2-.3-.5-.3-.8v-5.3c0-.3-.1-.4-.4-.4s-.4.1-.4.4V276c0 .4-.1.7-.4.9s-.5.4-.9.4-.7-.1-.9-.4-.4-.6-.4-.9v-6.9c0-.3-.1-.4-.4-.4s-.4.1-.4.4v6.9c0 .4-.1.7-.4.9s-.6.4-.9.4-.7-.1-.9-.4-.4-.6-.4-.9v-13.7c0-.3-.1-.4-.3-.4-.3 0-.4.1-.4.4v5.3c0 .3-.1.5-.3.8-.2.2-.5.3-.8.3-.3 0-.6-.1-.8-.3-.2-.2-.3-.5-.3-.8V260c0-.3.1-.5.2-.6.2-.3.3-.4.4-.5.1-.1.3-.1.6-.1h9.6zm-7.7-3.4c0-1.8.9-2.6 2.6-2.6 1.8 0 2.7.9 2.7 2.6s-.9 2.6-2.7 2.6c-1.7 0-2.6-.9-2.6-2.6z" transform="translate(-10272 -216)"/></g></g></svg>