<svg id="Layer_1" xmlns="http://www.w3.org/2000/svg" viewBox="0 0 101.1 56.9"><style>.st0{fill:none;stroke:#1f3c53;stroke-width:3}.st1{enable-background:new}.st2{fill:#1f3c53}.st3{fill:none;stroke:#f37021;stroke-width:4}</style><g id="Group_167" transform="translate(-9229.556 2282)"><path id="Path_204" class="st0" d="M9244.8-2276.4v49.8h85.5"/><g class="st1"><path class="st2" d="M9233.7-2278.2h.8l-.2 1.3c.7.1 1.4.4 1.9.7l-.4 1.4c-.5-.3-1.1-.5-1.7-.7l-.3 2.3c1.3.4 2.7 1 2.7 2.6s-1.3 2.7-3.3 2.7h-.2l-.2 1.5h-.8l.2-1.6c-.8-.1-1.5-.4-2.1-.7l.4-1.5c.6.4 1.2.6 1.9.8l.4-2.5c-1.2-.4-2.5-.9-2.5-2.6 0-1.6 1.2-2.6 3.1-2.6h.3v-1.1zm-.4 2.7c-1.1 0-1.6.4-1.6 1.1 0 .6.4.9 1.2 1.1l.4-2.2zm-.2 6.3c1.1 0 1.7-.5 1.7-1.2 0-.6-.4-.9-1.4-1.2l-.3 2.4z"/></g><path id="Path_205" class="st3" d="M9249.2-2271.2h10.5l14.2 16.1 11.8-11.6 17.3 18.8 11.7-9.6 14.7 12.8"/></g></svg>